<svg width="18" height="18" viewBox="0 0 18 18" fill="none" xmlns="http://www.w3.org/2000/svg">
<path d="M6.75 4.5V3.75C6.75 3.35218 6.90804 2.97064 7.18934 2.68934C7.47064 2.40804 7.85218 2.25 8.25 2.25H9.75C10.1478 2.25 10.5294 2.40804 10.8107 2.68934C11.092 2.97064 11.25 3.35218 11.25 3.75V4.5M4.5 7.5H13.5M4.5 12H13.5M6.75 15V15.75M11.25 15V15.75M6 4.5H12C12.8284 4.5 13.5 5.17157 13.5 6V13.5C13.5 14.3284 12.8284 15 12 15H6C5.17157 15 4.5 14.3284 4.5 13.5V6C4.5 5.17157 5.17157 4.5 6 4.5Z" stroke="#818181" stroke-width="1.5" stroke-linecap="round" stroke-linejoin="round"/>
</svg>
