<svg width="18" height="18" viewBox="0 0 18 18" fill="none" xmlns="http://www.w3.org/2000/svg">
<path d="M9 15.75V9M9 9L3.375 5.625M9 9L14.625 5.625M9 2.25V5.625M14.625 12L12 10.5M6 10.5L3.375 12M14.25 5.15475C14.4797 5.28735 14.6701 5.47847 14.8019 5.70864C14.9336 5.93881 15.002 6.1998 15 6.465V11.367C14.9999 11.6345 14.9283 11.8971 14.7927 12.1276C14.657 12.3581 14.4621 12.5481 14.2283 12.678L9.72825 15.5527C9.50547 15.6765 9.25483 15.7414 9 15.7414C8.74517 15.7414 8.49453 15.6765 8.27175 15.5527L3.77175 12.678C3.53802 12.5482 3.34322 12.3583 3.20754 12.1279C3.07185 11.8976 3.0002 11.6351 3 11.3677V6.465C3.00006 6.19752 3.07165 5.93491 3.20735 5.7044C3.34304 5.47389 3.53791 5.28386 3.77175 5.154L8.27175 2.475C8.5011 2.34733 8.75925 2.28032 9.02175 2.28032C9.28425 2.28032 9.5424 2.34733 9.77175 2.475L14.2717 5.15475H14.25ZM11.625 7.0725C11.7399 7.13883 11.8351 7.23445 11.901 7.34961C11.9669 7.46476 12.0011 7.59534 12 7.728V10.179C11.9999 10.3128 11.9641 10.4441 11.8962 10.5594C11.8283 10.6746 11.7307 10.7696 11.6137 10.8345L9.36375 12.2723C9.25245 12.334 9.12727 12.3664 9 12.3664C8.87273 12.3664 8.74755 12.334 8.63625 12.2723L6.38625 10.8345C6.26937 10.7697 6.17193 10.6748 6.10402 10.5597C6.03612 10.4446 6.0002 10.3134 6 10.1797V7.728C5.99999 7.5943 6.03573 7.46302 6.10351 7.34777C6.17129 7.23252 6.26865 7.13748 6.3855 7.0725L8.6355 5.733C8.86875 5.60325 9.153 5.60325 9.3855 5.733L11.6355 7.07325L11.625 7.0725Z" stroke="#818181" stroke-linecap="round" stroke-linejoin="round"/>
</svg>
