<svg width="18" height="18" viewBox="0 0 18 18" fill="none" xmlns="http://www.w3.org/2000/svg">
<path d="M7.5 12H12M3 6H5.25M3 9H5.25M3 12H5.25M15 4.5V13.5C15 13.8978 14.842 14.2794 14.5607 14.5607C14.2794 14.842 13.8978 15 13.5 15H6C5.60218 15 5.22064 14.842 4.93934 14.5607C4.65804 14.2794 4.5 13.8978 4.5 13.5V4.5C4.5 4.10218 4.65804 3.72064 4.93934 3.43934C5.22064 3.15804 5.60218 3 6 3H13.5C13.8978 3 14.2794 3.15804 14.5607 3.43934C14.842 3.72064 15 4.10218 15 4.5ZM11.25 8.25C11.25 9.07843 10.5784 9.75 9.75 9.75C8.92157 9.75 8.25 9.07843 8.25 8.25C8.25 7.42157 8.92157 6.75 9.75 6.75C10.5784 6.75 11.25 7.42157 11.25 8.25Z" stroke="#818181" stroke-width="1.5" stroke-linecap="round" stroke-linejoin="round"/>
</svg>
