<svg width="18" height="18" viewBox="0 0 18 18" fill="none" xmlns="http://www.w3.org/2000/svg">
<path d="M15.75 12.75C15.75 14.4069 14.4069 15.75 12.75 15.75C11.0931 15.75 9.75 14.4069 9.75 12.75C9.75 11.0931 11.0931 9.75 12.75 9.75M15.75 12.75C15.75 11.0931 14.4069 9.75 12.75 9.75M15.75 12.75H12.75V9.75M9 2.25V5.25C9 5.44891 9.07902 5.63968 9.21967 5.78033C9.36032 5.92098 9.55109 6 9.75 6H12.75M12.75 7.5V6L9 2.25H3.75C3.35218 2.25 2.97064 2.40804 2.68934 2.68934C2.40804 2.97064 2.25 3.35218 2.25 3.75V14.25C2.25 14.6478 2.40804 15.0294 2.68934 15.3107C2.97064 15.592 3.35218 15.75 3.75 15.75H8.625" stroke="#818181" stroke-width="1.5" stroke-linecap="round" stroke-linejoin="round"/>
</svg>
