<?xml version="1.0" encoding="UTF-8"?>
<svg version="1.1" xmlns="http://www.w3.org/2000/svg" width="2850" height="1419">
<path d="M0 0 C10.56 0 21.12 0 32 0 C32.33 50.16 32.66 100.32 33 152 C43.89040478 142.66547714 43.89040478 142.66547714 54.578125 133.140625 C57.14303557 130.87357501 59.7748351 128.71369255 62.4375 126.5625 C67.21284402 122.70058325 71.73667685 118.62325776 76.25390625 114.46484375 C78.91875166 112.07292703 81.64831825 109.80745116 84.4375 107.5625 C88.43223986 104.34056899 92.24554349 100.99344505 96 97.5 C100.61004336 93.21044887 105.37782956 89.19589328 110.28515625 85.24609375 C113.10673495 82.9116941 115.80590712 80.48009402 118.5 78 C122.05670244 74.72581577 125.67161811 71.59357567 129.4375 68.5625 C133.97316443 64.90428985 138.2570117 61.05257035 142.51928711 57.08618164 C146.60661006 53.30509442 150.88043244 49.80310034 155.21875 46.3125 C158.24019336 43.80028867 161.12440078 41.17597543 164 38.5 C168.61001639 34.2104224 173.37783236 30.19589103 178.28515625 26.24609375 C181.10673495 23.9116941 183.80590712 21.48009402 186.5 19 C191.00031437 14.86022584 195.63506549 10.94328305 200.39453125 7.10546875 C203.08119479 5.01885546 203.08119479 5.01885546 205.53833008 2.39892578 C209.66188095 -1.01945625 213.84624458 -0.63427696 218.9921875 -0.48828125 C220.41109787 -0.47766914 220.41109787 -0.47766914 221.8586731 -0.46684265 C224.86493712 -0.4389669 227.86930381 -0.37624116 230.875 -0.3125 C232.91924384 -0.28740832 234.96351702 -0.26459667 237.0078125 -0.24414062 C242.00593373 -0.18916248 247.00264575 -0.10293701 252 0 C250.75558691 3.73323926 249.27312032 4.59860164 246.1875 7 C241.97015436 10.36078255 237.94039745 13.82010874 234 17.5 C230.29204143 20.95229894 226.51489065 24.26526193 222.5625 27.4375 C218.37762693 30.80346265 214.41685602 34.33176017 210.5 38 C205.73908666 42.45872195 200.83532437 46.63797624 195.74609375 50.72265625 C192.73680948 53.21826469 189.86061346 55.83765143 187 58.5 C182.41242561 62.76920779 177.66556996 66.75758739 172.78125 70.6875 C169.22814914 73.64176364 165.8597632 76.76913424 162.47827148 79.91625977 C159.2670095 82.88715628 155.97372185 85.69961077 152.5625 88.4375 C148.37762693 91.80346265 144.41685602 95.33176017 140.5 99 C135.73908666 103.45872195 130.83532437 107.63797624 125.74609375 111.72265625 C122.73681042 114.2182639 119.86059714 116.83763481 117 119.5 C113.29138312 122.95161936 109.51494105 126.26522148 105.5625 129.4375 C101.37762693 132.80346265 97.41685602 136.33176017 93.5 140 C88.73908666 144.45872195 83.83532437 148.63797624 78.74609375 152.72265625 C75.73680664 155.21826704 72.86066245 157.83770131 70 160.5 C65.35870777 164.81779461 60.56440562 168.87419228 55.625 172.8515625 C51.64083135 176.11241482 47.81446578 179.54343471 44 183 C48.04519393 187.91983045 52.37480557 192.41547205 56.90844727 196.88891602 C59.46774299 199.4274852 61.92667821 201.9944323 64.25 204.75 C67.77631591 208.8925653 71.63761379 212.67491801 75.5 216.5 C79.86531992 220.82328 84.10613973 225.14676846 88.06640625 229.84765625 C90.9195023 233.0235268 93.96623062 235.99759552 97 239 C104.35716473 246.28110202 104.35716473 246.28110202 107.4375 249.9375 C110.89038596 254.02621151 114.70077198 257.73734698 118.5 261.5 C122.8653112 265.82328655 127.10613961 270.14676831 131.06640625 274.84765625 C133.9195023 278.0235268 136.96623062 280.99759552 140 284 C147.35716473 291.28110202 147.35716473 291.28110202 150.4375 294.9375 C153.89038596 299.02621151 157.70077198 302.73734698 161.5 306.5 C165.8653112 310.82328655 170.10613961 315.14676831 174.06640625 319.84765625 C176.9195023 323.0235268 179.96623062 325.99759552 183 329 C190.35716473 336.28110202 190.35716473 336.28110202 193.4375 339.9375 C196.89038596 344.02621151 200.70077198 347.73734698 204.5 351.5 C208.8653112 355.82328655 213.10613961 360.14676831 217.06640625 364.84765625 C219.9195023 368.0235268 222.96623062 370.99759552 226 374 C233.35716473 381.28110202 233.35716473 381.28110202 236.4375 384.9375 C239.89038615 389.02621173 243.70077418 392.73734476 247.5 396.5 C251.84364728 400.80187642 256.0604876 405.10307903 260 409.78125 C263.67200523 413.8548808 267.63333172 417.65129989 271.52905273 421.50952148 C275.20670915 425.16526807 278.71939527 428.86717892 282.0546875 432.83984375 C285.53105863 436.70015145 289.29219932 440.29407467 293.02758789 443.90258789 C293.61016357 444.47356201 294.19273926 445.04453613 294.79296875 445.6328125 C295.3139917 446.13699707 295.83501465 446.64118164 296.37182617 447.16064453 C298.53007356 449.59882654 300.23722102 452.26746539 302 455 C262.55617622 459.10653798 262.55617622 459.10653798 251.76376343 451.4119873 C244.72477024 445.59191381 239.3302341 438.35325201 234 431 C229.21394039 425.12464689 223.9015075 419.80487946 218.5 414.5 C213.72119198 409.8066805 209.12844906 405.06008022 204.75976562 399.98242188 C201.66605994 396.49728173 198.32563522 393.26192574 195 390 C191.04132627 386.11716293 187.14941662 382.23659338 183.53125 378.03125 C179.73857952 373.62796818 175.64426794 369.57013076 171.5 365.5 C166.72119198 360.8066805 162.12844906 356.06008022 157.75976562 350.98242188 C154.66605994 347.49728173 151.32563522 344.26192574 148 341 C144.04132627 337.11716293 140.14941662 333.23659338 136.53125 329.03125 C132.73857952 324.62796818 128.64426794 320.57013076 124.5 316.5 C119.72119198 311.8066805 115.12844906 307.06008022 110.75976562 301.98242188 C107.66605994 298.49728173 104.32563522 295.26192574 101 292 C97.04132627 288.11716293 93.14941662 284.23659338 89.53125 280.03125 C85.73857952 275.62796818 81.64426794 271.57013076 77.5 267.5 C72.72119198 262.8066805 68.12844906 258.06008022 63.75976562 252.98242188 C60.66605994 249.49728173 57.32563522 246.26192574 54 243 C49.41373929 238.50159869 44.98556826 233.96262641 40.8359375 229.0546875 C38.34011315 226.26148833 35.64868843 223.64868843 33 221 C32.67 298.22 32.34 375.44 32 455 C21.44 455 10.88 455 0 455 C0 304.85 0 154.7 0 0 Z " fill="#000000" transform="translate(234,510)"/>
<path d="M0 0 C6.53797366 5.65461577 12.45399473 11.34479368 18 18 C18.33 3.15 18.66 -11.7 19 -27 C29.56 -27 40.12 -27 51 -27 C51 65.07 51 157.14 51 252 C40.44 252 29.88 252 19 252 C18.67 236.49 18.34 220.98 18 205 C15.03 208.63 12.06 212.26 9 216 C-13.78383558 240.27175954 -49.71298756 256.76185934 -83.03979492 258.12426758 C-127.21508269 259.14367302 -163.49911044 247.61613129 -196.43359375 217.46484375 C-205.46327421 208.79250225 -213.09167042 199.42685768 -220 189 C-220.93972656 187.58847656 -220.93972656 187.58847656 -221.8984375 186.1484375 C-230.41325241 172.47079364 -235.88204244 156.75389081 -239 141 C-239.22429687 139.88625 -239.44859375 138.7725 -239.6796875 137.625 C-245.95217367 99.81823404 -237.72034752 61.39545346 -216 30 C-192.95720194 -1.81678655 -160.24646618 -24.13898405 -121.52734375 -31.45703125 C-78.19321912 -38.12751112 -34.09089349 -28.14480742 0 0 Z M-173 30 C-173.85078125 30.77730469 -174.7015625 31.55460938 -175.578125 32.35546875 C-196.58043112 52.06989761 -207.89592449 80.32443658 -209.28515625 108.80078125 C-210.18836182 140.30975266 -198.56182061 168.90949918 -177.09765625 191.80859375 C-156.76181862 212.99887834 -130.6964504 227.33197342 -100.859375 228.23828125 C-66.46907059 228.7760461 -39.44577654 219.72079362 -14.34765625 195.67993164 C6.02645986 175.74708661 19.44430095 149.18943111 20.43359375 120.38671875 C20.45691928 117.82041817 20.45782031 115.25382613 20.4375 112.6875 C20.43445862 112.01467987 20.43141724 111.34185974 20.42828369 110.64865112 C20.35509558 99.65433337 19.40632878 89.47217706 16 79 C15.68651611 77.98776367 15.68651611 77.98776367 15.36669922 76.95507812 C10.74170823 62.30754113 3.04528002 49.58620647 -7 38 C-7.67417969 37.19304687 -8.34835937 36.38609375 -9.04296875 35.5546875 C-26.90567422 14.79620646 -51.7236219 0.61333506 -79 -3 C-116.0582405 -5.50386097 -146.37012601 4.00954389 -173 30 Z " fill="#000000" transform="translate(1955,714)"/>
<path d="M0 0 C6.53797366 5.65461577 12.45399473 11.34479368 18 18 C18.33 3.15 18.66 -11.7 19 -27 C29.56 -27 40.12 -27 51 -27 C51 65.07 51 157.14 51 252 C40.44 252 29.88 252 19 252 C18.67 236.49 18.34 220.98 18 205 C15.03 208.63 12.06 212.26 9 216 C-13.78383558 240.27175954 -49.71298756 256.76185934 -83.03979492 258.12426758 C-127.21508269 259.14367302 -163.49911044 247.61613129 -196.43359375 217.46484375 C-205.46327421 208.79250225 -213.09167042 199.42685768 -220 189 C-220.93972656 187.58847656 -220.93972656 187.58847656 -221.8984375 186.1484375 C-230.41325241 172.47079364 -235.88204244 156.75389081 -239 141 C-239.22429688 139.88625 -239.44859375 138.7725 -239.6796875 137.625 C-245.95217367 99.81823404 -237.72034752 61.39545346 -216 30 C-192.95720194 -1.81678655 -160.24646618 -24.13898405 -121.52734375 -31.45703125 C-78.19321912 -38.12751112 -34.09089349 -28.14480742 0 0 Z M-173 30 C-173.85078125 30.77730469 -174.7015625 31.55460938 -175.578125 32.35546875 C-196.58043112 52.06989761 -207.89592449 80.32443658 -209.28515625 108.80078125 C-210.18836182 140.30975266 -198.56182061 168.90949918 -177.09765625 191.80859375 C-156.76181862 212.99887834 -130.6964504 227.33197342 -100.859375 228.23828125 C-66.46907059 228.7760461 -39.44577654 219.72079362 -14.34765625 195.67993164 C6.02645986 175.74708661 19.44430095 149.18943111 20.43359375 120.38671875 C20.45691928 117.82041817 20.45782031 115.25382613 20.4375 112.6875 C20.43445862 112.01467987 20.43141724 111.34185974 20.42828369 110.64865112 C20.35509558 99.65433337 19.40632878 89.47217706 16 79 C15.68651611 77.98776367 15.68651611 77.98776367 15.36669922 76.95507812 C10.74170823 62.30754113 3.04528002 49.58620647 -7 38 C-7.67417969 37.19304687 -8.34835937 36.38609375 -9.04296875 35.5546875 C-26.90567422 14.79620646 -51.7236219 0.61333506 -79 -3 C-116.0582405 -5.50386097 -146.37012601 4.00954389 -173 30 Z " fill="#000000" transform="translate(789,714)"/>
<path d="M0 0 C6.53797366 5.65461577 12.45399473 11.34479368 18 18 C18.33 3.15 18.66 -11.7 19 -27 C29.56 -27 40.12 -27 51 -27 C51 65.07 51 157.14 51 252 C40.44 252 29.88 252 19 252 C18.67 236.49 18.34 220.98 18 205 C15.03 208.63 12.06 212.26 9 216 C-13.78383558 240.27175954 -49.71298756 256.76185934 -83.03979492 258.12426758 C-127.21508269 259.14367302 -163.49911044 247.61613129 -196.43359375 217.46484375 C-205.46327421 208.79250225 -213.09167042 199.42685768 -220 189 C-220.93972656 187.58847656 -220.93972656 187.58847656 -221.8984375 186.1484375 C-230.41325241 172.47079364 -235.88204244 156.75389081 -239 141 C-239.22429687 139.88625 -239.44859375 138.7725 -239.6796875 137.625 C-245.95217367 99.81823404 -237.72034752 61.39545346 -216 30 C-192.95720194 -1.81678655 -160.24646618 -24.13898405 -121.52734375 -31.45703125 C-78.19321912 -38.12751112 -34.09089349 -28.14480742 0 0 Z M-173 30 C-173.85078125 30.77730469 -174.7015625 31.55460938 -175.578125 32.35546875 C-196.58043112 52.06989761 -207.89592449 80.32443658 -209.28515625 108.80078125 C-210.18836182 140.30975266 -198.56182061 168.90949918 -177.09765625 191.80859375 C-156.76181862 212.99887834 -130.6964504 227.33197342 -100.859375 228.23828125 C-66.46907059 228.7760461 -39.44577654 219.72079362 -14.34765625 195.67993164 C6.02645986 175.74708661 19.44430095 149.18943111 20.43359375 120.38671875 C20.45691928 117.82041817 20.45782031 115.25382613 20.4375 112.6875 C20.43445862 112.01467987 20.43141724 111.34185974 20.42828369 110.64865112 C20.35509558 99.65433337 19.40632878 89.47217706 16 79 C15.68651611 77.98776367 15.68651611 77.98776367 15.36669922 76.95507812 C10.74504525 62.31810961 3.05558541 49.56682946 -7 38 C-7.72058594 37.15824219 -8.44117188 36.31648437 -9.18359375 35.44921875 C-27.72866179 14.26862977 -53.74228081 -1.30028555 -82.29052734 -3.22143555 C-118.36387971 -4.41539477 -147.01002857 4.63408156 -173 30 Z " fill="#000000" transform="translate(1620,714)"/>
<path d="M0 0 C2.51725196 2.22724597 4.97469395 4.50452054 7.41796875 6.8125 C8.16820313 7.49828125 8.9184375 8.1840625 9.69140625 8.890625 C30.22457896 28.34310441 42.40614034 56.81910446 44.41796875 84.8125 C44.55956264 90.44691748 44.54459351 96.07923123 44.53149414 101.71508789 C44.53121172 103.42082721 44.53137108 105.12656666 44.53193665 106.83230591 C44.53222247 111.44114086 44.52636049 116.04994956 44.51936269 120.65877843 C44.51309336 125.48340931 44.51252252 130.30804085 44.51133728 135.13267517 C44.5082345 144.25907599 44.50003534 153.38546478 44.48998779 162.51186031 C44.47879391 172.90606551 44.47330796 183.30027129 44.46829236 193.69448102 C44.45785182 215.06716221 44.43951947 236.43982692 44.41796875 257.8125 C33.85796875 257.8125 23.29796875 257.8125 12.41796875 257.8125 C12.40338623 252.78725098 12.38880371 247.76200195 12.3737793 242.58447266 C12.32332578 225.93642985 12.25685935 209.28847897 12.18225384 192.64052773 C12.13743093 182.55202916 12.0979857 172.46356484 12.0715332 162.375 C12.04844313 153.57415521 12.01492391 144.77342001 11.96926719 135.97266233 C11.94548231 131.31967612 11.92665762 126.66679744 11.92035484 122.01375198 C11.91423649 117.61913638 11.89399866 113.22479542 11.86369324 108.83028221 C11.85501967 107.23175539 11.85116774 105.63319252 11.85296059 104.03464317 C11.87288228 78.0366628 5.80856454 54.8993122 -11.58203125 34.8125 C-12.1853125 34.06484375 -12.78859375 33.3171875 -13.41015625 32.546875 C-25.29391509 18.26639169 -42.3547079 8.41038927 -60.58203125 4.8125 C-61.42765625 4.63203125 -62.27328125 4.4515625 -63.14453125 4.265625 C-88.30743861 0.9486963 -113.0215388 5.65747851 -133.56396484 20.84277344 C-143.77557199 28.67802093 -152.32021471 37.07889866 -159.58203125 47.8125 C-160.14664063 48.64523437 -160.71125 49.47796875 -161.29296875 50.3359375 C-171.71199625 66.67847302 -174.03504974 84.42097534 -174.0144043 103.30444336 C-174.02344539 105.00122276 -174.03377826 106.69799568 -174.04528809 108.39476013 C-174.07260895 112.95159559 -174.0821083 117.5083063 -174.08814216 122.06521297 C-174.09759145 126.84581641 -174.12379957 131.62632902 -174.14814758 136.40687561 C-174.19163732 145.4374295 -174.22029151 154.46796558 -174.24347097 163.49859196 C-174.27061717 173.78900241 -174.31452246 184.07932068 -174.35975969 194.36966503 C-174.4523547 215.51723988 -174.52193843 236.66480608 -174.58203125 257.8125 C-185.14203125 257.8125 -195.70203125 257.8125 -206.58203125 257.8125 C-206.58203125 165.7425 -206.58203125 73.6725 -206.58203125 -21.1875 C-196.02203125 -21.1875 -185.46203125 -21.1875 -174.58203125 -21.1875 C-174.25203125 -9.6375 -173.92203125 1.9125 -173.58203125 13.8125 C-171.27203125 11.1725 -168.96203125 8.5325 -166.58203125 5.8125 C-125.77665061 -39.91210637 -44.73934832 -37.90323005 0 0 Z " fill="#000000" transform="translate(2579.58203125,708.1875)"/>
<path d="M0 0 C2.51725196 2.22724597 4.97469395 4.50452054 7.41796875 6.8125 C8.16820313 7.49828125 8.9184375 8.1840625 9.69140625 8.890625 C30.22457896 28.34310441 42.40614034 56.81910446 44.41796875 84.8125 C44.55956264 90.44691748 44.54459351 96.07923123 44.53149414 101.71508789 C44.53121172 103.42082721 44.53137108 105.12656666 44.53193665 106.83230591 C44.53222247 111.44114086 44.52636049 116.04994956 44.51936269 120.65877843 C44.51309336 125.48340931 44.51252252 130.30804085 44.51133728 135.13267517 C44.5082345 144.25907599 44.50003534 153.38546478 44.48998779 162.51186031 C44.47879391 172.90606551 44.47330796 183.30027129 44.46829236 193.69448102 C44.45785182 215.06716221 44.43951947 236.43982692 44.41796875 257.8125 C33.85796875 257.8125 23.29796875 257.8125 12.41796875 257.8125 C12.40338623 252.78725098 12.38880371 247.76200195 12.3737793 242.58447266 C12.32332578 225.93642985 12.25685935 209.28847897 12.18225384 192.64052773 C12.13743093 182.55202916 12.0979857 172.46356484 12.0715332 162.375 C12.04844313 153.57415521 12.01492391 144.77342001 11.96926719 135.97266233 C11.94548231 131.31967612 11.92665762 126.66679744 11.92035484 122.01375198 C11.91423649 117.61913638 11.89399866 113.22479542 11.86369324 108.83028221 C11.85501967 107.23175539 11.85116774 105.63319252 11.85296059 104.03464317 C11.87288228 78.0366628 5.80856454 54.8993122 -11.58203125 34.8125 C-12.1853125 34.06484375 -12.78859375 33.3171875 -13.41015625 32.546875 C-25.29391509 18.26639169 -42.3547079 8.41038927 -60.58203125 4.8125 C-61.42765625 4.63203125 -62.27328125 4.4515625 -63.14453125 4.265625 C-88.30743861 0.9486963 -113.0215388 5.65747851 -133.56396484 20.84277344 C-143.77557199 28.67802093 -152.32021471 37.07889866 -159.58203125 47.8125 C-160.14664063 48.64523437 -160.71125 49.47796875 -161.29296875 50.3359375 C-171.71199625 66.67847302 -174.03504974 84.42097534 -174.0144043 103.30444336 C-174.02344539 105.00122276 -174.03377826 106.69799568 -174.04528809 108.39476013 C-174.07260895 112.95159559 -174.0821083 117.5083063 -174.08814216 122.06521297 C-174.09759145 126.84581641 -174.12379957 131.62632902 -174.14814758 136.40687561 C-174.19163732 145.4374295 -174.22029151 154.46796558 -174.24347097 163.49859196 C-174.27061717 173.78900241 -174.31452246 184.07932068 -174.35975969 194.36966503 C-174.4523547 215.51723988 -174.52193843 236.66480608 -174.58203125 257.8125 C-185.14203125 257.8125 -195.70203125 257.8125 -206.58203125 257.8125 C-206.58203125 165.7425 -206.58203125 73.6725 -206.58203125 -21.1875 C-196.02203125 -21.1875 -185.46203125 -21.1875 -174.58203125 -21.1875 C-174.25203125 -9.6375 -173.92203125 1.9125 -173.58203125 13.8125 C-171.27203125 11.1725 -168.96203125 8.5325 -166.58203125 5.8125 C-125.77665061 -39.91210637 -44.73934832 -37.90323005 0 0 Z " fill="#000000" transform="translate(2271.58203125,708.1875)"/>
<path d="M0 0 C11.88 0 23.76 0 36 0 C55.04204464 39.01152565 55.04204464 39.01152565 62.06982422 53.7644043 C65.66660341 61.31375668 69.2986108 68.84588285 72.9375 76.375 C79.80419335 90.58511432 86.63576076 104.81193476 93.45898438 119.04296875 C99.28992876 131.20309575 105.13373681 143.3568753 111 155.5 C116.84716871 167.60359926 122.67200605 179.71779237 128.48388672 191.83837891 C131.21735208 197.53860056 133.95239366 203.2380656 136.6875 208.9375 C137.20521973 210.01676758 137.72293945 211.09603516 138.25634766 212.20800781 C138.73249512 213.20026367 139.20864258 214.19251953 139.69921875 215.21484375 C140.12033936 216.09261475 140.54145996 216.97038574 140.9753418 217.87475586 C141.64058147 219.25452982 142.31497153 220.62994306 143 222 C148.33868122 212.34347066 153.21479333 202.53056776 157.8125 192.5 C163.35659378 180.40714986 169.14071019 168.44308708 175 156.5 C180.59444792 145.09196262 186.14467586 133.67679872 191.4375 122.125 C196.92529755 110.15030719 202.69675286 98.3241987 208.5 86.5 C214.86089949 73.53932543 221.13387758 60.55713791 227.15112305 47.43261719 C234.48939342 31.49015599 242.28364689 15.76179873 250 0 C260.56 0 271.12 0 282 0 C279.74988982 6.75033053 279.74988982 6.75033053 278.25097656 9.89282227 C277.91538727 10.60070389 277.57979797 11.30858551 277.23403931 12.03791809 C276.87321259 12.78981918 276.51238586 13.54172028 276.140625 14.31640625 C275.75973724 15.11700974 275.37884949 15.91761322 274.98641968 16.74247742 C273.74434613 19.35078789 272.49723815 21.95665572 271.25 24.5625 C270.38435695 26.37781244 269.51896194 28.19324318 268.65380859 30.00878906 C263.11764171 41.61663074 257.52965995 53.19890722 251.91772461 64.77026367 C248.13022243 72.60019076 244.44890489 80.47392872 240.8125 88.375 C235.14224568 100.69027675 229.21533627 112.87186995 223.25234985 125.04754639 C218.22508116 135.31728606 213.26986399 145.60762793 208.5 156 C203.33567027 167.25181685 197.94507868 178.38202733 192.5 189.5 C186.50435802 201.74228136 180.62008051 214.0177901 174.93066406 226.40600586 C169.59661323 237.97239406 164.00030749 249.40848923 158.41040039 260.8527832 C157.65636892 262.39662573 156.90238045 263.94048925 156.1484375 265.484375 C155.78546066 266.2276152 155.42248383 266.97085541 155.04850769 267.73661804 C150.95755825 276.12241092 146.95391334 284.54879925 143 293 C142.01 293 141.02 293 140 293 C119.48581529 251.25591799 119.48581529 251.25591799 112.5625 236.125 C106.87644006 223.70889162 100.88734561 211.44810848 94.875 199.1875 C94.3896579 198.19763092 93.9043158 197.20776184 93.40426636 196.18789673 C91.51220257 192.32931652 89.62001869 188.47079525 87.72755432 184.6124115 C81.53019991 171.97109674 75.46464068 159.27048676 69.49609375 146.51953125 C68.18544595 143.72109614 66.87415147 140.92296481 65.5625 138.125 C65.23053619 137.41652924 64.89857239 136.70805847 64.55654907 135.9781189 C58.34645214 122.73720984 51.94434145 109.59410535 45.5072937 96.46234131 C39.92192941 85.06269037 34.45686204 73.62638844 29.17578125 62.08203125 C22.82569662 48.29651589 16.06113788 34.7081379 9.33642578 21.10253906 C8.40786642 19.21680238 7.47931777 17.33106043 6.55078125 15.4453125 C5.90637337 14.14870193 5.90637337 14.14870193 5.24894714 12.82589722 C4.85008804 12.01468414 4.45122894 11.20347107 4.0402832 10.36767578 C3.69310745 9.66603302 3.3459317 8.96439026 2.98823547 8.2414856 C1.80938495 5.56765275 0.92407092 2.77221276 0 0 Z " fill="#000000" transform="translate(1078,687)"/>
<path d="M0 0 C1.02730225 0.49250244 2.05460449 0.98500488 3.11303711 1.49243164 C6 4 6 4 6.52696228 6.02018738 C6.69607616 8.63183785 6.67399146 11.18114264 6.5859375 13.796875 C6.57744781 14.74564514 6.56895813 15.69441528 6.56021118 16.67193604 C6.526652 19.69911779 6.45136782 22.72362504 6.375 25.75 C6.34490366 27.80334692 6.31752728 29.85673563 6.29296875 31.91015625 C6.2268522 36.94113298 6.12331254 41.97011326 6 47 C3.14507581 45.62903334 1.16714406 44.38282006 -0.99609375 42.05859375 C-1.5480542 41.47907959 -2.10001465 40.89956543 -2.66870117 40.30249023 C-3.54425659 39.37932007 -3.54425659 39.37932007 -4.4375 38.4375 C-13.64458649 29.00570309 -23.55221689 21.70249584 -36 17 C-36.77730469 16.68160156 -37.55460938 16.36320313 -38.35546875 16.03515625 C-54.15593641 10.58412051 -73.38759937 13.09914671 -88.125 20.1875 C-94.3991643 23.39069333 -99.78387727 27.28065087 -105 32 C-105.75796875 32.66515625 -106.5159375 33.3303125 -107.296875 34.015625 C-119.65885393 45.52505366 -128.50729111 61.66673178 -129.1386652 78.7524395 C-129.15012232 80.18444649 -129.15630871 81.61650192 -129.15821838 83.04855347 C-129.16315636 83.84180562 -129.16809434 84.63505778 -129.17318195 85.45234787 C-129.18849627 88.10087963 -129.19690107 90.74938726 -129.20532227 93.39794922 C-129.21490556 95.30029003 -129.22491591 97.20262872 -129.23532104 99.10496521 C-129.26232724 104.26352279 -129.28335999 109.42208947 -129.30332303 114.58067846 C-129.32520903 119.97389728 -129.35258493 125.36708816 -129.37937927 130.76028442 C-129.42927081 140.97049268 -129.47422277 151.18071648 -129.51740164 161.39095509 C-129.56680426 173.01604266 -129.62171117 184.64110219 -129.67708123 196.26616263 C-129.79084695 220.17741578 -129.89750253 244.08869613 -130 268 C-140.56 268 -151.12 268 -162 268 C-162 175.93 -162 83.86 -162 -11 C-151.44 -11 -140.88 -11 -130 -11 C-129.505 0.88 -129.505 0.88 -129 13 C-126.69 10.69 -124.38 8.38 -122 6 C-86.88718098 -21.83718985 -37.20062757 -26.03437068 0 0 Z " fill="#000000" transform="translate(1060,698)"/>
</svg>
