<svg width="20" height="20" viewBox="0 0 20 20" fill="none" xmlns="http://www.w3.org/2000/svg">
<path d="M9.76869 9.75006C8.92624 9.75006 8.11829 10.0847 7.52259 10.6804C6.92689 11.2761 6.59222 12.0841 6.59222 12.9265V13.9854C6.59222 14.1258 6.648 14.2604 6.74729 14.3597C6.84657 14.459 6.98123 14.5148 7.12164 14.5148H12.4158C12.5562 14.5148 12.6908 14.459 12.7901 14.3597C12.8894 14.2604 12.9452 14.1258 12.9452 13.9854V12.9265C12.9452 12.0841 12.6105 11.2761 12.0148 10.6804C11.4191 10.0847 10.6111 9.75006 9.76869 9.75006ZM9.76869 9.75006C8.92624 9.75006 8.11829 9.41539 7.52259 8.81969C6.92689 8.22399 6.59222 7.41604 6.59222 6.57359V5.51476C6.59222 5.37435 6.648 5.2397 6.74729 5.14041C6.84657 5.04113 6.98123 4.98535 7.12164 4.98535H12.4158C12.5562 4.98535 12.6908 5.04113 12.7901 5.14041C12.8894 5.2397 12.9452 5.37435 12.9452 5.51476V6.57359C12.9452 7.41604 12.6105 8.22399 12.0148 8.81969C11.4191 9.41539 10.6111 9.75006 9.76869 9.75006Z" stroke="#F2C40E" stroke-width="1.5" stroke-linecap="round" stroke-linejoin="round"/>
<path d="M0.750092 8.5803C1.0358 6.40988 2.10609 4.41755 3.76062 2.97625C5.41515 1.53495 7.54048 0.743495 9.73878 0.75004C11.9371 0.756585 14.0576 1.56068 15.7035 3.01181C17.3493 4.46293 18.4076 6.4616 18.6803 8.63368C18.9529 10.8058 18.4213 13.0023 17.1848 14.8122C15.9483 16.6221 14.0918 17.9212 11.9628 18.4664C9.83372 19.0116 7.57813 18.7654 5.61821 17.774C3.6583 16.7826 2.12843 15.1139 1.31499 13.0803M0.750092 16.3676V13.0803H4.20988" stroke="#F2C40E" stroke-width="1.5" stroke-linecap="round" stroke-linejoin="round"/>
</svg>
