<svg width="20" height="19" viewBox="0 0 20 19" fill="none" xmlns="http://www.w3.org/2000/svg">
<path d="M10.4875 9.32812H12.8181L9.71063 12.4375L6.60313 9.32812H8.93375V6.21875H10.4875V9.32812ZM12.0413 3.10938H4.2725V15.5469H15.1488V6.21875H12.0413V3.10938ZM2.71875 2.33203C2.71875 2.11438 2.79385 1.9304 2.94404 1.78012C3.09424 1.62983 3.2781 1.55469 3.49563 1.55469H12.8181L16.7025 5.44141V16.3242C16.7025 16.5315 16.6274 16.7129 16.4772 16.8684C16.327 17.0238 16.1432 17.1016 15.9256 17.1016H3.49563C3.2781 17.1016 3.09424 17.0264 2.94404 16.8761C2.79385 16.7258 2.71875 16.5419 2.71875 16.3242V2.33203Z" fill="#007AFF"/>
</svg>
