<svg width="15" height="14" viewBox="0 0 15 14" fill="none" xmlns="http://www.w3.org/2000/svg">
<path d="M13.1234 12.25H1.46094V11.0833H2.04406V2.33333C2.04406 2.17 2.10043 2.03194 2.21317 1.91917C2.32591 1.80639 2.46391 1.75 2.62719 1.75H10.7909C10.9542 1.75 11.0922 1.80639 11.205 1.91917C11.3177 2.03194 11.3741 2.17 11.3741 2.33333V5.25H12.5403V11.0833H13.1234V12.25ZM10.2078 11.0833H11.3741V6.41667H7.87531V11.0833H9.04156V7.58333H10.2078V11.0833ZM10.2078 5.25V2.91667H3.21031V11.0833H6.70906V5.25H10.2078ZM4.37656 6.41667H5.54281V7.58333H4.37656V6.41667ZM4.37656 8.75H5.54281V9.91667H4.37656V8.75ZM4.37656 4.08333H5.54281V5.25H4.37656V4.08333Z" fill="#6366F1"/>
</svg>
