<svg xmlns="http://www.w3.org/2000/svg" width="18" height="18" viewBox="0 0 18 18" fill="none">
  <path d="M16.1969 15.75H1.79688V14.25H2.51688V3C2.51688 2.79 2.58648 2.6125 2.72568 2.4675C2.86488 2.3225 3.03528 2.25 3.23688 2.25H13.3169C13.5185 2.25 13.6889 2.3225 13.8281 2.4675C13.9673 2.6125 14.0369 2.79 14.0369 3V6.75H15.4769V14.25H16.1969V15.75ZM12.5969 14.25H14.0369V8.25H9.71688V14.25H11.1569V9.75H12.5969V14.25ZM12.5969 6.75V3.75H3.95688V14.25H8.27688V6.75H12.5969ZM5.39688 8.25H6.83688V9.75H5.39688V8.25ZM5.39688 11.25H6.83688V12.75H5.39688V11.25ZM5.39688 5.25H6.83688V6.75H5.39688V5.25Z" fill="#7135AD"/>
</svg>