<svg
    xmlns="http://www.w3.org/2000/svg"
    width="17"
    height="17"
    viewBox="0 0 18 17"
    fill="none"
>
    <path
    d="M8.1216 6.04915L6.7968 6.51665V9.02415H5.3568V5.52498L9.1584 4.16498C9.3408 4.09887 9.5328 4.07054 9.7344 4.07998C10.128 4.08943 10.4856 4.2122 10.8072 4.44832C11.1288 4.68443 11.352 4.99137 11.4768 5.36915C11.6112 5.77526 11.7312 6.05387 11.8368 6.20498C12.1728 6.63943 12.5928 6.98179 13.0968 7.23207C13.6008 7.48234 14.1408 7.60748 14.7168 7.60748V9.02415C13.9488 9.02415 13.224 8.86359 12.5424 8.54248C11.8704 8.23082 11.2992 7.79165 10.8288 7.22498L10.3248 10.03L11.8368 11.2766V16.1075H10.3968V11.9425L8.7696 10.5825L8.2368 13.515L3.2832 12.6508L3.528 11.2625L7.0704 11.8716L8.1216 6.04915ZM10.7568 3.71165C10.4976 3.71165 10.2576 3.65026 10.0368 3.52748C9.816 3.40471 9.6408 3.2347 9.5112 3.01748C9.3816 2.80026 9.3168 2.56179 9.3168 2.30207C9.3168 2.04234 9.3816 1.80387 9.5112 1.58665C9.6408 1.36943 9.816 1.19707 10.0368 1.06957C10.2576 0.942066 10.4976 0.880677 10.7568 0.885399C11.016 0.890121 11.256 0.953872 11.4768 1.07665C11.6976 1.19943 11.8728 1.36943 12.0024 1.58665C12.132 1.80387 12.1968 2.04234 12.1968 2.30207C12.1968 2.56179 12.132 2.80026 12.0024 3.01748C11.8728 3.2347 11.6976 3.40707 11.4768 3.53457C11.256 3.66207 11.016 3.72582 10.7568 3.72582V3.71165Z"
    fill="#7135AD"
    fill-opacity="0.7"
    />
</svg>