<svg width="10" height="13" viewBox="0 0 10 13" fill="none" xmlns="http://www.w3.org/2000/svg">
<path d="M4.032 4.2528L2.928 4.6378V6.7028H1.728V3.82113L4.896 2.70113C5.048 2.64669 5.208 2.62335 5.376 2.63113C5.704 2.63891 6.002 2.74002 6.27 2.93447C6.538 3.12891 6.724 3.38169 6.828 3.6928C6.94 4.02724 7.04 4.25669 7.128 4.38113C7.408 4.73891 7.758 5.02085 8.178 5.22697C8.598 5.43308 9.048 5.53613 9.528 5.53613V6.7028C8.888 6.7028 8.284 6.57058 7.716 6.30613C7.156 6.04947 6.68 5.6878 6.288 5.22113L5.868 7.53113L7.128 8.5578V12.5361H5.928V9.10613L4.572 7.98613L4.128 10.4011L0 9.68947L0.204 8.54613L3.156 9.0478L4.032 4.2528ZM6.228 2.3278C6.012 2.3278 5.812 2.27724 5.628 2.17613C5.444 2.07502 5.298 1.93502 5.19 1.75613C5.082 1.57724 5.028 1.38085 5.028 1.16697C5.028 0.953077 5.082 0.756688 5.19 0.5778C5.298 0.398911 5.444 0.256966 5.628 0.151966C5.812 0.0469666 6.012 -0.00358963 6.228 0.000299454C6.444 0.00418854 6.644 0.0566883 6.828 0.1578C7.012 0.25891 7.158 0.398911 7.266 0.5778C7.374 0.756688 7.428 0.953077 7.428 1.16697C7.428 1.38085 7.374 1.57724 7.266 1.75613C7.158 1.93502 7.012 2.07697 6.828 2.18197C6.644 2.28697 6.444 2.33947 6.228 2.33947V2.3278Z" fill="#FF2D55"/>
</svg>
