<svg width="18" height="18" viewBox="0 0 18 18" fill="none" xmlns="http://www.w3.org/2000/svg">
<path d="M2.25 2.25L15.75 15.75M7.938 7.94023C7.65653 8.22149 7.49833 8.60305 7.49819 9.00095C7.49805 9.39886 7.65598 9.78052 7.93725 10.062C8.21851 10.3434 8.60006 10.5016 8.99797 10.5018C9.39587 10.5019 9.77753 10.344 10.059 10.0627M7.02225 4.02375C7.66531 3.83979 8.33115 3.74763 9 3.75C12 3.75 14.4997 5.49975 16.5 9C15.9165 10.0207 15.291 10.893 14.6227 11.616M13.0178 13.0117C11.7945 13.8367 10.4565 14.25 9 14.25C6 14.25 3.50025 12.5002 1.5 9C2.52675 7.20375 3.68475 5.86875 4.974 4.99425" stroke="#818181" stroke-width="1.5" stroke-linecap="round" stroke-linejoin="round"/>
</svg>
