<svg width="15" height="14" viewBox="0 0 15 14" fill="none" xmlns="http://www.w3.org/2000/svg">
<path d="M13.2471 5.60011C13.3093 5.83344 13.2801 6.05317 13.1596 6.25928C13.0391 6.46539 12.8622 6.59956 12.629 6.66178L3.48557 9.11178C3.36118 9.15067 3.23678 9.14289 3.11238 9.08844C2.98798 9.034 2.89468 8.94844 2.83247 8.83178L1.30469 6.07844L2.14439 5.85678L3.57888 7.28011L6.55281 6.48678L3.92875 2.35678L5.04835 2.05344L9.1069 5.79844L12.1741 4.98178C12.4074 4.91178 12.629 4.939 12.8389 5.06344C13.0488 5.18789 13.1849 5.36678 13.2471 5.60011ZM2.77416 10.7801H12.1042V11.9468H2.77416V10.7801Z" fill="#EAB308"/>
</svg>
