<svg xmlns="http://www.w3.org/2000/svg" width="15" height="13" viewBox="0 0 15 13" fill="none">
  <path d="M14.7456 4.30664C14.8224 4.58997 14.7864 4.85678 14.6376 5.10706C14.4888 5.35733 14.2704 5.52025 13.9824 5.59581L2.6928 8.57081C2.5392 8.61803 2.3856 8.60858 2.232 8.54247C2.0784 8.47636 1.9632 8.37247 1.8864 8.23081L0 4.88747L1.0368 4.6183L2.808 6.34664L6.48 5.38331L3.24 0.368304L4.6224 -2.86102e-05L9.6336 4.54747L13.4208 3.55581C13.7088 3.47081 13.9824 3.50386 14.2416 3.65497C14.5008 3.80608 14.6688 4.0233 14.7456 4.30664ZM1.8144 10.5966H13.3344V12.0133H1.8144V10.5966Z" fill="#7135AD"/>
</svg>