<svg
    xmlns="http://www.w3.org/2000/svg"
    width="17"
    height="17"
    viewBox="0 0 18 17"
    fill="none"
>
    <path
    d="M8.99953 0.708353L14.9179 1.99752C15.0811 2.0353 15.2155 2.1203 15.3211 2.25252C15.4267 2.38474 15.4795 2.53113 15.4795 2.69169V9.76085C15.4795 10.4786 15.3091 11.1492 14.9683 11.7725C14.6275 12.3959 14.1547 12.9059 13.5499 13.3025L8.99953 16.2917L4.44913 13.3025C3.84433 12.9059 3.37153 12.3959 3.03073 11.7725C2.68993 11.1492 2.51953 10.4786 2.51953 9.76085V2.69169C2.51953 2.53113 2.57233 2.38474 2.67793 2.25252C2.78353 2.1203 2.91793 2.0353 3.08113 1.99752L8.99953 0.708353ZM8.99953 2.15335L3.95953 3.25835V9.76085C3.95953 10.2425 4.07233 10.6911 4.29793 11.1067C4.52353 11.5222 4.83793 11.8622 5.24113 12.1267L8.99953 14.5917L12.7579 12.1267C13.1611 11.8622 13.4755 11.5222 13.7011 11.1067C13.9267 10.6911 14.0395 10.2425 14.0395 9.76085V3.25835L8.99953 2.15335ZM12.2107 5.82252L13.2187 6.82835L8.63953 11.3334L5.58673 8.33002L6.60913 7.32419L8.63953 9.33585L12.2107 5.82252Z"
    fill="#7135AD"
    fill-opacity="0.7"
    />
</svg>