<svg width="11" height="13" viewBox="0 0 11 13" fill="none" xmlns="http://www.w3.org/2000/svg">
<path d="M5.4 -0.000326157L10.332 1.06134C10.468 1.09245 10.58 1.16245 10.668 1.27134C10.756 1.38023 10.8 1.50078 10.8 1.63301V7.45467C10.8 8.04579 10.658 8.59801 10.374 9.11134C10.09 9.62467 9.696 10.0447 9.192 10.3713L5.4 12.833L1.608 10.3713C1.104 10.0447 0.71 9.62467 0.426 9.11134C0.142 8.59801 0 8.04579 0 7.45467V1.63301C0 1.50078 0.044 1.38023 0.132 1.27134C0.22 1.16245 0.332 1.09245 0.468 1.06134L5.4 -0.000326157ZM5.4 1.18967L1.2 2.09967V7.45467C1.2 7.85134 1.294 8.22079 1.482 8.56301C1.67 8.90523 1.932 9.18523 2.268 9.40301L5.4 11.433L8.532 9.40301C8.868 9.18523 9.13 8.90523 9.318 8.56301C9.506 8.22079 9.6 7.85134 9.6 7.45467V2.09967L5.4 1.18967ZM8.076 4.21134L8.916 5.03967L5.1 8.74967L2.556 6.27634L3.408 5.44801L5.1 7.10467L8.076 4.21134Z" fill="#A2845E"/>
</svg>
