<svg width="12" height="12" viewBox="0 0 12 12" fill="none" xmlns="http://www.w3.org/2000/svg">
<path d="M9 9.91634H3V10.4997C3 10.663 2.942 10.8011 2.826 10.9138C2.71 11.0266 2.568 11.083 2.4 11.083H1.8C1.632 11.083 1.49 11.0266 1.374 10.9138C1.258 10.8011 1.2 10.663 1.2 10.4997V9.91634H0.6V5.24967H0V2.91634H0.6V1.16634C0.6 0.95634 0.654 0.761896 0.762 0.583007C0.87 0.404118 1.016 0.262174 1.2 0.157173C1.384 0.0521736 1.584 -0.000326157 1.8 -0.000326157H10.2C10.416 -0.000326157 10.616 0.0521736 10.8 0.157173C10.984 0.262174 11.13 0.404118 11.238 0.583007C11.346 0.761896 11.4 0.95634 11.4 1.16634V2.91634H12V5.24967H11.4V9.91634H10.8V10.4997C10.8 10.663 10.742 10.8011 10.626 10.9138C10.51 11.0266 10.368 11.083 10.2 11.083H9.6C9.432 11.083 9.29 11.0266 9.174 10.9138C9.058 10.8011 9 10.663 9 10.4997V9.91634ZM10.2 5.24967V1.16634H1.8V5.24967H10.2ZM10.2 6.41634H1.8V8.74967H10.2V6.41634ZM2.4 6.99967H4.8V8.16634H2.4V6.99967ZM7.2 6.99967H9.6V8.16634H7.2V6.99967Z" fill="#22C55E"/>
</svg>
