<svg
    xmlns="http://www.w3.org/2000/svg"
    width="13"
    height="13"
    viewBox="0 0 14 14"
    fill="none"
>
    <path
    d="M8.25 0.75H12.75V5.25H8.25V0.75Z"
    stroke="#7135AD"
    stroke-opacity="0.7"
    stroke-width="1.5"
    stroke-linecap="round"
    stroke-linejoin="round"
    />
    <path
    d="M0.75 8.25H5.25V12.75H0.75V8.25Z"
    stroke="#7135AD"
    stroke-opacity="0.7"
    stroke-width="1.5"
    stroke-linecap="round"
    stroke-linejoin="round"
    />
    <path
    d="M10.5 12.75C11.7426 12.75 12.75 11.7426 12.75 10.5C12.75 9.25736 11.7426 8.25 10.5 8.25C9.25736 8.25 8.25 9.25736 8.25 10.5C8.25 11.7426 9.25736 12.75 10.5 12.75Z"
    stroke="#7135AD"
    stroke-opacity="0.7"
    stroke-width="1.5"
    stroke-linecap="round"
    stroke-linejoin="round"
    />
    <path
    d="M3 5.25C4.24264 5.25 5.25 4.24264 5.25 3C5.25 1.75736 4.24264 0.75 3 0.75C1.75736 0.75 0.75 1.75736 0.75 3C0.75 4.24264 1.75736 5.25 3 5.25Z"
    stroke="#7135AD"
    stroke-opacity="0.7"
    stroke-width="1.5"
    stroke-linecap="round"
    stroke-linejoin="round"
    />
</svg>