<svg
    xmlns="http://www.w3.org/2000/svg"
    width="17"
    height="17"
    viewBox="0 0 18 17"
    fill="none"
>
    <path
    d="M15.4798 2.125C15.6814 2.125 15.8518 2.19347 15.991 2.33042C16.1302 2.46736 16.1998 2.635 16.1998 2.83333V6.72917C15.8734 6.72917 15.5734 6.80944 15.2998 6.97C15.0262 7.13056 14.8078 7.34542 14.6446 7.61458C14.4814 7.88375 14.3998 8.17889 14.3998 8.5C14.3998 8.82111 14.4814 9.11625 14.6446 9.38542C14.8078 9.65458 15.0262 9.86944 15.2998 10.03C15.5734 10.1906 15.8734 10.2708 16.1998 10.2708V14.1667C16.1998 14.365 16.1302 14.5326 15.991 14.6696C15.8518 14.8065 15.6814 14.875 15.4798 14.875H2.5198C2.3182 14.875 2.1478 14.8065 2.0086 14.6696C1.8694 14.5326 1.7998 14.365 1.7998 14.1667V10.2708C2.1262 10.2708 2.4262 10.1906 2.6998 10.03C2.9734 9.86944 3.1918 9.65458 3.355 9.38542C3.5182 9.11625 3.5998 8.82111 3.5998 8.5C3.5998 8.17889 3.5182 7.88375 3.355 7.61458C3.1918 7.34542 2.9734 7.13056 2.6998 6.97C2.4262 6.80944 2.1262 6.72917 1.7998 6.72917V2.83333C1.7998 2.635 1.8694 2.46736 2.0086 2.33042C2.1478 2.19347 2.3182 2.125 2.5198 2.125H15.4798ZM14.7598 3.54167H3.2398V5.63833L3.355 5.695C3.8446 5.95944 4.2406 6.32778 4.543 6.8C4.8454 7.27222 5.011 7.78694 5.0398 8.34417V8.5C5.0398 9.095 4.8862 9.64042 4.579 10.1363C4.2718 10.6321 3.8638 11.0217 3.355 11.305L3.2398 11.3617V13.4583H14.7598V11.3617L14.6446 11.305C14.155 11.0406 13.759 10.6722 13.4566 10.2C13.1542 9.72778 12.9886 9.21306 12.9598 8.65583V8.5C12.9598 7.905 13.1134 7.35958 13.4206 6.86375C13.7278 6.36792 14.1358 5.97833 14.6446 5.695L14.7598 5.63833V3.54167Z"
    fill="#7135AD"
    fill-opacity="0.7"
    />
</svg>