<svg width="12" height="11" viewBox="0 0 12 11" fill="none" xmlns="http://www.w3.org/2000/svg">
<path d="M11.4 0C11.568 0 11.71 0.0563889 11.826 0.169167C11.942 0.281944 12 0.42 12 0.583333V3.79167C11.728 3.79167 11.478 3.85778 11.25 3.99C11.022 4.12222 10.84 4.29917 10.704 4.52083C10.568 4.7425 10.5 4.98556 10.5 5.25C10.5 5.51444 10.568 5.7575 10.704 5.97917C10.84 6.20083 11.022 6.37778 11.25 6.51C11.478 6.64222 11.728 6.70833 12 6.70833V9.91667C12 10.08 11.942 10.2181 11.826 10.3308C11.71 10.4436 11.568 10.5 11.4 10.5H0.6C0.432 10.5 0.29 10.4436 0.174 10.3308C0.058 10.2181 0 10.08 0 9.91667V6.70833C0.272 6.70833 0.522 6.64222 0.75 6.51C0.978 6.37778 1.16 6.20083 1.296 5.97917C1.432 5.7575 1.5 5.51444 1.5 5.25C1.5 4.98556 1.432 4.7425 1.296 4.52083C1.16 4.29917 0.978 4.12222 0.75 3.99C0.522 3.85778 0.272 3.79167 0 3.79167V0.583333C0 0.42 0.058 0.281944 0.174 0.169167C0.29 0.0563889 0.432 0 0.6 0H11.4ZM10.8 1.16667H1.2V2.89333L1.296 2.94C1.704 3.15778 2.034 3.46111 2.286 3.85C2.538 4.23889 2.676 4.66278 2.7 5.12167V5.25C2.7 5.74 2.572 6.18917 2.316 6.5975C2.06 7.00583 1.72 7.32667 1.296 7.56L1.2 7.60667V9.33333H10.8V7.60667L10.704 7.56C10.296 7.34222 9.966 7.03889 9.714 6.65C9.462 6.26111 9.324 5.83722 9.3 5.37833V5.25C9.3 4.76 9.428 4.31083 9.684 3.9025C9.94 3.49417 10.28 3.17333 10.704 2.94L10.8 2.89333V1.16667Z" fill="#FF9500"/>
</svg>
