<svg width="18" height="17" viewBox="0 0 18 17" fill="none" xmlns="http://www.w3.org/2000/svg">
<path d="M12.6008 13.8128H5.40078V14.5212C5.40078 14.7195 5.33118 14.8871 5.19198 15.0241C5.05278 15.161 4.88238 15.2295 4.68078 15.2295H3.96078C3.75918 15.2295 3.58878 15.161 3.44958 15.0241C3.31038 14.8871 3.24078 14.7195 3.24078 14.5212V13.8128H2.52078V8.14616H1.80078V5.31283H2.52078V3.18783C2.52078 2.93283 2.58558 2.69671 2.71518 2.47949C2.84478 2.26227 3.01998 2.08991 3.24078 1.96241C3.46158 1.83491 3.70158 1.77116 3.96078 1.77116H14.0408C14.3 1.77116 14.54 1.83491 14.7608 1.96241C14.9816 2.08991 15.1568 2.26227 15.2864 2.47949C15.416 2.69671 15.4808 2.93283 15.4808 3.18783V5.31283H16.2008V8.14616H15.4808V13.8128H14.7608V14.5212C14.7608 14.7195 14.6912 14.8871 14.552 15.0241C14.4128 15.161 14.2424 15.2295 14.0408 15.2295H13.3208C13.1192 15.2295 12.9488 15.161 12.8096 15.0241C12.6704 14.8871 12.6008 14.7195 12.6008 14.5212V13.8128ZM14.0408 8.14616V3.18783H3.96078V8.14616H14.0408ZM14.0408 9.56283H3.96078V12.3962H14.0408V9.56283ZM4.68078 10.2712H7.56078V11.6878H4.68078V10.2712ZM10.4408 10.2712H13.3208V11.6878H10.4408V10.2712Z" fill="#7135AD"/>
</svg>
