<svg xmlns="http://www.w3.org/2000/svg" width="15" height="14" viewBox="0 0 15 14" fill="none">
  <path d="M10.8 12.0416H3.6V12.75C3.6 12.9483 3.5304 13.116 3.3912 13.2529C3.252 13.3898 3.0816 13.4583 2.88 13.4583H2.16C1.9584 13.4583 1.788 13.3898 1.6488 13.2529C1.5096 13.116 1.44 12.9483 1.44 12.75V12.0416H0.72V6.37498H0V3.54165H0.72V1.41665C0.72 1.16165 0.7848 0.925535 0.9144 0.708313C1.044 0.491091 1.2192 0.318729 1.44 0.191229C1.6608 0.0637293 1.9008 -2.09808e-05 2.16 -2.09808e-05H12.24C12.4992 -2.09808e-05 12.7392 0.0637293 12.96 0.191229C13.1808 0.318729 13.356 0.491091 13.4856 0.708313C13.6152 0.925535 13.68 1.16165 13.68 1.41665V3.54165H14.4V6.37498H13.68V12.0416H12.96V12.75C12.96 12.9483 12.8904 13.116 12.7512 13.2529C12.612 13.3898 12.4416 13.4583 12.24 13.4583H11.52C11.3184 13.4583 11.148 13.3898 11.0088 13.2529C10.8696 13.116 10.8 12.9483 10.8 12.75V12.0416ZM12.24 6.37498V1.41665H2.16V6.37498H12.24ZM12.24 7.79165H2.16V10.625H12.24V7.79165ZM2.88 8.49998H5.76V9.91665H2.88V8.49998ZM8.64 8.49998H11.52V9.91665H8.64V8.49998Z" fill="#7135AD"/>
</svg>