<svg width="15" height="14" viewBox="0 0 15 14" fill="none" xmlns="http://www.w3.org/2000/svg">
<path d="M11.3741 11.0833H3.21031V11.6667C3.21031 11.83 3.15394 11.9681 3.04121 12.0808C2.92847 12.1936 2.79046 12.25 2.62719 12.25H2.04406C1.88079 12.25 1.74278 12.1936 1.63004 12.0808C1.51731 11.9681 1.46094 11.83 1.46094 11.6667V5.83333L2.90709 2.46167C3.00039 2.24389 3.14423 2.07083 3.3386 1.9425C3.53297 1.81417 3.74679 1.75 3.98004 1.75H10.6043C10.8376 1.75 11.0514 1.81417 11.2458 1.9425C11.4402 2.07083 11.584 2.24389 11.6773 2.46167L13.1234 5.83333V11.6667C13.1234 11.83 13.0671 11.9681 12.9543 12.0808C12.8416 12.1936 12.7036 12.25 12.5403 12.25H11.9572C11.7939 12.25 11.6559 12.1936 11.5432 12.0808C11.4304 11.9681 11.3741 11.83 11.3741 11.6667V11.0833ZM11.9572 7H2.62719V9.91667H11.9572V7ZM2.73215 5.83333H11.8522L10.6043 2.91667H3.98004L2.73215 5.83333ZM4.085 9.33333C3.84398 9.33333 3.63794 9.24778 3.46689 9.07667C3.29584 8.90556 3.21031 8.69944 3.21031 8.45833C3.21031 8.21722 3.29584 8.01111 3.46689 7.84C3.63794 7.66889 3.84398 7.58333 4.085 7.58333C4.32603 7.58333 4.53206 7.66889 4.70311 7.84C4.87416 8.01111 4.95969 8.21722 4.95969 8.45833C4.95969 8.69944 4.87416 8.90556 4.70311 9.07667C4.53206 9.24778 4.32603 9.33333 4.085 9.33333ZM10.4994 9.33333C10.2584 9.33333 10.0523 9.24778 9.88126 9.07667C9.71021 8.90556 9.62469 8.69944 9.62469 8.45833C9.62469 8.21722 9.71021 8.01111 9.88126 7.84C10.0523 7.66889 10.2584 7.58333 10.4994 7.58333C10.7404 7.58333 10.9464 7.66889 11.1175 7.84C11.2885 8.01111 11.3741 8.21722 11.3741 8.45833C11.3741 8.69944 11.2885 8.90556 11.1175 9.07667C10.9464 9.24778 10.7404 9.33333 10.4994 9.33333Z" fill="#22C55E"/>
</svg>
