<svg
xmlns="http://www.w3.org/2000/svg"
width="15"
height="14"
viewBox="0 0 15 14"
fill="none"
>
<path
   d="M9.75 3.75H11.25M9.75 6.75H11.25M3.75 9.75H11.25M3 0.75H12C13.2426 0.75 14.25 1.75736 14.25 3V10.5C14.25 11.7426 13.2426 12.75 12 12.75H3C1.75736 12.75 0.75 11.7426 0.75 10.5V3C0.75 1.75736 1.75736 0.75 3 0.75ZM6.75 5.25C6.75 6.07843 6.07843 6.75 5.25 6.75C4.42157 6.75 3.75 6.07843 3.75 5.25C3.75 4.42157 4.42157 3.75 5.25 3.75C6.07843 3.75 6.75 4.42157 6.75 5.25Z"
   stroke="#7135AD"
   stroke-opacity="0.7"
   stroke-width="1.5"
   stroke-linecap="round"
   stroke-linejoin="round"
/>
</svg>