<svg width="562" height="380" viewBox="0 0 562 380" fill="none" xmlns="http://www.w3.org/2000/svg">
<g opacity="0.3" clip-path="url(#clip0_6834_61815)">
<path d="M511.54 96.1121H562C561.891 95.5075 561.77 94.9022 561.642 94.2976H511.539V27.8079C508.166 25.6268 504.728 23.5625 501.226 21.615V94.2976H409.017V0C407.336 0.0847673 405.65 0.199656 403.969 0.344671C402.288 0.489686 400.456 0.671133 398.704 0.870791V94.2976H267.062L266.747 93.953L338.471 15.4767C331.834 17.6176 325.21 19.8201 318.584 21.9778L265.849 79.6672V36.5347C262.415 37.2563 258.978 37.9134 255.536 38.5061V81.6603L219.477 42.2106C214.781 42.3236 210.086 42.2753 205.39 42.0656L252.806 93.9375L252.49 94.2822H126.309V25.8722C122.876 24.9167 119.436 23.9674 115.996 23.0476V94.2941H0.0365424L0 96.1086H116.008V157.796H4.33574C4.43903 158.401 4.54234 159.006 4.65126 159.61H116.008V218.274H23.2345C23.5259 218.879 23.8231 219.484 24.1262 220.089H116.008V280.119C119.454 280.68 122.891 281.269 126.321 281.886V220.092H255.536V286.618C258.885 288.044 262.331 286.392 265.849 287.33V220.092H398.704V284.526C402.125 285.76 405.563 283.417 409.017 284.526V220.092H501.224V281.296C504.683 281.043 508.127 281.927 511.537 281.296V220.092H551.866C551.751 219.488 551.648 218.882 551.544 218.278H511.509V159.614H558.767C558.912 159.009 559.058 158.404 559.198 157.8H511.54V96.1121ZM501.227 96.1121V157.8H409.017V96.1121H501.227ZM398.701 157.8H265.849V96.1121H398.704L398.701 157.8ZM126.321 96.1121H253.716L255.536 97.7633V157.801H126.321V96.1121ZM126.321 218.278V159.614H255.536V218.278H126.321ZM265.849 218.278V159.614H398.704V218.278H265.849ZM501.227 218.278H409.017V159.614H501.224L501.227 218.278Z" fill="#F2F2F2"/>
<path d="M244.762 113.136C243.983 112.466 243.081 111.955 242.105 111.63C239.922 110.957 237.63 110.708 235.353 110.898C233.683 110.992 232.023 111.222 230.391 111.587L154.158 133.088C152.718 133.491 151.303 133.961 149.911 134.497C144.997 132.58 131.105 127.034 129.582 125.044L123.609 126.786L133.57 141.609C133.318 141.719 133.105 141.902 132.959 142.134C132.814 142.366 132.741 142.637 132.753 142.911C132.764 143.185 132.858 143.449 133.022 143.669C133.186 143.889 133.413 144.054 133.674 144.143C145.157 148.074 162.501 142.855 162.501 142.855L229.11 123.883C229.11 123.883 249.213 117.104 244.762 113.136Z" fill="#090814"/>
<path d="M156.981 137.777C157.286 137.677 157.398 137.184 157.23 136.677C157.063 136.169 156.679 135.839 156.374 135.939C156.068 136.04 155.956 136.532 156.124 137.04C156.291 137.547 156.675 137.877 156.981 137.777Z" fill="#F2F2F2"/>
<path d="M159.301 137.014C159.606 136.914 159.718 136.421 159.551 135.914C159.383 135.406 159 135.076 158.694 135.176C158.388 135.277 158.276 135.769 158.444 136.277C158.612 136.784 158.995 137.115 159.301 137.014Z" fill="#F2F2F2"/>
<path d="M163.731 135.561C164.036 135.46 164.148 134.968 163.98 134.46C163.813 133.953 163.429 133.622 163.124 133.723C162.818 133.823 162.706 134.316 162.874 134.823C163.041 135.331 163.425 135.661 163.731 135.561Z" fill="#F2F2F2"/>
<path d="M180.715 130.646C181.02 130.546 181.132 130.053 180.965 129.546C180.797 129.038 180.414 128.708 180.108 128.808C179.802 128.909 179.691 129.401 179.858 129.909C180.026 130.416 180.409 130.747 180.715 130.646Z" fill="#F2F2F2"/>
<path d="M183.004 129.891C183.31 129.791 183.421 129.298 183.254 128.79C183.086 128.283 182.703 127.953 182.397 128.053C182.091 128.153 181.98 128.646 182.147 129.154C182.315 129.661 182.698 129.991 183.004 129.891Z" fill="#F2F2F2"/>
<path d="M185.254 129.154C185.56 129.054 185.671 128.561 185.504 128.054C185.336 127.546 184.953 127.216 184.647 127.316C184.341 127.417 184.23 127.909 184.397 128.417C184.565 128.924 184.948 129.254 185.254 129.154Z" fill="#F2F2F2"/>
<path d="M187.293 128.486C187.599 128.385 187.71 127.893 187.543 127.385C187.375 126.878 186.992 126.547 186.686 126.648C186.381 126.748 186.269 127.241 186.436 127.748C186.604 128.256 186.987 128.586 187.293 128.486Z" fill="#F2F2F2"/>
<path d="M189.481 127.767C189.786 127.667 189.898 127.174 189.73 126.666C189.563 126.159 189.179 125.829 188.874 125.929C188.568 126.029 188.456 126.522 188.624 127.03C188.791 127.537 189.175 127.867 189.481 127.767Z" fill="#F2F2F2"/>
<path d="M191.77 127.013C192.075 126.913 192.187 126.42 192.019 125.912C191.852 125.405 191.468 125.075 191.163 125.175C190.857 125.275 190.745 125.768 190.913 126.276C191.08 126.783 191.464 127.113 191.77 127.013Z" fill="#F2F2F2"/>
<path d="M193.801 126.346C194.106 126.246 194.218 125.753 194.051 125.246C193.883 124.738 193.5 124.408 193.194 124.508C192.888 124.609 192.776 125.101 192.944 125.609C193.112 126.116 193.495 126.447 193.801 126.346Z" fill="#F2F2F2"/>
<path opacity="0.1" d="M205.184 123.417C205.489 123.317 205.601 122.824 205.434 122.317C205.266 121.809 204.882 121.479 204.577 121.579C204.271 121.679 204.159 122.172 204.327 122.68C204.494 123.187 204.878 123.517 205.184 123.417Z" fill="#6C63FF"/>
<path opacity="0.1" d="M209.621 121.963C209.927 121.862 210.039 121.37 209.871 120.862C209.703 120.355 209.32 120.025 209.014 120.125C208.709 120.225 208.597 120.718 208.764 121.225C208.932 121.733 209.316 122.063 209.621 121.963Z" fill="#6C63FF"/>
<path opacity="0.1" d="M211.848 121.233C212.153 121.132 212.265 120.64 212.098 120.132C211.93 119.625 211.546 119.295 211.241 119.395C210.935 119.495 210.823 119.988 210.991 120.495C211.159 121.003 211.542 121.333 211.848 121.233Z" fill="#6C63FF"/>
<path opacity="0.1" d="M214.004 120.523C214.31 120.423 214.421 119.93 214.254 119.423C214.086 118.915 213.703 118.585 213.397 118.685C213.091 118.786 212.98 119.278 213.147 119.786C213.315 120.293 213.698 120.624 214.004 120.523Z" fill="#6C63FF"/>
<path opacity="0.1" d="M216.129 119.822C216.435 119.722 216.546 119.229 216.379 118.721C216.211 118.214 215.828 117.884 215.522 117.984C215.216 118.084 215.105 118.577 215.272 119.084C215.44 119.592 215.823 119.922 216.129 119.822Z" fill="#6C63FF"/>
<path opacity="0.1" d="M218.543 119.037C218.849 118.937 218.96 118.444 218.793 117.937C218.625 117.429 218.242 117.099 217.936 117.199C217.631 117.3 217.519 117.792 217.686 118.3C217.854 118.807 218.237 119.137 218.543 119.037Z" fill="#6C63FF"/>
<path opacity="0.1" d="M207.473 122.664C207.778 122.564 207.89 122.071 207.723 121.564C207.555 121.056 207.171 120.726 206.866 120.826C206.56 120.927 206.448 121.419 206.616 121.927C206.784 122.434 207.167 122.764 207.473 122.664Z" fill="#6C63FF"/>
<path d="M161.684 136.23C161.989 136.13 162.101 135.637 161.934 135.13C161.766 134.622 161.382 134.292 161.077 134.392C160.771 134.493 160.659 134.985 160.827 135.493C160.994 136 161.378 136.331 161.684 136.23Z" fill="#F2F2F2"/>
<path d="M197.656 123.332L195.57 123.846L196.469 127.469L198.554 126.955L197.656 123.332Z" fill="#F2F2F2"/>
<path opacity="0.1" d="M222.218 116.317L220.133 116.831L221.031 120.454L223.116 119.94L222.218 116.317Z" fill="#6C63FF"/>
<path opacity="0.1" d="M232.853 111.781L230.086 112.507L231.469 114.588L235.57 113.572L232.853 111.781Z" fill="#6C63FF"/>
<path opacity="0.1" d="M242.094 111.631L236.113 113.185L233.844 111.784L235.355 110.902C237.627 110.712 239.915 110.96 242.094 111.631Z" fill="#6C63FF"/>
<path d="M123.617 126.738L133.578 141.609L149.848 134.419C149.848 134.419 131.437 127.413 129.592 124.996L123.617 126.738Z" fill="#090814"/>
<path d="M195.878 128.969L169.592 136.045L168.039 139.142L195.878 128.969Z" fill="#F2F2F2"/>
<path d="M456.893 53.6199H456.092C456.373 53.4554 456.608 53.225 456.778 52.9487C456.949 52.6725 457.048 52.3588 457.069 52.0352C457.069 50.7833 455.534 49.7612 453.654 49.7612H429.746C427.866 49.7612 426.331 50.7833 426.331 52.0352C426.331 53.2808 427.866 54.3029 429.746 54.3029H430.541C430.261 54.4677 430.027 54.6984 429.858 54.9747C429.688 55.251 429.59 55.5644 429.57 55.8876C429.57 56.958 430.686 57.8534 432.179 58.095H425.292C423.418 58.095 421.883 59.1172 421.883 60.3691C421.883 61.6209 423.418 62.6368 425.292 62.6368H449.2C451.075 62.6368 452.615 61.6146 452.615 60.3691C452.615 59.3049 451.491 58.4033 450 58.1616H456.887C458.762 58.1616 460.297 57.1395 460.297 55.8876C460.297 54.6357 458.768 53.6199 456.893 53.6199Z" fill="#F2F2F2"/>
<path d="M197.759 75.2469H196.959C197.239 75.0828 197.475 74.8525 197.646 74.5761C197.816 74.2998 197.916 73.9859 197.936 73.6622C197.936 72.4166 196.401 71.3882 194.52 71.3882H170.613C168.733 71.3882 167.198 72.4166 167.198 73.6622C167.198 74.9141 168.733 75.9362 170.613 75.9362H171.408C171.127 76.1002 170.892 76.3306 170.721 76.6069C170.551 76.8833 170.451 77.1971 170.431 77.5209C170.431 78.585 171.556 79.4824 173.046 79.722H166.16C164.285 79.722 162.75 80.7441 162.75 81.996C162.75 83.2479 164.285 84.27 166.16 84.27H190.074C191.948 84.27 193.483 83.2479 193.483 81.996C193.483 80.9319 192.367 80.0302 190.875 79.7886H197.761C199.636 79.7886 201.171 78.7664 201.171 77.5209C201.171 76.2753 199.635 75.2469 197.759 75.2469Z" fill="#F2F2F2"/>
<path d="M493.567 167.815H492.772C493.053 167.651 493.289 167.42 493.459 167.144C493.629 166.868 493.729 166.554 493.749 166.23C493.749 164.978 492.208 163.956 490.334 163.956H466.42C464.545 163.956 463.01 164.978 463.01 166.23C463.01 167.482 464.545 168.504 466.42 168.504H467.221C466.939 168.667 466.703 168.897 466.532 169.174C466.362 169.45 466.263 169.765 466.244 170.089C466.244 171.153 467.368 172.05 468.859 172.29H461.972C460.097 172.29 458.562 173.312 458.562 174.564C458.562 175.816 460.097 176.838 461.972 176.838H485.886C487.761 176.838 489.296 175.816 489.296 174.564C489.296 173.5 488.179 172.598 486.687 172.356H493.567C495.447 172.356 496.982 171.334 496.982 170.089C496.982 168.843 495.447 167.815 493.567 167.815Z" fill="#F2F2F2"/>
<path d="M327.172 73.9949C325.243 75.1256 325.182 79.958 325.479 83.8349C325.69 86.6714 326.085 88.9938 326.085 88.9938L313.531 119.414C313.531 119.414 308.878 97.7388 308.805 88.062C308.799 87.2986 308.916 86.5393 309.151 85.8126C311.368 78.8392 323.671 74.9441 327.172 73.9949Z" fill="#090814"/>
<path d="M328.1 73.735C328.1 73.735 327.761 73.8134 327.172 73.9767C327.454 73.8148 327.775 73.7313 328.1 73.735Z" fill="#090814"/>
<path d="M369.351 287.44C369.351 287.44 369.036 291.223 368.533 296.512C367.398 308.523 365.305 328.354 363.68 329.968C361.35 332.297 362.363 349.412 363.273 352.436C364.184 355.459 363.273 377.232 363.273 377.232C360.984 386.327 359.863 395.675 359.937 405.052C360.241 419.567 355.994 427.126 355.994 427.126C355.994 427.126 335.974 428.941 331.831 425.082C327.688 421.223 331.831 390.537 331.831 390.537C331.831 390.537 339.311 365.439 337.492 361.81C335.672 358.181 333.549 349.41 333.549 349.41V318.866C330.606 314.028 329.302 307.377 328.738 301.363C328.289 296.221 328.275 291.05 328.696 285.905C328.696 285.905 324.929 293.586 321.088 301.182C317.618 308.047 314.088 314.838 313.202 315.842C311.382 317.959 312.898 327.635 313.202 332.473C313.505 337.311 309.865 346.988 309.865 346.988C314.415 349.709 315.325 381.763 315.325 381.763C315.325 381.763 311.989 389.625 318.965 398.394C325.942 407.163 323.212 423.795 322.302 423.19C321.392 422.585 302.889 427.726 299.253 423.19C295.616 418.654 291.67 406.256 291.67 406.256C291.67 406.256 293.49 393.556 289.546 382.065C286.622 373.55 283.037 353.586 281.375 343.806C280.769 340.258 280.659 336.644 281.048 333.065C281.812 325.92 282.989 312.702 282.57 302.221C282.43 298.804 282.528 293.373 282.759 287.005C283.542 265.172 285.907 232.37 285.907 232.37L302.395 221.296L313.254 213.954L315.911 214.359L365.426 221.961L367.349 246.31L369.351 287.44Z" fill="#E6E6E6"/>
<path d="M354.388 89.3748C354.388 89.3748 320.416 116.486 326.689 111.044C330.122 108.056 327.787 95.3204 324.972 84.4337C322.653 75.4526 320.016 67.7234 320.016 67.7234C320.016 67.7234 349.67 40.0668 347.515 62.6794C346.757 70.6503 347.388 76.3171 348.522 80.3208C350.603 87.6451 354.388 89.3748 354.388 89.3748Z" fill="#FFB9B9"/>
<path d="M351.566 82.77L326.373 88.2273L323.757 92.5974C323.757 92.5974 318.4 90.2814 317.995 92.9001C317.59 95.5187 316.078 111.648 319.209 113.16C322.339 114.672 326.391 115.682 329.928 115.18C333.464 114.678 337.407 110.74 340.04 109.229C342.674 107.717 352.374 99.8545 352.374 99.8545L357.227 93.1053L351.566 82.77Z" fill="#FFB9B9"/>
<path d="M332.758 96.9339C332.758 96.9339 347.469 80.901 350.958 83.4475C354.447 85.994 356.703 92.1988 356.703 92.1988L344.74 105.299L332.758 96.9339Z" fill="#FFB9B9"/>
<path opacity="0.1" d="M358.844 87.4575C358.844 87.4575 341.427 106.206 331.029 107.464C330.083 107.579 329.149 107.736 328.214 107.924C325.502 108.456 319.581 107.924 320.522 92.4231L319.206 89.6776L311.119 94.6186L308.389 116.79L303.536 173.639L296.359 236.941C296.359 236.941 318.399 234.825 324.568 240.371C330.738 245.916 332.455 210.132 332.455 210.132L349.338 137.554L367.337 90.8832L358.844 87.4575Z" fill="black"/>
<path opacity="0.1" d="M367.336 93.3056L349.337 139.977L332.454 212.548C332.454 212.548 330.731 248.327 324.568 242.787C322.554 240.972 318.841 239.98 314.758 239.467C309.738 238.926 304.681 238.813 299.641 239.128C297.627 239.237 296.359 239.358 296.359 239.358L303.536 176.056L308.389 119.207L311.119 97.0354L319.206 92.0944L320.522 94.8398C320.522 95.2448 320.48 95.6441 320.462 96.0497C319.891 110.371 325.576 110.879 328.215 110.359C329.149 110.171 330.083 110.014 331.03 109.899C338.394 108.998 349.278 99.3395 354.998 93.7862C357.358 91.4884 358.844 89.8911 358.844 89.8911L367.336 93.3056Z" fill="black"/>
<path d="M367.336 91.4912L349.337 138.162L332.454 210.734C332.454 210.734 330.731 246.512 324.568 240.972C322.554 239.158 318.841 238.166 314.758 237.652C309.738 237.112 304.681 236.999 299.641 237.314C297.627 237.423 296.359 237.544 296.359 237.544L303.536 174.242L308.389 117.392L311.119 95.2209L319.206 90.2799L320.522 93.0254C320.522 93.4303 320.48 93.8296 320.462 94.2352C319.891 108.557 325.576 109.065 328.215 108.544C329.149 108.356 330.083 108.199 331.03 108.085C338.394 107.184 349.278 97.5251 354.998 91.9718C357.358 89.6739 358.844 88.0767 358.844 88.0767L367.336 91.4912Z" fill="#0D4B37"/>
<path opacity="0.1" d="M320.522 93.0268C320.522 93.4317 320.48 93.831 320.462 94.2366L320.321 94.3333C318.186 95.7344 314.758 119.431 314.758 119.431L310.312 179.807L302.122 224.863C302.122 224.863 301.049 229.997 299.641 237.333C297.627 237.442 296.359 237.563 296.359 237.563L303.536 174.26L308.389 117.411L311.119 95.2398L319.206 90.2988L320.522 93.0268Z" fill="black"/>
<path d="M326.092 88.9938C326.092 88.9938 321.239 92.9127 319.103 94.318C316.968 95.7234 313.541 119.411 313.541 119.411L309.094 179.786L300.907 224.844C300.907 224.844 293.628 259.619 292.111 277.46C290.594 295.301 284.224 290.161 284.224 290.161C284.224 290.161 279.468 276.25 268.148 275.449C256.828 274.647 262.688 268.289 262.688 268.289C262.688 268.289 269.319 220.651 273.681 212.165C273.749 212.02 273.826 211.88 273.911 211.745C274.847 209.85 275.552 207.851 276.01 205.79C280.323 189.557 285.838 149.545 285.838 149.545L289.277 99.9526C298.074 85.6374 325.409 86.1334 325.409 86.1334L326.092 88.9938Z" fill="#090814"/>
<path opacity="0.1" d="M367.335 91.4913L349.336 138.159L332.454 210.736C332.454 210.736 330.73 246.515 324.567 240.975C322.553 239.161 318.841 238.169 314.758 237.655C314.828 225.354 315.207 203.28 316.984 194.002C318.522 185.525 319.165 176.91 318.901 168.299L340.947 120.419C340.947 120.419 357.526 100.044 357.629 97.1286C357.665 96.0519 356.488 94.0567 354.996 91.9578C357.356 89.6593 358.842 88.0627 358.842 88.0627L367.335 91.4913Z" fill="black"/>
<path d="M311.922 298.713L315.968 246.297C315.968 246.297 315.664 207.185 318.194 193.983C319.732 185.506 320.375 176.891 320.111 168.28L342.157 120.4C342.157 120.4 358.737 100.025 358.839 97.1098C358.942 94.1948 350.152 84.4998 350.152 84.4998C350.152 84.4998 369.352 86.7373 371.882 95.3009C374.412 103.865 388.262 107.198 388.262 107.198C388.262 107.198 394.938 113.246 394.831 130.584C394.725 147.923 373.599 161.525 373.599 161.525C373.599 161.525 370.062 194.184 373.095 208.904C376.128 223.624 373.496 295.182 373.496 295.182C373.496 295.182 353.173 295.388 340.434 298.714C327.694 302.041 311.922 298.713 311.922 298.713Z" fill="#090814"/>
<path d="M341.859 215.574L357.424 274.334C357.424 274.334 359.547 279.578 370.468 275.544C381.388 271.51 413.139 258.411 413.139 258.411C413.139 258.411 415.966 253.772 410.713 245.208L394.838 198.84L341.859 215.574Z" fill="#D6D6E3"/>
<path d="M362 241.555L387.175 213.959L403.251 207.458L409.846 240.642L379.289 273.754L362 241.555Z" fill="#F2F2F2"/>
<path d="M391.633 244.963C391.633 244.963 384.147 249.353 382.17 249.499C380.192 249.644 373.234 262.755 376.176 262.652C379.118 262.549 385.962 259.024 385.276 260.838C384.59 262.652 380.125 268.095 378.833 267.575C377.541 267.055 376.936 271.573 382.473 269.994C388.011 268.416 395.365 267.052 395.365 267.052C395.365 267.052 399.307 264.18 399.459 262.135C399.611 260.09 403.026 249.356 403.026 249.356L391.633 244.963Z" fill="#FFB9B9"/>
<path d="M268.719 95.9544C268.719 95.9544 275.198 82.0084 279.068 77.3994C282.939 72.7905 299.821 67.8319 301.514 69.1924C303.207 70.5529 293.021 78.1918 291.201 79.1711C289.381 80.1505 302.958 89.2528 303.237 89.4525C303.516 89.6522 313.854 88.5418 308.546 92.0165C303.237 95.4913 287.544 99.0319 287.544 99.0319C286.487 98.8498 285.403 98.8846 284.36 99.1342C283.317 99.3838 282.336 99.8429 281.477 100.483C278.437 102.679 268.719 95.9544 268.719 95.9544Z" fill="#FFB9B9"/>
<path d="M405.55 218.193C405.489 219.07 405.434 219.944 405.38 220.818C405.228 223.485 405.124 226.128 405.058 228.68C404.754 240.498 405.246 250.247 405.246 250.247C405.246 250.247 395.843 244.605 385.834 249.34L384.839 230.215V229.882L383.813 221.518L380.489 194.502C380.489 194.502 374.222 157.006 372.299 155.597C370.377 154.188 386.555 123.846 386.555 123.846L394.83 130.583L399.986 165.255V182.993C399.986 182.993 406.659 202.267 405.55 218.193Z" fill="#090814"/>
<path opacity="0.1" d="M283.211 98.8519L281.269 102.692C278.933 106.363 275.397 110.693 275.397 110.693C275.397 110.693 261.602 104.367 261.602 104.089C261.602 103.811 265.788 97.2371 269.191 92.0544C270.24 90.8753 270.877 90.1797 270.877 90.1797C266.83 100.158 283.211 98.8519 283.211 98.8519Z" fill="black"/>
<path d="M294.939 97.1279L289.279 99.9582C289.279 99.9582 282.302 109.332 280.284 110.343C278.266 111.353 277.251 111.25 277.251 111.25L283.21 99.4566C283.21 99.4566 266.831 100.763 270.877 90.7837C270.877 90.7837 252.575 110.741 250.554 118.806C250.554 118.806 240.442 135.535 242.868 143.802C245.295 152.069 255.104 153.68 262.177 151.162C269.251 148.644 290.993 137.554 290.993 137.554L294.939 97.1279Z" fill="#090814"/>
<path opacity="0.1" d="M274.619 116.789C274.619 116.789 259.356 133.826 260.569 136.142C261.782 138.458 273.812 120.218 274.619 116.789Z" fill="black"/>
<path opacity="0.2" d="M343.527 70.9285C343.527 70.9285 365.009 64.4757 377.142 87.7594C389.275 111.043 389.681 112.659 389.074 113.765C388.468 114.871 364.912 108.727 363.595 111.449C362.279 114.17 376.941 125.359 376.941 125.359L320.117 168.299L343.995 117.715C345.594 114.173 347.726 110.896 350.319 107.996C354.244 103.618 359.613 96.9108 357.708 94.842C356.033 93.0276 353.358 88.2925 349.743 82.8429C347.113 78.8518 342.909 74.3395 343.527 70.9285Z" fill="black"/>
<path d="M342.917 70.3233C342.917 70.3233 364.399 63.8705 376.534 87.1548C388.67 110.439 389.074 112.054 388.467 113.16C387.861 114.266 364.304 108.122 362.988 110.844C361.672 113.566 376.334 124.754 376.334 124.754L320.117 168.299L343.388 117.11C344.987 113.568 347.12 110.29 349.713 107.391C353.637 103.013 359.007 96.3055 357.102 94.2368C355.427 92.4223 352.752 87.6873 349.136 82.2376C346.503 78.2466 342.298 73.7343 342.917 70.3233Z" fill="#090814"/>
<path opacity="0.1" d="M342.917 70.3233C342.917 70.3233 364.399 63.8705 376.534 87.1548C388.67 110.439 389.074 112.054 388.467 113.16C387.861 114.266 364.304 108.122 362.988 110.844C361.672 113.566 376.334 124.754 376.334 124.754L320.117 168.299L344.501 114.649C345.446 112.566 346.723 110.648 348.281 108.97C352.126 104.845 359.273 96.578 357.119 94.2375C355.445 92.423 352.769 87.688 349.154 82.2383C346.503 78.2466 342.298 73.7343 342.917 70.3233Z" fill="black"/>
<path opacity="0.1" d="M347.409 78.4343C346.694 79.0063 345.946 79.5373 345.171 80.0246C341.318 82.4436 337.891 85.7278 332.983 85.7278C330.258 85.7315 327.552 85.2882 324.972 84.4157C322.653 75.4345 320.016 67.7053 320.016 67.7053C320.016 67.7053 349.67 40.0488 347.515 62.6613C346.751 70.6322 346.275 74.4307 347.409 78.4343Z" fill="black"/>
<path d="M357.892 59.6859C357.865 65.3994 355.854 70.9274 352.2 75.3293C348.546 79.7312 343.476 82.7353 337.851 83.8304C332.226 84.9256 326.394 84.0442 321.347 81.3362C316.301 78.6282 312.351 74.2609 310.17 68.9771C307.989 63.6934 307.712 57.8195 309.385 52.3548C311.058 46.8901 314.579 42.172 319.348 39.0032C324.117 35.8343 329.84 34.4104 335.543 34.9737C341.246 35.537 346.578 38.0527 350.63 42.0928C352.941 44.4055 354.772 47.1498 356.018 50.1686C357.264 53.1874 357.901 56.4215 357.892 59.6859Z" fill="#FFB9B9"/>
<path d="M318.874 80.4666C318.639 81.0313 318.232 81.5076 317.709 81.827L313.754 84.2461L306.359 88.7296L294.656 95.8157C294.381 95.9769 294.102 96.1279 293.819 96.269C292.447 96.9638 290.934 97.336 289.396 97.357C287.857 97.378 286.334 97.0473 284.944 96.3902C283.893 95.9196 282.969 95.2071 282.249 94.3114C281.528 93.4156 281.031 92.3622 280.798 91.2376C280.486 89.6724 280.618 88.0517 281.177 86.5565C281.736 85.0614 282.701 83.7506 283.964 82.7707C284.026 82.7153 284.101 82.6777 284.183 82.6621C286.673 81.9606 289.015 80.8175 291.098 79.2875L298.463 74.2071L305.039 68.2138L308.363 65.9216C308.85 65.5848 309.424 65.3944 310.017 65.3729C310.609 65.3514 311.195 65.4998 311.706 65.8004C315.137 67.7417 321.907 72.8277 318.874 80.4666Z" fill="#E1E7EF"/>
<path d="M313.75 84.2124L306.356 88.696C304.814 82.5031 300.895 78.1302 297.492 74.825L305.039 68.1697C310.778 71.0132 313.059 80.4904 313.75 84.2124Z" fill="#6C63FF"/>
<path opacity="0.1" d="M293.819 96.2388C292.447 96.9336 290.934 97.3059 289.396 97.3269C287.857 97.3479 286.334 97.0171 284.944 96.36C283.893 95.8894 282.969 95.1769 282.249 94.2812C281.528 93.3854 281.031 92.332 280.798 91.2074C280.486 89.6422 280.618 88.0215 281.177 86.5263C281.736 85.0311 282.701 83.7204 283.964 82.7405C285.801 83.516 287.501 84.5804 288.999 85.893C291.09 87.6974 292.605 90.0733 293.356 92.7269C293.654 93.8743 293.809 95.0537 293.819 96.2388Z" fill="black"/>
<path d="M308.82 32.2411C309.348 28.7516 312.235 25.4793 315.772 25.4191C318.69 25.3707 321.178 27.3421 323.762 28.6907C326.408 30.0502 329.322 30.8095 332.296 30.914C335.271 31.0185 338.232 30.4657 340.967 29.2953C342.556 28.6059 344.164 27.684 345.893 27.8199C347.621 27.9558 349.005 29.09 350.2 30.2389C353.039 33.0381 355.265 36.3952 356.735 40.0971C357.068 41.2236 357.634 42.268 358.397 43.1635C359.035 43.6966 359.731 44.1571 360.471 44.5366C361.739 45.3752 362.826 46.4585 363.668 47.7226C364.51 48.9866 365.089 50.4058 365.373 51.8966C365.922 54.8944 365.613 57.9861 364.481 60.8168C363.809 62.7653 362.701 64.5358 361.241 65.9939C360.137 67.0279 358.815 67.8083 357.657 68.7758C355.769 70.3745 354.33 72.4342 353.479 74.7536C352.628 77.073 352.396 79.5728 352.804 82.0086C349.577 82.7526 346.48 79.8677 345.525 76.711C344.57 73.5543 345.119 70.1671 345.167 66.871C345.167 65.4075 344.961 63.6779 343.669 62.9759C342.595 62.3713 341.243 62.8064 340.187 63.3962C339.132 63.9861 338.079 64.7567 336.869 64.8961C335.049 65.1021 333.387 63.832 332.367 62.3258C331.348 60.8196 330.766 59.0724 329.796 57.5361C328.531 55.5101 326.641 53.9555 324.791 52.4437C322.674 50.7078 320.617 48.7728 318.367 47.2127C317.014 46.2753 315.4 45.8396 314.072 44.8966C310.058 42.0321 308.82 36.8073 308.82 32.2411Z" fill="#090814"/>
<path opacity="0.1" d="M328.1 73.735C328.1 73.735 327.761 73.8134 327.172 73.9767C327.454 73.8148 327.775 73.7313 328.1 73.735Z" fill="black"/>
<g opacity="0.1">
<path d="M346.748 74.7326C345.808 71.5695 346.342 68.1887 346.39 64.8926C346.39 63.4291 346.184 61.6994 344.892 60.9975C343.818 60.3929 342.465 60.8342 341.41 61.4178C340.355 62.0014 339.302 62.7783 338.092 62.9177C336.272 63.1236 334.61 61.8535 333.59 60.3536C332.571 58.8538 331.989 57.094 331.018 55.5576C329.744 53.5379 327.864 51.9848 326.014 50.4653C323.896 48.7293 321.84 46.7944 319.589 45.2342C318.237 44.2969 316.623 43.8675 315.294 42.9182C311.272 40.0515 310.035 34.8261 310.035 30.2599C310.171 29.3944 310.441 28.5551 310.834 27.7715C309.772 29.0001 309.075 30.4996 308.82 32.1016C308.82 36.6678 310.034 41.8933 314.08 44.76C315.409 45.7092 317.022 46.1387 318.375 47.076C320.624 48.6361 322.682 50.5718 324.799 52.3071C326.65 53.8252 328.53 55.3797 329.804 57.3994C330.774 58.9357 331.35 60.692 332.376 62.1954C333.402 63.6988 335.069 64.9654 336.878 64.7594C338.091 64.6193 339.122 63.8487 340.196 63.2596C341.269 62.6704 342.622 62.2557 343.678 62.8392C344.97 63.5398 345.2 65.2582 345.176 66.7343C345.127 70.0269 344.569 73.3896 345.534 76.5743C346.498 79.759 349.574 82.6222 352.813 81.8719C352.712 81.304 352.647 80.7303 352.619 80.1542C349.926 79.916 347.555 77.4304 346.748 74.7326Z" fill="black"/>
<path d="M362.457 64.0162C361.353 65.0565 360.031 65.8307 358.873 66.7981C357.596 67.8661 356.524 69.1573 355.711 70.6084C356.286 69.875 356.939 69.2058 357.658 68.6126C358.823 67.6451 360.139 66.871 361.242 65.8306C362.121 64.9847 362.866 64.0097 363.45 62.9395C363.145 63.321 362.813 63.6808 362.457 64.0162Z" fill="black"/>
</g>
<path opacity="0.1" d="M328.928 279.899C328.485 281.211 327.854 282.491 327.769 283.878C327.623 286.237 329.067 288.426 329.17 290.79C329.292 293.53 327.617 295.991 326.016 298.229C327.913 298.229 329.989 297.57 330.954 295.943C331.281 295.316 331.52 294.646 331.663 293.953C333.38 287.125 335.048 279.656 332.064 273.282C331.603 272.181 330.933 271.179 330.092 270.331C329.589 273.549 330.013 276.712 328.928 279.899Z" fill="black"/>
<path opacity="0.1" d="M281.473 231.71L276.431 224.93C275.218 223.291 273.962 221.586 273.526 219.596C273.053 217.413 273.604 215.151 273.677 212.941V212.185C273.746 212.04 273.823 211.9 273.908 211.765C274.844 209.871 275.548 207.871 276.007 205.81C276.742 206.538 277.313 207.415 277.681 208.38C280.029 214.089 277.857 220.791 279.799 226.645C280.358 228.322 281.267 229.932 281.473 231.71Z" fill="black"/>
<path d="M259.698 219.662H255.906V335.054H259.698V219.662Z" fill="#D6D6E3"/>
<path d="M271.477 219.662H267.68V335.054H271.477V219.662Z" fill="#D6D6E3"/>
<path d="M224.57 329.733C224.57 329.733 231.035 324.489 236.703 326.304C242.371 328.118 257.123 329.932 259.752 339.204C262.382 348.475 259.752 450.284 259.752 450.284C259.752 450.284 247.189 453.538 243.773 451.895C240.358 450.252 240.74 434.961 240.74 434.961L239.733 344.674L224.57 329.733Z" fill="#7A9B8B"/>
<path opacity="0.1" d="M224.164 329.569C224.164 329.569 230.629 324.326 236.297 326.14C241.965 327.955 256.717 329.769 259.346 339.04C261.976 348.311 259.346 450.12 259.346 450.12C259.346 450.12 246.782 453.375 243.367 451.732C239.952 450.089 240.334 434.798 240.334 434.798L239.327 344.51L224.164 329.569Z" fill="#7A9B8B"/>
<path d="M283.407 445.07L256.186 451.118L255.901 446.28L255.726 351.285C255.717 346.847 254.686 342.471 252.711 338.493C250.736 334.516 247.871 331.045 244.336 328.348C244.336 328.348 258.428 328.16 269.208 333.017C271.513 334.051 273.825 335.068 276.197 335.938C279.139 337.021 283.131 339.325 283.386 343.873C283.713 349.8 284.854 408.512 285.261 429.885C285.365 435.009 284.741 440.121 283.407 445.07Z" fill="#0D4B37"/>
<path d="M260.462 211.093H254.141V220.969H260.462V211.093Z" fill="#090814"/>
<path d="M272.337 212.653H266.016V222.529H272.337V212.653Z" fill="#090814"/>
<path d="M272.334 212.653H265.994C264.814 212.683 263.667 213.044 262.683 213.695C261.699 214.345 260.919 215.258 260.432 216.33C260.34 216.524 260.256 216.723 260.177 216.935L258.781 215.592L255.881 212.798L254.109 211.093C254.109 211.093 265.812 205.194 272.334 212.653Z" fill="#090814"/>
<path d="M220.321 328.348C220.321 328.348 201.916 333.186 200.909 379.355C199.902 425.525 199.695 430.356 199.695 430.356C199.695 430.356 200.096 443.661 227.195 451.928H243.774L246.407 345.886C246.407 345.886 243.374 329.733 220.321 328.348Z" fill="#0D4B37"/>
</g>
<defs>
<clipPath id="clip0_6834_61815">
<rect width="562" height="464" fill="white"/>
</clipPath>
</defs>
</svg>
