<svg width="671" height="527" viewBox="0 0 671 527" fill="none" xmlns="http://www.w3.org/2000/svg">
<g opacity="0.3">
<g clip-path="url(#clip0_6834_61591)">
<path d="M539.997 552.519L40.0174 382.384L39.9323 382.634L539.911 552.769L539.997 552.519Z" fill="#EBEBEB"/>
<path d="M364.824 513.897L356.135 510.94L356.05 511.19L364.739 514.147L364.824 513.897Z" fill="#EBEBEB"/>
<path d="M453.464 530.671L434.275 524.141L434.19 524.391L453.379 530.921L453.464 530.671Z" fill="#EBEBEB"/>
<path d="M132.776 423.42L89.5877 408.724L89.5026 408.974L132.691 423.67L132.776 423.42Z" fill="#EBEBEB"/>
<path d="M148.011 428.606L141.681 426.452L141.596 426.702L147.926 428.856L148.011 428.606Z" fill="#EBEBEB"/>
<path d="M260.834 471.705L167.158 439.829L167.073 440.079L260.749 471.955L260.834 471.705Z" fill="#EBEBEB"/>
<path d="M292.18 418.43L99.0984 352.727C97.5867 352.21 96.3421 351.114 95.6377 349.679C94.9334 348.245 94.8269 346.59 95.3416 345.078L187.701 73.659C188.226 72.1596 189.321 70.9278 190.749 70.2313C192.177 69.5347 193.822 69.4296 195.327 69.9388L388.408 135.641C389.923 136.157 391.17 137.252 391.877 138.688C392.583 140.123 392.691 141.78 392.175 143.294L299.833 414.663C299.318 416.177 298.222 417.425 296.787 418.131C295.352 418.838 293.695 418.945 292.18 418.43ZM195.258 70.1388C193.811 69.6493 192.229 69.754 190.859 70.4299C189.489 71.1059 188.443 72.2978 187.951 73.7441L95.5916 345.163C95.0994 346.609 95.2012 348.192 95.8747 349.563C96.5481 350.934 97.7381 351.982 99.1835 352.477L292.265 418.18C293.714 418.669 295.297 418.565 296.668 417.89C298.04 417.215 299.088 416.024 299.583 414.578L391.942 143.159C392.432 141.711 392.328 140.128 391.653 138.756C390.978 137.385 389.787 136.336 388.34 135.841L195.258 70.1388Z" fill="#EBEBEB"/>
<path d="M508.482 492.033L315.39 426.327C313.877 425.81 312.631 424.714 311.925 423.279C311.219 421.845 311.11 420.189 311.623 418.675L403.982 147.256C404.51 145.757 405.607 144.525 407.037 143.83C408.466 143.134 410.112 143.03 411.618 143.539L604.71 209.245C606.21 209.761 607.447 210.848 608.151 212.27C608.856 213.692 608.972 215.334 608.474 216.841L516.114 488.26C515.6 489.771 514.508 491.016 513.078 491.723C511.647 492.431 509.994 492.542 508.482 492.033ZM411.55 143.739C410.102 143.249 408.518 143.353 407.147 144.028C405.775 144.704 404.727 145.895 404.232 147.341L311.873 418.76C311.383 420.208 311.487 421.791 312.162 423.163C312.837 424.534 314.028 425.582 315.475 426.077L508.567 491.783C510.015 492.273 511.598 492.169 512.97 491.494C514.341 490.819 515.389 489.628 515.884 488.181L608.244 216.763C608.733 215.315 608.629 213.731 607.954 212.36C607.279 210.988 606.088 209.94 604.642 209.445L411.55 143.739Z" fill="#EBEBEB"/>
<path d="M323.069 177.675C336.743 178.995 348.898 168.979 350.218 155.305C351.538 141.63 341.522 129.475 327.848 128.155C314.173 126.835 302.018 136.851 300.698 150.526C299.378 164.2 309.394 176.356 323.069 177.675Z" fill="#125D45"/>
<path d="M321.952 173.763C333.474 175.706 344.39 167.941 346.333 156.419C348.276 144.897 340.511 133.981 328.989 132.038C317.467 130.095 306.552 137.86 304.608 149.382C302.665 160.904 310.43 171.82 321.952 173.763Z" fill="#80B2A8"/>
<path d="M330.705 139.256L325.941 153.256L330.705 139.256Z" fill="#125D45"/>
<path d="M330.705 139.256L325.941 153.256L330.705 139.256Z" fill="#125D45"/>
<path d="M330.705 139.256L325.941 153.256" stroke="#0D4B37" stroke-width="2" stroke-linecap="round" stroke-linejoin="round"/>
<path d="M325.939 153.901L336.212 151.058L325.939 153.901Z" fill="#125D45"/>
<path d="M325.939 153.901L336.212 151.058L325.939 153.901Z" fill="#125D45"/>
<path d="M325.939 153.901L336.212 151.058" stroke="#0D4B37" stroke-width="2" stroke-linecap="round" stroke-linejoin="round"/>
<path d="M153.259 310.884C153.259 310.884 150.011 309.377 150.979 307.419C151.946 305.461 166.599 304.534 171.27 315.663C171.27 315.663 163.582 322.352 156.525 320.074C149.468 317.795 153.259 310.884 153.259 310.884Z" fill="#EBEBEB"/>
<path d="M153.726 341.28C153.726 341.28 152.035 338.607 154.868 338.545C157.701 338.482 169.932 342.935 165.934 355.208C165.934 355.208 150.762 352.712 150.567 347.447C150.373 342.181 153.726 341.28 153.726 341.28Z" fill="#EBEBEB"/>
<path d="M160.683 327.692C160.683 327.692 159.906 325.386 162.021 325.86C164.136 326.334 172.449 331.874 167.165 340.252C167.165 340.252 156.322 335.625 157.128 331.681C157.934 327.738 160.683 327.692 160.683 327.692Z" fill="#EBEBEB"/>
<path d="M257.367 190.663L166.721 159.817L165.135 164.477L255.781 195.323L257.367 190.663Z" fill="#E0E0E0"/>
<path d="M180.718 145.425L176.728 144.067L170.886 161.236L174.876 162.594L180.718 145.425Z" fill="#263238" fill-opacity="0.21"/>
<path d="M200.031 151.995L196.041 150.638L190.198 167.807L194.188 169.165L200.031 151.995Z" fill="#263238" fill-opacity="0.21"/>
<path d="M222.11 159.032L217.947 158.372L215.106 176.284L219.268 176.944L222.11 159.032Z" fill="#263238" fill-opacity="0.21"/>
<path d="M184.906 149.369L180.916 148.011L175.842 162.921L179.832 164.278L184.906 149.369Z" fill="#263238" fill-opacity="0.21"/>
<path d="M194.085 152.493L190.096 151.135L185.022 166.044L189.012 167.402L194.085 152.493Z" fill="#263238" fill-opacity="0.21"/>
<path d="M217.249 160.377L213.26 159.019L208.186 173.928L212.176 175.286L217.249 160.377Z" fill="#263238" fill-opacity="0.21"/>
<path d="M204.691 155.529L200.502 155.07L198.784 170.725L202.973 171.184L204.691 155.529Z" fill="#263238" fill-opacity="0.21"/>
<path d="M189.424 147.436L187.424 146.756L181.292 164.775L183.292 165.456L189.424 147.436Z" fill="#263238" fill-opacity="0.21"/>
<path d="M213.166 155.518L211.166 154.837L205.034 172.856L207.034 173.537L213.166 155.518Z" fill="#263238" fill-opacity="0.21"/>
<path d="M253.289 174.113L233.83 167.491L229.26 180.921L248.719 187.543L253.289 174.113Z" fill="#263238" fill-opacity="0.21"/>
<path d="M153.309 199.236L243.955 230.081L245.541 225.421L154.894 194.576L153.309 199.236Z" fill="#E0E0E0"/>
<path d="M237.379 222.645L241.369 224.002L247.211 206.833L243.222 205.475L237.379 222.645Z" fill="#263238" fill-opacity="0.21"/>
<path d="M218.067 216.074L222.056 217.432L227.899 200.263L223.909 198.905L218.067 216.074Z" fill="#263238" fill-opacity="0.21"/>
<path d="M193.472 206.954L197.174 208.969L205.848 193.042L202.146 191.026L193.472 206.954Z" fill="#263238" fill-opacity="0.21"/>
<path d="M232.426 220.97L236.416 222.328L241.489 207.419L237.499 206.061L232.426 220.97Z" fill="#263238" fill-opacity="0.21"/>
<path d="M223.246 217.847L227.236 219.204L232.31 204.295L228.32 202.937L223.246 217.847Z" fill="#263238" fill-opacity="0.21"/>
<path d="M200.067 209.959L204.056 211.317L209.13 196.408L205.14 195.05L200.067 209.959Z" fill="#263238" fill-opacity="0.21"/>
<path d="M209.894 212.324L213.494 214.515L221.681 201.061L218.081 198.87L209.894 212.324Z" fill="#263238" fill-opacity="0.21"/>
<path d="M228.971 219.783L230.971 220.464L237.102 202.444L235.102 201.764L228.971 219.783Z" fill="#263238" fill-opacity="0.21"/>
<path d="M205.213 211.698L207.213 212.379L213.344 194.36L211.344 193.679L205.213 211.698Z" fill="#263238" fill-opacity="0.21"/>
<path d="M163.644 197.386L183.103 204.008L187.673 190.579L168.214 183.957L163.644 197.386Z" fill="#263238" fill-opacity="0.21"/>
<path d="M561.523 257.844L397.08 201.886L347.428 347.8L511.871 403.758L561.523 257.844Z" fill="#125D45"/>
<path d="M555.831 260.37L399.838 207.288L352.881 345.282L508.874 398.364L555.831 260.37Z" fill="#F0F0F0"/>
<path d="M436.446 219.745L352.983 344.982L374.998 280.285L419.167 213.865L436.446 219.745Z" fill="white"/>
<path d="M449.416 224.159L365.53 349.587L359.631 347.579L443.526 222.155L449.416 224.159Z" fill="white"/>
<path d="M526.197 347.446L518.694 369.495L501.401 395.822L495.511 393.818L526.197 347.446Z" fill="white"/>
<path d="M455.093 223.326L452.463 222.431L403.614 365.985L406.244 366.88L455.093 223.326Z" fill="#E6E6E6"/>
<path d="M506.014 240.652L503.385 239.757L454.536 383.311L457.165 384.206L506.014 240.652Z" fill="#E6E6E6"/>
<path d="M491.365 507.743C491.717 507.381 491.978 506.939 492.125 506.456C492.272 505.973 492.302 505.461 492.211 504.964C492.12 504.467 491.912 503.999 491.604 503.598C491.295 503.198 490.895 502.877 490.438 502.663C491.277 501.575 491.764 500.256 491.832 498.883C491.9 497.51 491.547 496.149 490.82 494.983C490.653 494.677 490.391 494.435 490.073 494.293C489.712 494.212 489.335 494.243 488.993 494.384L482.052 496.485C481.513 496.606 481.009 496.851 480.581 497.2C478.689 499.022 481.88 503.221 479.527 504.496C478.86 504.849 478.043 504.693 477.317 504.859C475.705 505.237 474.925 507.002 473.815 508.231C472.705 509.46 470.178 509.838 469.8 508.226C470.88 507.054 469.441 505.248 468.003 504.557C466.564 503.867 465.031 503.256 464.678 501.574C461.928 502.702 458.928 495.913 459.749 493.86C457.965 493.398 456.217 494.633 455.282 496.134C454.451 497.772 453.798 499.495 453.333 501.272C452.119 504.642 449.903 507.581 448.813 510.981C447.968 513.628 447.994 516.895 450.034 518.772C451.086 519.607 452.302 520.211 453.603 520.544L481.09 529.708C481.735 529.974 482.432 530.09 483.129 530.044C484.59 529.816 485.404 528.275 485.987 526.922C488.509 521.131 491.029 515.342 493.548 509.557L491.365 507.743Z" fill="#E0E0E0"/>
<path d="M502.833 479.298L460.275 464.816L459.162 469.235L458.367 472.39L456.295 480.611L455.103 485.327L453.514 491.603L452.833 494.295L452.637 495.098L451.839 498.263L450.743 502.599L450.062 505.29L449.377 508.025L448.579 511.19L447.976 513.584L447.294 516.276L446.996 517.446L486.045 530.734L486.523 529.625L487.621 527.086L488.61 524.801L489.908 521.806L491.03 519.231L492.132 516.683L493.911 512.568L495.206 509.584L495.531 508.824L496.633 506.276L499.212 500.336L501.14 495.882L504.502 488.1L505.797 485.116L507.61 480.935L502.833 479.298ZM504.434 482.989L503.893 481.89L504.793 482.196L504.434 482.989ZM503.336 485.528L502.915 486.5L497.809 489.014L494.92 483.177L500.16 480.598L501.08 480.911L503.336 485.528ZM497.601 498.773L493.845 500.663L490.962 494.807L496.816 491.934L498.795 495.954L497.601 498.773ZM458.097 482.072L462.117 480.093L465.003 485.94L459.156 488.859L457.326 485.124L458.097 482.072ZM495.906 489.984L490.009 492.853L487.126 486.996L492.983 484.114L495.906 489.984ZM492.333 477.957L497.333 479.658L493.983 481.307L492.333 477.957ZM488.149 493.794L482.285 496.73L479.403 490.873L485.256 488L488.149 493.794ZM471.673 494.636L477.527 491.763L480.403 497.607L474.556 500.493L471.673 494.636ZM472.656 501.42L466.799 504.302L463.923 498.459L469.78 495.576L472.656 501.42ZM481.34 499.51L484.212 505.363L478.369 508.239L475.486 502.383L481.34 499.51ZM478.49 488.933L475.607 483.077L481.463 480.194L484.336 486.047L478.49 488.933ZM476.59 489.86L470.726 492.796L467.843 486.94L473.697 484.067L476.59 489.86ZM466.92 484.996L464.047 479.143L469.894 476.257L472.777 482.114L466.92 484.996ZM465.957 487.826L468.843 493.673L462.986 496.556L460.114 490.703L465.957 487.826ZM464.906 505.243L459.053 508.115L456.177 502.272L462.024 499.386L464.906 505.243ZM465.837 507.132L468.719 512.989L462.873 515.875L459.99 510.019L465.837 507.132ZM467.736 506.206L473.593 503.323L476.466 509.176L470.622 512.052L467.736 506.206ZM477.406 511.069L480.279 516.923L474.432 519.809L471.549 513.952L477.406 511.069ZM481.219 518.816L484.102 524.673L480.309 526.539L477.229 525.491L475.362 521.699L481.219 518.816ZM479.296 510.139L485.153 507.256L488.035 513.113L482.142 515.972L479.296 510.139ZM483.233 498.57L489.046 495.683L491.932 501.53L486.076 504.413L483.233 498.57ZM492.09 482.214L486.243 485.1L483.36 479.244L488.6 476.664L489.52 476.977L492.09 482.214ZM482.43 477.354L480.781 474.003L485.78 475.705L482.43 477.354ZM480.53 478.281L474.683 481.167L471.8 475.31L477.041 472.731L477.961 473.044L480.53 478.281ZM474.211 471.768L470.86 473.417L469.221 470.07L474.211 471.768ZM466.391 469.107L468.971 474.347L463.114 477.23L460.61 472.127L460.871 471.1L465.458 468.834L466.391 469.107ZM462.651 467.834L461.566 468.369L461.771 467.535L462.651 467.834ZM459.812 475.292L461.224 478.16L458.785 479.361L459.812 475.292ZM456.017 490.346L456.552 488.219L457.291 489.72L455.967 490.329L456.017 490.346ZM455.332 493.048L458.217 491.619L461.1 497.476L455.247 500.349L454.086 497.99L455.332 493.048ZM453.233 501.348L453.298 501.158L453.364 501.293L453.243 501.352L453.233 501.348ZM450.825 510.917L452.555 504.03L454.284 503.179L457.167 509.036L451.313 511.908L450.825 510.917ZM449.524 516.053L449.784 515.025L450.347 514.748L451.284 516.651L449.524 516.053ZM452.247 513.822L458.093 510.935L460.976 516.792L457.183 518.659L454.104 517.611L452.247 513.822ZM460.013 519.622L461.916 518.685L462.853 520.588L460.013 519.622ZM465.673 521.548L463.806 517.755L469.663 514.872L472.536 520.726L468.73 522.599L465.673 521.548ZM471.573 523.556L473.476 522.619L474.413 524.522L471.573 523.556ZM484.892 528.088L483.132 527.489L485.035 526.552L485.312 527.115L484.892 528.088ZM487.004 523.228L486.002 523.712L483.116 517.866L488.972 514.983L489.823 516.712L487.004 523.228ZM491.009 513.98L490.941 514.18L490.882 514.059L491.029 513.987L491.009 513.98ZM492.304 510.995L489.935 512.153L487.049 506.306L492.906 503.423L494.331 506.318L492.304 510.995ZM495.432 503.77L494.773 502.429L496.284 501.694L495.432 503.77ZM501.614 489.505L499.933 493.396L498.726 490.944L501.607 489.525L501.614 489.505Z" fill="#E6E6E6"/>
<path d="M457.906 468.229L507.424 485.079C508.33 485.387 509.314 484.903 509.622 483.997L510.402 481.707C510.71 480.801 510.225 479.817 509.32 479.509L459.802 462.659C458.896 462.351 457.912 462.835 457.604 463.741L456.824 466.031C456.516 466.937 457.001 467.921 457.906 468.229Z" fill="#F0F0F0"/>
<path d="M488.503 528.224L446.595 513.963C445.689 513.655 444.705 514.14 444.397 515.045L443.618 517.335C443.309 518.241 443.794 519.225 444.7 519.533L486.608 533.794C487.513 534.102 488.498 533.618 488.806 532.712L489.585 530.422C489.893 529.516 489.409 528.532 488.503 528.224Z" fill="#F0F0F0"/>
<path opacity="0.2" d="M339.789 457.791L473.604 503.326C478.988 505.158 484.839 502.279 486.671 496.894L573.872 240.635C575.704 235.25 572.824 229.4 567.44 227.568L433.625 182.033C428.241 180.201 422.39 183.08 420.558 188.465L333.357 444.724C331.525 450.109 334.405 455.959 339.789 457.791Z" fill="#0D4B37"/>
<path d="M339.789 457.791L473.604 503.326C478.988 505.158 484.839 502.279 486.671 496.894L573.872 240.635C575.704 235.25 572.824 229.4 567.44 227.568L433.625 182.033C428.241 180.201 422.39 183.08 420.558 188.465L333.357 444.724C331.525 450.109 334.405 455.959 339.789 457.791Z" fill="#A0BEB5"/>
<path d="M333.281 455.576L467.096 501.111C472.48 502.943 478.331 500.064 480.163 494.679L567.364 238.42C569.196 233.035 566.316 227.185 560.932 225.353L427.118 179.818C421.733 177.985 415.883 180.865 414.05 186.25L326.85 442.509C325.017 447.894 327.897 453.744 333.281 455.576Z" fill="#125D45"/>
<path d="M419.701 187.571L332.32 444.36C332.13 444.812 332.039 445.298 332.053 445.788C332.068 446.277 332.188 446.758 332.405 447.197C332.622 447.636 332.93 448.023 333.31 448.332C333.69 448.641 334.132 448.864 334.606 448.988L470.36 495.183C472.31 495.846 473.668 494.969 474.328 493.029L561.91 235.65C562.482 233.97 562.16 232.522 560.48 231.95L526.542 220.401C526.087 220.224 525.588 220.19 525.113 220.306C524.638 220.422 524.211 220.682 523.889 221.05L521.349 223.89C521.024 224.249 520.596 224.5 520.124 224.611C519.652 224.721 519.158 224.685 518.707 224.508L460.919 204.844C460.45 204.701 460.036 204.418 459.733 204.033C459.429 203.649 459.25 203.181 459.219 202.692L458.932 198.912C458.897 198.428 458.714 197.966 458.406 197.589C458.099 197.213 457.683 196.941 457.215 196.811L423.766 185.429C423.36 185.278 422.926 185.214 422.493 185.242C422.06 185.27 421.638 185.389 421.255 185.592C420.871 185.794 420.535 186.075 420.267 186.416C419.999 186.757 419.806 187.15 419.701 187.571Z" fill="#263238"/>
<path opacity="0.6" d="M494.464 211.75C495.546 212.119 496.722 211.54 497.091 210.457C497.459 209.375 496.88 208.199 495.798 207.831C494.715 207.462 493.539 208.041 493.171 209.123C492.802 210.206 493.381 211.382 494.464 211.75Z" fill="white"/>
<path opacity="0.6" d="M489.198 207.772C489.113 208.022 489.104 208.291 489.173 208.546C489.241 208.801 489.383 209.029 489.582 209.203C489.78 209.376 490.026 209.487 490.287 209.521C490.549 209.555 490.814 209.51 491.051 209.393C491.287 209.275 491.483 209.091 491.613 208.862C491.744 208.633 491.804 208.37 491.786 208.107C491.767 207.844 491.671 207.593 491.509 207.384C491.347 207.176 491.127 207.021 490.877 206.938C490.712 206.882 490.537 206.859 490.363 206.87C490.19 206.882 490.02 206.928 489.864 207.006C489.708 207.083 489.568 207.191 489.454 207.322C489.34 207.454 489.253 207.607 489.198 207.772Z" fill="white"/>
<path opacity="0.6" d="M409.465 462.021L407.846 466.781L400.336 464.225L401.956 459.466L409.465 462.021ZM410.154 460.325L402.444 457.702C402.012 457.555 401.539 457.585 401.129 457.787C400.72 457.988 400.407 458.345 400.26 458.777L398.558 463.777C398.411 464.209 398.442 464.682 398.643 465.092C398.845 465.501 399.201 465.814 399.634 465.961L407.343 468.585C407.776 468.732 408.249 468.701 408.658 468.5C409.068 468.298 409.381 467.942 409.528 467.509L411.229 462.51C411.376 462.077 411.346 461.604 411.144 461.195C410.942 460.785 410.586 460.472 410.154 460.325Z" fill="white"/>
<path opacity="0.6" d="M544.655 235.178L542.885 234.576L542.085 236.926L543.855 237.528L544.655 235.178Z" fill="white"/>
<path opacity="0.6" d="M547.795 235.378L546.025 234.776L544.957 237.916L546.727 238.518L547.795 235.378Z" fill="white"/>
<path opacity="0.6" d="M550.936 235.565L549.166 234.963L547.829 238.892L549.599 239.495L550.936 235.565Z" fill="white"/>
<path opacity="0.6" d="M554.084 235.765L552.314 235.163L550.712 239.872L552.482 240.475L554.084 235.765Z" fill="white"/>
<path opacity="0.6" d="M433.1 198.891L434.15 199.249L434.95 196.899L433.9 196.541L433.1 198.891Z" fill="white"/>
<path opacity="0.6" d="M433.482 195.44L425.142 192.602L423.757 196.672L432.097 199.51L433.482 195.44Z" fill="white"/>
<path opacity="0.4" d="M557.03 249.979L414.916 201.62L337.579 428.891L479.694 477.25L557.03 249.979Z" fill="white"/>
<path d="M557.03 249.979L414.916 201.62L337.579 428.891L479.694 477.25L557.03 249.979Z" fill="#125D45"/>
<path d="M423.066 237.576C429.66 239.82 436.824 236.293 439.068 229.699C441.312 223.105 437.785 215.941 431.191 213.697C424.597 211.453 417.433 214.98 415.189 221.574C412.945 228.168 416.472 235.332 423.066 237.576Z" fill="#A0BEB5"/>
<path opacity="0.6" d="M465.284 233.831L448.285 228.046C447.954 227.934 447.649 227.757 447.387 227.527C447.125 227.296 446.911 227.016 446.758 226.703C446.604 226.389 446.514 226.048 446.492 225.7C446.471 225.352 446.518 225.002 446.632 224.673C446.859 224.007 447.34 223.458 447.971 223.148C448.602 222.837 449.33 222.79 449.996 223.017L466.995 228.801C467.661 229.028 468.209 229.509 468.52 230.14C468.83 230.771 468.878 231.5 468.651 232.165C468.54 232.496 468.365 232.802 468.135 233.065C467.906 233.328 467.626 233.543 467.313 233.698C467.001 233.852 466.66 233.944 466.312 233.967C465.964 233.99 465.614 233.943 465.284 233.831Z" fill="white"/>
<path opacity="0.6" d="M495.76 252.617L444.322 235.113C444.027 235.013 443.785 234.8 443.647 234.521C443.51 234.242 443.489 233.92 443.589 233.626C443.69 233.33 443.903 233.087 444.182 232.948C444.461 232.809 444.784 232.785 445.08 232.883L496.518 250.387C496.665 250.438 496.8 250.518 496.916 250.621C497.032 250.725 497.126 250.85 497.193 250.99C497.261 251.13 497.3 251.282 497.308 251.437C497.317 251.592 497.295 251.748 497.244 251.894C497.142 252.186 496.928 252.426 496.65 252.561C496.372 252.696 496.052 252.716 495.76 252.617Z" fill="white"/>
<path opacity="0.6" d="M478.265 253.436L442.267 241.186C441.973 241.083 441.731 240.868 441.594 240.587C441.458 240.307 441.438 239.984 441.538 239.689C441.588 239.543 441.666 239.408 441.767 239.293C441.869 239.177 441.992 239.082 442.13 239.014C442.268 238.946 442.419 238.906 442.572 238.896C442.726 238.886 442.88 238.907 443.026 238.956L479.024 251.206C479.17 251.256 479.305 251.333 479.42 251.435C479.536 251.537 479.631 251.66 479.699 251.798C479.767 251.936 479.807 252.086 479.817 252.24C479.827 252.394 479.806 252.548 479.757 252.694C479.708 252.841 479.631 252.977 479.529 253.094C479.428 253.211 479.304 253.307 479.166 253.376C479.027 253.445 478.876 253.485 478.722 253.496C478.567 253.506 478.412 253.486 478.265 253.436Z" fill="white"/>
<path opacity="0.6" d="M544.124 287.928L402.01 239.569L361.034 359.984L503.148 408.343L544.124 287.928Z" fill="white"/>
<path d="M461.472 363.804C461.915 362.512 462.852 361.447 464.078 360.844C465.303 360.24 466.718 360.147 468.013 360.585C468.486 360.749 468.934 360.98 469.341 361.271C469.438 360.75 469.572 360.236 469.741 359.734C470.676 356.996 472.659 354.741 475.254 353.463C477.85 352.185 480.846 351.99 483.586 352.919C484.227 353.136 484.846 353.414 485.435 353.749C487.016 352.397 488.997 351.602 491.073 351.484C493.15 351.366 495.208 351.933 496.932 353.097C498.656 354.261 499.95 355.958 500.617 357.928C501.283 359.899 501.285 362.033 500.622 364.005L500.772 364.056C502.979 364.807 504.797 366.403 505.826 368.495C506.855 370.586 507.012 373 506.261 375.207C505.51 377.413 503.914 379.231 501.822 380.26C499.731 381.29 497.317 381.446 495.11 380.695L464.552 370.297C463.293 369.83 462.266 368.89 461.69 367.677C461.115 366.464 461.037 365.074 461.472 363.804Z" fill="#F0F0F0"/>
<path d="M389.715 313.7C389.907 313.126 390.231 312.605 390.661 312.18C391.091 311.755 391.615 311.437 392.191 311.251C392.766 311.066 393.378 311.019 393.975 311.113C394.572 311.208 395.139 311.442 395.629 311.796C395.705 311.404 395.807 311.017 395.934 310.639C396.634 308.581 398.123 306.885 400.074 305.925C402.024 304.965 404.276 304.819 406.334 305.519C406.814 305.684 407.277 305.894 407.716 306.146C408.908 305.151 410.391 304.57 411.941 304.49C413.492 304.411 415.026 304.838 416.313 305.706C417.6 306.575 418.57 307.838 419.076 309.306C419.583 310.773 419.599 312.366 419.122 313.843L419.252 313.887C420.91 314.451 422.275 315.651 423.048 317.222C423.822 318.793 423.939 320.606 423.375 322.264C422.811 323.921 421.612 325.287 420.041 326.06C418.47 326.833 416.656 326.951 414.999 326.387L392 318.561C391.065 318.202 390.305 317.496 389.879 316.59C389.453 315.684 389.395 314.648 389.715 313.7Z" fill="#F0F0F0"/>
<path d="M462.886 300.966C463.066 300.435 463.45 299.998 463.953 299.751C464.455 299.503 465.036 299.466 465.566 299.646C465.759 299.713 465.941 299.805 466.109 299.92C466.168 299.714 466.237 299.51 466.316 299.31C466.699 298.186 467.513 297.259 468.578 296.735C469.644 296.21 470.874 296.131 471.999 296.513C472.261 296.6 472.515 296.712 472.755 296.849C473.405 296.3 474.217 295.978 475.066 295.933C475.916 295.887 476.757 296.12 477.462 296.596C478.168 297.072 478.698 297.765 478.974 298.57C479.249 299.375 479.254 300.248 478.988 301.056L479.058 301.08C479.916 301.425 480.609 302.085 480.995 302.925C481.38 303.765 481.429 304.721 481.131 305.596C480.834 306.471 480.212 307.198 479.394 307.629C478.576 308.059 477.624 308.16 476.734 307.91L464.145 303.626C463.63 303.433 463.211 303.048 462.976 302.551C462.741 302.054 462.708 301.486 462.886 300.966Z" fill="#F0F0F0"/>
<path d="M409.911 361.799C410.026 361.457 410.207 361.142 410.444 360.871C410.681 360.599 410.969 360.378 411.292 360.218C411.615 360.058 411.966 359.964 412.325 359.94C412.685 359.917 413.045 359.964 413.386 360.08C413.64 360.167 413.88 360.29 414.098 360.445C414.148 360.167 414.219 359.893 414.311 359.625C414.556 358.903 414.942 358.237 415.445 357.664C415.949 357.092 416.56 356.624 417.244 356.288C417.929 355.952 418.673 355.754 419.433 355.706C420.194 355.658 420.957 355.76 421.679 356.007C422.014 356.121 422.338 356.265 422.648 356.437C423.492 355.726 424.544 355.31 425.646 355.252C426.748 355.193 427.839 355.496 428.753 356.114C429.667 356.731 430.355 357.631 430.712 358.675C431.069 359.719 431.075 360.851 430.731 361.899L430.801 361.923C431.976 362.322 432.943 363.172 433.492 364.286C434.04 365.399 434.123 366.685 433.723 367.86C433.323 369.035 432.473 370.003 431.36 370.551C430.246 371.099 428.961 371.182 427.786 370.782L411.547 365.256C410.876 365.008 410.33 364.507 410.024 363.861C409.719 363.215 409.678 362.474 409.911 361.799Z" fill="#F0F0F0"/>
<path d="M498.374 327.879L399.436 330.809L399.612 336.849C399.612 336.849 415.92 344.34 431.819 343.848L506.341 341.647C508.593 341.588 514.349 339.753 514.223 337.535C514.043 334.26 506.798 332.632 506.798 332.632C506.798 332.632 503.652 327.712 498.374 327.879Z" fill="#263238"/>
<path d="M404.526 336.002L394.043 321.199C393.773 320.823 393.416 320.519 393.001 320.313C392.586 320.108 392.128 320.008 391.665 320.022L389.818 320.074C389.727 320.075 389.637 320.099 389.557 320.141C389.476 320.184 389.407 320.245 389.355 320.32C389.302 320.394 389.268 320.48 389.255 320.57C389.241 320.66 389.25 320.752 389.278 320.839L394.136 335.222L391.439 335.309C391.292 335.306 391.146 335.335 391.01 335.393C390.875 335.45 390.752 335.535 390.652 335.643C390.551 335.751 390.474 335.878 390.425 336.017C390.377 336.156 390.358 336.304 390.37 336.451C390.368 336.598 390.396 336.745 390.454 336.88C390.511 337.016 390.597 337.138 390.704 337.239C390.812 337.34 390.939 337.417 391.079 337.465C391.218 337.514 391.366 337.532 391.512 337.52L403.977 337.154L404.526 336.002Z" fill="#263238"/>
<path d="M471.52 334.295L431.616 288.996C431.345 288.683 431.007 288.435 430.627 288.269C430.247 288.103 429.835 288.024 429.421 288.037L424.981 288.166C424.834 288.17 424.691 288.21 424.563 288.282C424.434 288.353 424.326 288.455 424.245 288.578C424.165 288.701 424.116 288.841 424.102 288.988C424.088 289.134 424.11 289.281 424.165 289.417L442.687 333.745L471.52 334.295Z" fill="#263238"/>
<path d="M450.263 345.038L472.941 344.365L462.994 369.465C462.728 370.133 462.273 370.708 461.685 371.12C461.097 371.533 460.401 371.764 459.683 371.786L457.057 371.863C456.815 371.868 456.579 371.79 456.387 371.642C456.196 371.493 456.062 371.284 456.007 371.048L450.263 345.038Z" fill="#263238"/>
<path opacity="0.6" d="M382.19 388.047L365.191 382.263C364.86 382.15 364.555 381.974 364.293 381.743C364.031 381.512 363.817 381.232 363.664 380.919C363.51 380.605 363.42 380.265 363.399 379.916C363.377 379.568 363.425 379.219 363.538 378.889C363.765 378.223 364.246 377.674 364.877 377.364C365.508 377.053 366.237 377.006 366.902 377.233L383.902 383.017C384.232 383.128 384.538 383.304 384.801 383.533C385.064 383.763 385.279 384.042 385.434 384.355C385.589 384.668 385.68 385.008 385.703 385.357C385.726 385.705 385.68 386.054 385.567 386.385C385.34 387.053 384.856 387.604 384.223 387.915C383.59 388.227 382.858 388.275 382.19 388.047Z" fill="white"/>
<path opacity="0.6" d="M481.125 430.128L361.22 389.326C360.926 389.226 360.683 389.013 360.546 388.734C360.409 388.455 360.388 388.133 360.488 387.838C360.588 387.543 360.801 387.299 361.081 387.16C361.36 387.021 361.683 386.998 361.979 387.096L481.874 427.894C482.168 427.997 482.41 428.213 482.547 428.493C482.683 428.774 482.703 429.097 482.603 429.392C482.503 429.685 482.292 429.926 482.015 430.064C481.739 430.202 481.419 430.224 481.125 430.128Z" fill="white"/>
<path opacity="0.6" d="M463.414 431.597L358.939 396.046C358.644 395.942 358.403 395.727 358.266 395.447C358.13 395.166 358.109 394.843 358.21 394.548C358.31 394.254 358.523 394.011 358.802 393.874C359.081 393.736 359.403 393.716 359.698 393.816L464.173 429.367C464.469 429.467 464.712 429.681 464.851 429.96C464.99 430.239 465.013 430.562 464.916 430.858C464.814 431.155 464.6 431.4 464.318 431.538C464.037 431.677 463.712 431.698 463.414 431.597Z" fill="white"/>
<path opacity="0.6" d="M365.654 405.818L356.654 402.755C356.366 402.654 356.129 402.445 355.992 402.171C355.856 401.898 355.832 401.582 355.925 401.291C356.026 400.996 356.239 400.752 356.518 400.613C356.797 400.474 357.12 400.451 357.416 400.549L366.416 403.611C366.705 403.718 366.941 403.934 367.073 404.213C367.206 404.491 367.224 404.81 367.125 405.102C367.019 405.388 366.807 405.622 366.533 405.755C366.259 405.888 365.944 405.911 365.654 405.818Z" fill="white"/>
<path opacity="0.6" d="M467.514 447.976L354.369 409.475C354.074 409.372 353.832 409.157 353.696 408.876C353.559 408.596 353.539 408.273 353.64 407.977C353.74 407.683 353.953 407.44 354.232 407.303C354.511 407.166 354.833 407.145 355.127 407.245L468.273 445.747C468.567 445.847 468.809 446.06 468.947 446.339C469.084 446.618 469.105 446.94 469.005 447.234C468.904 447.53 468.691 447.773 468.412 447.912C468.133 448.051 467.81 448.074 467.514 447.976Z" fill="white"/>
<path opacity="0.6" d="M402.661 433.396L352.083 416.185C351.788 416.085 351.546 415.872 351.409 415.593C351.271 415.314 351.25 414.992 351.351 414.697C351.451 414.403 351.664 414.16 351.943 414.023C352.222 413.886 352.544 413.865 352.838 413.965L403.406 431.172C403.701 431.272 403.943 431.485 404.08 431.764C404.218 432.043 404.239 432.366 404.138 432.66C404.039 432.953 403.828 433.194 403.551 433.332C403.274 433.47 402.954 433.493 402.661 433.396Z" fill="white"/>
<path d="M485.47 292.863L445.712 279.334C444.845 279.039 444.045 278.576 443.357 277.972C442.669 277.368 442.107 276.634 441.703 275.813C441.298 274.991 441.06 274.098 441.001 273.185C440.941 272.271 441.063 271.355 441.358 270.488C441.956 268.74 443.222 267.299 444.881 266.483C446.539 265.667 448.453 265.542 450.203 266.134L489.961 279.663C491.71 280.261 493.15 281.528 493.966 283.186C494.783 284.844 494.908 286.758 494.315 288.509C493.72 290.259 492.453 291.701 490.794 292.518C489.135 293.334 487.22 293.458 485.47 292.863Z" fill="#0D4B37"/>
<path d="M454.067 276.63C453.989 276.882 453.85 277.111 453.662 277.296C453.48 277.467 453.261 277.595 453.021 277.669C452.772 277.743 452.512 277.775 452.253 277.764C451.961 277.746 451.672 277.69 451.395 277.595L448.255 276.527L450.47 270.017L453.95 271.201C454.167 271.272 454.363 271.396 454.519 271.562C454.666 271.716 454.779 271.899 454.85 272.099C454.929 272.3 454.97 272.515 454.97 272.731C454.974 272.947 454.943 273.163 454.875 273.368C454.771 273.682 454.584 273.962 454.333 274.177C454.081 274.403 453.76 274.538 453.422 274.558C453.742 274.774 453.984 275.087 454.111 275.451C454.225 275.838 454.209 276.252 454.067 276.63ZM451.343 271.519L450.785 273.159L452.465 273.731C452.566 273.769 452.673 273.785 452.781 273.779C452.888 273.774 452.993 273.746 453.09 273.698C453.193 273.645 453.284 273.571 453.357 273.48C453.43 273.39 453.484 273.285 453.514 273.173C453.597 272.958 453.598 272.72 453.518 272.505C453.476 272.413 453.416 272.331 453.341 272.263C453.266 272.195 453.178 272.144 453.083 272.111L451.343 271.519ZM452.848 275.948C452.887 275.835 452.905 275.716 452.901 275.597C452.901 275.483 452.879 275.369 452.836 275.263C452.794 275.163 452.735 275.071 452.661 274.991C452.585 274.911 452.49 274.851 452.385 274.819L450.445 274.159L449.863 275.869L451.733 276.505C451.845 276.545 451.964 276.563 452.083 276.558C452.196 276.553 452.306 276.521 452.404 276.466C452.504 276.413 452.593 276.341 452.666 276.254C452.76 276.174 452.833 276.072 452.878 275.958L452.848 275.948Z" fill="white"/>
<path d="M457.25 279.633C456.798 279.488 456.386 279.241 456.045 278.911C455.724 278.605 455.47 278.238 455.297 277.83C455.123 277.426 455.028 276.992 455.017 276.553C454.994 276.112 455.056 275.671 455.203 275.254C455.346 274.829 455.57 274.435 455.865 274.096C456.156 273.759 456.505 273.478 456.895 273.264C457.282 273.058 457.704 272.929 458.14 272.884C458.6 272.838 459.065 272.894 459.502 273.047C459.95 273.191 460.359 273.437 460.697 273.766C461.009 274.084 461.26 274.457 461.438 274.866C461.6 275.274 461.695 275.705 461.717 276.143C461.735 276.58 461.674 277.017 461.536 277.432C461.394 277.858 461.169 278.251 460.874 278.59C460.59 278.907 460.251 279.169 459.873 279.365C459.487 279.571 459.064 279.7 458.628 279.745C458.166 279.81 457.695 279.771 457.25 279.633ZM456.483 275.69C456.385 275.968 456.335 276.26 456.334 276.554C456.327 276.832 456.373 277.109 456.469 277.37C456.557 277.629 456.701 277.865 456.892 278.061C457.105 278.266 457.361 278.421 457.641 278.517C457.921 278.612 458.218 278.644 458.512 278.612C458.782 278.563 459.041 278.461 459.272 278.313C459.507 278.159 459.713 277.965 459.88 277.739C460.048 277.507 460.18 277.251 460.272 276.98C460.369 276.705 460.418 276.416 460.418 276.125C460.423 275.843 460.374 275.561 460.276 275.296C460.183 275.042 460.038 274.81 459.85 274.615C459.646 274.41 459.396 274.256 459.121 274.167C458.837 274.067 458.534 274.037 458.236 274.077C457.966 274.118 457.708 274.216 457.48 274.367C457.247 274.524 457.042 274.718 456.871 274.941C456.705 275.17 456.574 275.422 456.483 275.69Z" fill="white"/>
<path d="M464.171 281.987C463.723 281.844 463.314 281.598 462.977 281.268C462.656 280.963 462.402 280.596 462.229 280.188C462.052 279.783 461.953 279.349 461.939 278.907C461.921 278.467 461.983 278.027 462.124 277.609C462.266 277.182 462.495 276.788 462.796 276.454C463.084 276.117 463.43 275.834 463.817 275.619C464.205 275.417 464.627 275.288 465.062 275.239C465.522 275.193 465.987 275.248 466.424 275.401C466.872 275.546 467.281 275.792 467.618 276.12C468.073 276.593 468.392 277.181 468.539 277.821C468.687 278.46 468.659 279.128 468.458 279.753C468.316 280.179 468.091 280.572 467.796 280.911C467.512 281.228 467.173 281.49 466.795 281.686C466.409 281.893 465.986 282.022 465.55 282.066C465.09 282.14 464.62 282.113 464.171 281.987ZM463.414 278.048C463.319 278.325 463.266 278.615 463.255 278.909C463.252 279.188 463.301 279.466 463.401 279.728C463.485 279.988 463.63 280.225 463.824 280.419C464.035 280.623 464.289 280.778 464.568 280.873C464.846 280.967 465.142 280.999 465.434 280.966C465.707 280.919 465.969 280.819 466.204 280.671C466.436 280.515 466.639 280.32 466.802 280.093C466.977 279.865 467.113 279.61 467.204 279.337C467.295 279.062 467.344 278.774 467.35 278.483C467.35 278.201 467.302 277.92 467.208 277.654C467.114 277.397 466.965 277.163 466.771 276.97C466.569 276.763 466.319 276.609 466.043 276.521C465.762 276.423 465.462 276.394 465.168 276.435C464.896 276.478 464.635 276.575 464.401 276.721C464.169 276.876 463.966 277.072 463.803 277.299C463.637 277.528 463.506 277.78 463.414 278.048Z" fill="white"/>
<path d="M468.341 283.34L470.553 276.84L471.873 277.289L470.822 280.379L474.606 278.208L475.996 278.681L472.523 280.724L473.931 285.242L472.461 284.741L471.421 281.241L470.295 281.829L469.614 283.829L468.341 283.34Z" fill="white"/>
<path d="M479.357 285.874L478.986 286.964L474.466 285.425L476.681 278.916L481.111 280.423L480.734 281.533L477.564 280.454L477.029 282.024L479.769 282.957L479.429 283.957L476.689 283.024L476.111 284.724L479.357 285.874Z" fill="white"/>
<path d="M479.974 287.3L482.189 280.791L484.549 281.594C485.031 281.748 485.477 281.999 485.86 282.33C486.186 282.615 486.447 282.966 486.626 283.36C486.795 283.739 486.883 284.149 486.885 284.564C486.89 285.014 486.817 285.461 486.67 285.886C486.519 286.348 486.285 286.778 485.981 287.157C485.712 287.495 485.374 287.769 484.988 287.962C484.603 288.154 484.18 288.26 483.749 288.272C483.273 288.295 482.796 288.224 482.347 288.063L479.974 287.3ZM485.376 285.49C485.48 285.2 485.535 284.894 485.539 284.586C485.549 284.314 485.5 284.042 485.397 283.79C485.295 283.542 485.137 283.321 484.937 283.143C484.715 282.944 484.455 282.794 484.171 282.704L483.071 282.329L481.612 286.619L482.712 286.993C482.996 287.094 483.299 287.132 483.599 287.106C483.866 287.081 484.123 286.997 484.352 286.86C484.588 286.718 484.793 286.529 484.954 286.306C485.134 286.065 485.274 285.796 485.37 285.51L485.376 285.49Z" fill="white"/>
<path d="M274.641 512.609C381.719 549.046 470.247 573.516 472.375 567.265C474.502 561.013 389.423 526.407 282.345 489.97C175.267 453.534 86.7382 429.064 84.6109 435.315C82.4835 441.567 167.563 476.173 274.641 512.609Z" fill="#A6B2B2"/>
<path d="M321.284 197.418L302.484 191.021C282.426 184.196 260.633 194.923 253.807 214.981L238.526 259.889C231.7 279.948 242.428 301.741 262.486 308.567L281.285 314.964C301.343 321.789 323.136 311.062 329.962 291.004L345.243 246.096C352.069 226.037 341.342 204.244 321.284 197.418Z" fill="#AFD7D2"/>
<path opacity="0.8" d="M321.284 197.418L302.484 191.021C282.426 184.196 260.633 194.923 253.807 214.981L238.526 259.889C231.7 279.948 242.428 301.741 262.486 308.567L281.285 314.964C301.343 321.789 323.136 311.062 329.962 291.004L345.243 246.096C352.069 226.037 341.342 204.244 321.284 197.418Z" fill="#125D45"/>
<path d="M322.608 205.366L301.039 198.027C284.631 192.444 266.804 201.219 261.22 217.626L246.014 262.314C240.431 278.722 249.206 296.549 265.613 302.133L287.182 309.472C303.59 315.055 321.417 306.28 327 289.873L342.207 245.185C347.79 228.777 339.015 210.95 322.608 205.366Z" fill="#AFD7D2"/>
<path opacity="0.3" d="M342.209 245.185L326.989 289.913C324.308 297.792 318.606 304.283 311.139 307.959C303.672 311.635 295.05 312.193 287.171 309.512L265.602 302.173C257.722 299.491 251.229 293.79 247.552 286.322C243.874 278.854 243.314 270.232 245.992 262.351L261.213 217.623C263.894 209.744 269.595 203.252 277.063 199.577C284.53 195.901 293.152 195.342 301.031 198.023L322.6 205.363C326.503 206.69 330.106 208.772 333.204 211.491C336.301 214.211 338.833 217.514 340.654 221.212C342.475 224.91 343.55 228.93 343.816 233.043C344.083 237.157 343.537 241.282 342.209 245.185Z" fill="#125D45"/>
<path d="M340.177 251.145L336.389 262.274L302.491 250.739C301.189 250.342 299.981 249.688 298.937 248.815C297.893 247.943 297.036 246.869 296.415 245.658C295.795 244.447 295.424 243.124 295.325 241.767C295.226 240.41 295.401 239.047 295.84 237.759C296.278 236.471 296.971 235.284 297.877 234.269C298.783 233.254 299.884 232.432 301.114 231.851C302.344 231.269 303.679 230.942 305.038 230.886C306.398 230.831 307.754 231.05 309.027 231.53L309.197 231.588C309.998 229.338 311.509 227.41 313.502 226.095C315.495 224.779 317.861 224.148 320.244 224.295C322.628 224.442 324.898 225.36 326.714 226.911C328.53 228.462 329.792 230.561 330.31 232.892C331.081 233.006 331.84 233.19 332.578 233.44C335.739 234.516 338.343 236.804 339.818 239.8C341.293 242.796 341.517 246.255 340.441 249.416C340.242 249.994 340.001 250.557 339.723 251.102L340.177 251.145Z" fill="#F0F0F0"/>
<path d="M280.323 280.606C279.824 282.068 278.775 283.278 277.399 283.98C276.023 284.682 274.428 284.821 272.951 284.368L244.423 274.66C244.112 270.494 244.645 266.307 245.989 262.351L251.403 246.442C252.861 245.977 254.399 245.823 255.92 245.988C257.441 246.152 258.911 246.633 260.235 247.399C261.56 248.165 262.71 249.199 263.611 250.435C264.513 251.671 265.147 253.081 265.471 254.576C266.243 254.687 267.003 254.868 267.743 255.115C270.904 256.194 273.508 258.483 274.982 261.481C276.455 264.478 276.679 267.938 275.603 271.1C275.408 271.676 275.172 272.237 274.898 272.779C275.473 272.804 276.041 272.911 276.586 273.097C278.075 273.601 279.304 274.674 280.004 276.081C280.704 277.488 280.819 279.115 280.323 280.606Z" fill="#F0F0F0"/>
<path d="M134.825 428.38L164.597 435.353L178.375 394.865L189.794 398.751L176.02 439.229L203.983 451.913C205.322 452.524 206.386 453.61 206.97 454.961C207.553 456.312 207.614 457.831 207.14 459.225L205.67 463.544L126.374 436.561L127.844 432.241C128.32 430.845 129.298 429.677 130.589 428.963C131.88 428.249 133.39 428.041 134.825 428.38Z" fill="#263238"/>
<path opacity="0.2" d="M134.825 428.38L164.597 435.353L178.375 394.865L189.794 398.751L176.02 439.229L203.983 451.913C205.322 452.524 206.386 453.61 206.97 454.961C207.553 456.312 207.614 457.831 207.14 459.225L205.67 463.544L126.374 436.561L127.844 432.241C128.32 430.845 129.298 429.677 130.589 428.963C131.88 428.249 133.39 428.041 134.825 428.38Z" fill="white"/>
<path d="M198.232 475.339C202.357 476.743 206.839 474.537 208.243 470.411C209.647 466.286 207.441 461.804 203.315 460.4C199.19 458.996 194.708 461.202 193.304 465.328C191.9 469.453 194.106 473.936 198.232 475.339Z" fill="#263238"/>
<path d="M125.052 450.438C129.177 451.842 133.66 449.636 135.063 445.511C136.467 441.385 134.261 436.903 130.136 435.499C126.01 434.095 121.528 436.302 120.124 440.427C118.72 444.552 120.926 449.035 125.052 450.438Z" fill="#263238"/>
<path d="M184.588 406.722L177.588 404.34C176.493 403.967 175.59 403.174 175.079 402.136C174.568 401.098 174.491 399.9 174.863 398.805L185.728 366.876L201.037 372.085L190.183 403.984C190 404.535 189.709 405.043 189.328 405.48C188.946 405.917 188.481 406.273 187.96 406.528C187.439 406.783 186.872 406.931 186.293 406.964C185.714 406.998 185.134 406.915 184.588 406.722Z" fill="#263238"/>
<path opacity="0.3" d="M184.588 406.722L177.588 404.34C176.493 403.967 175.59 403.174 175.079 402.136C174.568 401.098 174.491 399.9 174.863 398.805L185.728 366.876L201.037 372.085L190.183 403.984C190 404.535 189.709 405.043 189.328 405.48C188.946 405.917 188.481 406.273 187.96 406.528C187.439 406.783 186.872 406.931 186.293 406.964C185.714 406.998 185.134 406.915 184.588 406.722Z" fill="white"/>
<path d="M217.867 270.075C208.626 297.792 192.206 355.322 207.92 374.393L152.663 355.59C151.688 355.258 150.819 354.673 150.144 353.894C149.47 353.116 149.015 352.172 148.825 351.16C146.886 340.827 143.389 307.001 164.837 251.449C166.356 247.525 169.335 244.341 173.148 242.563C176.962 240.785 181.316 240.551 185.298 241.91L207.638 249.512C211.712 250.895 215.073 253.833 216.99 257.686C218.906 261.538 219.222 265.991 217.867 270.075Z" fill="#263238"/>
<path d="M223.869 272.117C214.627 299.833 198.208 357.364 213.922 376.435L155.595 356.587C155.595 356.587 144.713 321.152 170.821 253.541C172.341 249.617 175.319 246.433 179.133 244.655C182.947 242.877 187.301 242.643 191.283 244.002L213.622 251.604C217.688 252.984 221.045 255.912 222.963 259.753C224.882 263.594 225.208 268.037 223.869 272.117Z" fill="#263238"/>
<path opacity="0.3" d="M223.869 272.117C214.627 299.833 198.208 357.364 213.922 376.435L155.595 356.587C155.595 356.587 144.713 321.152 170.821 253.541C172.341 249.617 175.319 246.433 179.133 244.655C182.947 242.877 187.301 242.643 191.283 244.002L213.622 251.604C217.688 252.984 221.045 255.912 222.963 259.753C224.882 263.594 225.208 268.037 223.869 272.117Z" fill="white"/>
<path d="M163.439 350.834L230.436 373.632C231.762 374.083 232.855 375.043 233.473 376.299C234.092 377.556 234.186 379.007 233.735 380.333L231.458 387.023L154.462 360.822L156.738 354.132C157.189 352.806 158.149 351.714 159.405 351.095C160.662 350.477 162.113 350.383 163.439 350.834Z" fill="#263238"/>
<path d="M234.607 381.568L155.301 354.581C154.191 354.203 152.985 354.797 152.607 355.907L151.988 357.727C151.61 358.837 152.204 360.043 153.314 360.421L232.62 387.407C233.73 387.785 234.936 387.191 235.314 386.081L235.933 384.261C236.311 383.151 235.717 381.945 234.607 381.568Z" fill="#263238"/>
<path opacity="0.6" d="M234.607 381.568L155.301 354.581C154.191 354.203 152.985 354.797 152.607 355.907L151.988 357.727C151.61 358.837 152.204 360.043 153.314 360.421L232.62 387.407C233.73 387.785 234.936 387.191 235.314 386.081L235.933 384.261C236.311 383.151 235.717 381.945 234.607 381.568Z" fill="white"/>
<path d="M228.968 485.789L235.088 487.871L298.24 338.384L290.111 335.618L228.968 485.789Z" fill="#263238"/>
<path opacity="0.4" d="M228.956 485.786L235.086 487.872L295.109 345.81L298.157 338.624L290.027 335.858L287.079 343.078L228.956 485.786Z" fill="white"/>
<path opacity="0.2" d="M287.206 342.708L295.235 345.44L298.157 338.624L290.028 335.858L287.206 342.708Z" fill="black"/>
<path d="M260.223 452.207L253.511 449.176C253.511 449.176 252.926 424.174 251.567 401.508C250.452 383.277 248.87 366.482 246.671 365.633C245.69 365.382 244.682 365.26 243.67 365.27C230.025 364.677 178.427 368.04 170.902 352.414C162.566 335.072 191.645 310.112 191.645 310.112C191.645 310.112 223.824 316.175 223.776 323.89C223.65 326.126 223.377 328.352 222.96 330.552C222.588 332.791 222.223 334.653 222.223 334.653C223.254 334.736 256.768 337.27 266.121 349.591C275.633 362.133 260.223 452.207 260.223 452.207Z" fill="#E4897B"/>
<path d="M266.969 467.591C266.122 466.792 265.138 466.151 264.065 465.699C264.065 465.699 261.024 462.176 260.221 452.207L255.991 450.768C255.272 450.534 254.498 450.525 253.773 450.743C253.049 450.961 252.409 451.396 251.938 451.989C251.804 452.154 251.696 452.34 251.618 452.538C251.327 453.561 251.097 454.6 250.927 455.65C250.396 459.241 250.084 462.861 249.994 466.49L250.775 466.555L251.622 459.803C251.914 457.503 253.469 460.342 253.771 462.866C254.073 465.39 254.944 468.108 259.988 468.63C265.877 469.195 268.335 469.15 266.969 467.591Z" fill="#2E353A"/>
<path d="M260.225 449.675C260.225 449.675 261.752 462.535 264.067 465.699C264.067 465.699 259.157 466.751 256.758 459.865C253.65 450.997 251.62 452.538 251.62 452.538C252.145 451.369 252.776 450.25 253.504 449.196C255.1 447.195 260.225 449.675 260.225 449.675Z" fill="#E4897B"/>
<path d="M199.777 474.126C199.148 473.151 198.345 472.299 197.408 471.613C197.408 471.613 195.293 467.468 196.878 457.597L193.108 455.199C192.467 454.799 191.718 454.606 190.964 454.647C190.209 454.687 189.485 454.96 188.891 455.426C188.724 455.556 188.575 455.708 188.447 455.878C187.911 456.8 187.433 457.756 187.017 458.738C185.661 462.091 184.512 465.523 183.576 469.015L184.316 469.267L186.74 462.895C187.575 460.736 188.398 463.861 188.108 466.384C187.818 468.908 187.998 471.758 192.774 473.461C198.343 475.424 200.745 475.973 199.777 474.126Z" fill="#2E353A"/>
<path d="M197.489 455.126C197.489 455.126 195.916 467.98 197.453 471.627C197.453 471.627 192.44 471.472 191.73 464.246C190.81 454.884 188.502 455.862 188.502 455.862C189.289 454.851 190.165 453.913 191.119 453.059C193.099 451.501 197.489 455.126 197.489 455.126Z" fill="#E4897B"/>
<path opacity="0.1" d="M197.489 455.126C197.489 455.126 195.916 467.98 197.453 471.627C197.453 471.627 192.44 471.472 191.73 464.246C190.81 454.884 188.502 455.862 188.502 455.862C189.289 454.851 190.165 453.913 191.119 453.059C193.099 451.501 197.489 455.126 197.489 455.126Z" fill="black"/>
<path opacity="0.2" d="M251.579 401.488C250.464 383.257 248.882 366.462 246.682 365.613C245.702 365.362 244.693 365.24 243.682 365.25L245.014 361.631C250.535 364.036 254.979 368.388 257.5 373.857C260.201 379.987 255.12 393.477 251.579 401.488Z" fill="black"/>
<path d="M191.884 363.033C191.884 363.033 227.905 371.218 230.466 375.593C233.147 380.176 221.708 383.692 191.079 453.045L196.882 457.597C196.882 457.597 249.283 389.315 252.521 378.981C255.759 368.646 245.03 361.648 245.03 361.648C245.03 361.648 217.593 367.095 191.884 363.033Z" fill="#E4897B"/>
<path opacity="0.1" d="M252.517 378.981C249.279 389.315 196.878 457.597 196.878 457.597L191.074 453.045C221.703 383.692 233.142 380.176 230.462 375.593C229.884 374.604 227.556 373.41 224.32 372.164C217.275 369.636 210.102 367.482 202.829 365.71C196.673 364.128 191.88 363.033 191.88 363.033C195.13 363.548 198.411 363.906 201.67 364.133C216.161 365.03 230.708 364.197 245.002 361.651C245.002 361.651 255.754 368.646 252.517 378.981Z" fill="black"/>
<path opacity="0.2" d="M245.002 361.651C244.383 361.898 231.899 366.877 224.32 372.164C217.275 369.636 210.101 367.482 202.829 365.71L201.666 364.143C216.159 365.037 230.707 364.201 245.002 361.651Z" fill="black"/>
<path d="M245.674 338.684L213.254 379.2C213.254 379.2 173.366 364.511 168.209 353.73C163.053 342.948 170.409 330.411 179.778 323.011C189.147 315.611 220.611 324.332 220.611 324.332L224.36 334.857C224.36 334.857 236.495 335.56 245.674 338.684Z" fill="#263238"/>
<path opacity="0.1" d="M245.674 338.684L213.254 379.2C213.254 379.2 173.366 364.511 168.209 353.73C163.053 342.948 170.409 330.411 179.778 323.011C189.147 315.611 220.611 324.332 220.611 324.332L222.781 330.548L224.218 334.585L224.31 334.84C224.31 334.84 236.495 335.56 245.674 338.684Z" fill="#125D45"/>
<path d="M223.779 323.89L224.315 334.84L214.345 333.679L211.164 326.861L196.514 333.848L171.056 326.524L191.601 310.084L195.972 293.307L200.805 274.545L204.838 258.891C204.838 258.891 219.25 258.049 229.642 262.199C240.034 266.349 247.995 270.564 247.995 270.564C249.192 288.589 223.779 323.89 223.779 323.89Z" fill="#598E7D"/>
<path opacity="0.3" d="M224.225 334.585L203.005 332.285C203.005 332.285 214.622 330.213 222.787 330.548L224.225 334.585Z" fill="black"/>
<path opacity="0.2" d="M223.779 323.89L224.315 334.84L214.345 333.679L211.164 326.861L196.514 333.848L171.056 326.524L191.601 310.084L195.972 293.307L200.805 274.545L204.838 258.891C204.838 258.891 219.25 258.049 229.642 262.199C240.034 266.349 247.995 270.564 247.995 270.564C249.192 288.589 223.779 323.89 223.779 323.89Z" fill="#7A9B8B"/>
<path d="M180.732 244.808C180.75 244.931 180.742 245.055 180.707 245.174C180.672 245.293 180.611 245.403 180.53 245.496C180.448 245.589 180.347 245.664 180.234 245.714C180.121 245.764 179.998 245.79 179.874 245.788L170.224 245.851C169.955 245.849 169.696 245.75 169.495 245.573C169.293 245.396 169.161 245.152 169.124 244.886L166.805 225.865C166.785 225.736 166.792 225.603 166.826 225.477C166.86 225.35 166.919 225.231 167 225.128C167.081 225.025 167.182 224.94 167.297 224.877C167.413 224.815 167.539 224.777 167.67 224.765L177.32 224.702C177.6 224.735 177.861 224.862 178.06 225.061C178.259 225.26 178.386 225.521 178.419 225.801L180.732 244.808Z" fill="#263238"/>
<path opacity="0.5" d="M177.35 225.66L179.731 244.892C179.761 245.004 179.764 245.122 179.739 245.235C179.714 245.349 179.662 245.454 179.588 245.544C179.514 245.633 179.42 245.704 179.313 245.749C179.206 245.795 179.09 245.814 178.974 245.806L170.793 245.878C170.246 245.881 169.232 245.581 169.168 245.046L166.807 225.755C166.747 225.21 167.678 224.768 168.256 224.775L176.437 224.703C176.68 224.722 176.908 224.831 177.076 225.007C177.244 225.184 177.342 225.417 177.35 225.66Z" fill="white"/>
<path d="M171.956 262.53L170.097 248.877C170.097 248.877 177.313 241.212 176.489 239.504C175.665 237.795 175.776 232.845 173.568 231.693C171.361 230.54 164.616 240.328 164.303 241.248C163.99 242.168 164.295 248.42 164.295 248.42L163.99 266.168L171.956 262.53Z" fill="#E4897B"/>
<path d="M261.87 265.523L255.904 268.793L254.014 263.296C254.014 263.296 252.921 264.575 251.984 264.346C251.047 264.116 244.453 265.13 243.828 263.657C243.633 262.912 243.582 262.138 243.678 261.374C243.815 259.734 244.046 258.103 244.37 256.489C244.37 256.489 255.661 254.261 256.462 255.482C256.551 255.613 256.677 255.834 256.838 256.112C258.193 258.492 261.87 265.523 261.87 265.523Z" fill="#E4897B"/>
<path d="M270.532 300.703C265.245 306.402 254.696 300.09 247.778 294.779C245.447 292.991 243.21 291.082 241.076 289.062L243.345 283.017L248.026 270.541L255.016 279.312L259.964 285.526L253.992 265.073L261.316 261.585C261.316 261.585 278.868 291.78 270.532 300.703Z" fill="#598E7D"/>
<path opacity="0.2" d="M256.838 256.112C255.208 258.904 251.51 262.723 243.678 261.374C243.815 259.734 244.046 258.103 244.37 256.489C244.37 256.489 255.661 254.261 256.462 255.482C256.551 255.613 256.677 255.834 256.838 256.112Z" fill="black"/>
<path opacity="0.2" d="M270.532 300.703C265.245 306.402 254.696 300.09 247.778 294.779C245.447 292.991 243.21 291.082 241.076 289.062L243.345 283.017L248.026 270.541L255.016 279.312L259.964 285.526L253.992 265.073L261.316 261.585C261.316 261.585 278.868 291.78 270.532 300.703Z" fill="#7A9B8B"/>
<path opacity="0.2" d="M247.774 294.779C245.443 292.991 243.206 291.082 241.072 289.062L243.341 283.017L246.957 278.948C246.957 278.948 248.943 287.311 247.774 294.779Z" fill="black"/>
<path opacity="0.2" d="M261.249 292.916C261.249 292.916 253.493 287.019 255.041 279.323L259.989 285.536L261.249 292.916Z" fill="black"/>
<path opacity="0.6" d="M210.116 293.993L214.056 295.334C214.492 295.482 214.966 295.249 215.114 294.813L217.646 287.373C217.794 286.937 217.561 286.463 217.125 286.314L213.185 284.973C212.749 284.825 212.275 285.058 212.126 285.495L209.595 292.934C209.446 293.371 209.679 293.845 210.116 293.993Z" fill="white"/>
<path opacity="0.2" d="M210.827 291.656L215.306 293.18L217.392 287.051L212.912 285.526L210.827 291.656Z" fill="black"/>
<path d="M216.476 283.661L215.486 283.324L214.258 286.934L215.248 287.271L216.476 283.661Z" fill="#263238"/>
<path opacity="0.2" d="M195.97 293.307L200.804 274.545L204.736 272.826C204.736 272.826 204.32 284.835 195.97 293.307Z" fill="black"/>
<path opacity="0.4" d="M218.33 263.448C218.33 263.448 220.631 295.081 218.051 305.517C218.051 305.517 233.961 284.041 237.09 271.828L218.33 263.448Z" fill="white"/>
<path opacity="0.6" d="M211.771 262.611C211.771 262.611 218.593 252.794 230.136 257.826C241.678 262.858 242.454 275.563 242.454 275.563L237.861 270.831L225.31 287.057L220.017 264.971L211.771 262.611Z" fill="#125D45"/>
<path d="M211.771 262.611C211.771 262.611 218.593 252.794 230.136 257.826C241.678 262.858 242.454 275.563 242.454 275.563L237.861 270.831L225.31 287.057L220.017 264.971L211.771 262.611Z" fill="#80B2A8"/>
<path d="M235.506 225.082C235.506 225.082 236.648 219.892 230.177 217.299C223.706 214.707 216.591 217.452 217.836 226.746C219.081 236.039 216.182 244.983 210.411 244.236C210.411 244.236 219.34 252.752 226.949 236.72L235.506 225.082Z" fill="#263238"/>
<path d="M254.045 228.835C254.045 228.835 250.457 219.213 235.705 223.711C220.953 228.208 224.128 249.338 233.548 251.986C242.968 254.633 254.045 228.835 254.045 228.835Z" fill="#263238"/>
<path d="M237.014 262.899C236.633 264.21 236.522 265.584 236.688 266.939L227.064 279.285L220.744 260.086C225.034 260.954 229.159 256.701 231.672 253.35C232.538 252.182 233.326 250.96 234.033 249.69L234.077 249.56L234.286 249.799L241.786 258.186C240.643 258.476 239.598 259.065 238.759 259.894C237.92 260.722 237.318 261.76 237.014 262.899Z" fill="#E4897B"/>
<path opacity="0.2" d="M241.825 258.2C240.672 258.476 239.614 259.057 238.762 259.882C237.91 260.707 237.296 261.746 236.982 262.889C235.435 261.797 234.152 260.373 233.228 258.72C232.304 257.068 231.761 255.229 231.641 253.339C232.506 252.172 233.295 250.95 234.002 249.68L234.292 249.779L241.825 258.2Z" fill="black"/>
<path d="M243.681 224.963C243.681 224.963 252.723 221.345 259.441 228.094C266.16 234.843 261.973 246.886 255.141 249.158C248.31 251.43 243.681 224.963 243.681 224.963Z" fill="#263238"/>
<path d="M247.768 229.154C256.534 231.199 258.261 236.551 256.797 245.738C254.968 257.21 250.593 264.658 240.192 259.68C226.062 252.941 233.202 225.759 247.768 229.154Z" fill="#E4897B"/>
<path d="M251.244 243.922C251.637 245.394 252.206 246.813 252.941 248.148C252.601 248.451 252.183 248.654 251.734 248.734C251.286 248.813 250.824 248.767 250.4 248.6L251.244 243.922Z" fill="#DE5753"/>
<path d="M246.045 241.952C245.891 242.669 245.373 243.174 244.893 243.077C244.412 242.981 244.139 242.308 244.287 241.577C244.436 240.846 244.95 240.352 245.43 240.448C245.91 240.545 246.194 241.221 246.045 241.952Z" fill="#263238"/>
<path d="M245.229 240.447L246.934 240.157C246.934 240.157 245.878 241.326 245.229 240.447Z" fill="#263238"/>
<path d="M255.078 243.675C254.93 244.406 254.412 244.91 253.935 244.804C253.458 244.697 253.182 244.034 253.327 243.314C253.472 242.593 253.993 242.079 254.48 242.189C254.967 242.298 255.223 242.955 255.078 243.675Z" fill="#263238"/>
<path d="M254.275 242.174L255.981 241.884C255.981 241.884 254.908 243.07 254.275 242.174Z" fill="#263238"/>
<path d="M247.372 235.874C246.698 235.63 245.977 235.542 245.265 235.619C244.552 235.696 243.867 235.934 243.26 236.316" stroke="#263238" stroke-width="0.72468" stroke-linecap="round" stroke-linejoin="round"/>
<path d="M253.828 236.99C254.462 236.98 255.091 237.112 255.667 237.378C256.243 237.643 256.751 238.035 257.155 238.524" stroke="#263238" stroke-width="0.72468" stroke-linecap="round" stroke-linejoin="round"/>
<path d="M234.733 241.688C234.733 241.688 240.517 235.445 241.188 229.737C241.188 229.737 260.219 226.696 256.962 244.533C256.962 244.533 262.314 229.261 247.327 225.4C232.34 221.538 227.252 243.606 233.503 251.992C233.503 251.992 231.145 245.611 234.733 241.688Z" fill="#263238"/>
<path d="M235.739 243.879C235.885 242.844 235.617 241.794 234.994 240.955C234.371 240.117 233.443 239.557 232.41 239.399C229.623 239.064 227.025 244.339 233.473 247.258C234.403 247.675 235.173 246.855 235.739 243.879Z" fill="#E4897B"/>
<path d="M250.382 252.297C249.708 253.16 249.1 254.072 248.561 255.025L248.011 254.838C245.549 253.911 244.711 252.666 244.541 251.56C244.461 251.022 244.514 250.473 244.695 249.96C244.785 249.668 244.917 249.389 245.087 249.135C246.356 250.384 247.876 251.35 249.546 251.968C250.052 252.185 250.382 252.297 250.382 252.297Z" fill="#263238"/>
<path d="M249.522 251.961L248.963 252.753C246.644 251.863 245.12 250.932 244.671 249.954C244.762 249.661 244.894 249.383 245.064 249.128C246.333 250.377 247.852 251.343 249.522 251.961Z" fill="white"/>
<path d="M248.011 254.838C245.548 253.91 244.711 252.666 244.541 251.559C245.465 251.939 246.317 252.474 247.06 253.142C247.547 253.593 247.879 254.187 248.011 254.838Z" fill="#DE5753"/>
<path d="M258.932 241.886C258.932 241.886 257.293 240.569 253.405 240.619C252.945 240.288 252.422 240.055 251.868 239.934C251.315 239.813 250.742 239.806 250.186 239.914C248.001 239.181 245.699 238.863 243.398 238.976L235.91 239.24L235.665 239.96L243.017 240.52C243.012 242.371 243.658 245.425 246.098 245.73C249.309 246.131 250.227 242.94 250.497 241.392C251.389 240.87 252.636 241.172 252.683 241.823C252.49 243.208 252.299 246.491 255.54 247.393C258.782 248.295 258.932 241.886 258.932 241.886Z" fill="#407BFF"/>
<path opacity="0.2" d="M258.932 241.886C258.932 241.886 257.293 240.569 253.405 240.619C252.945 240.288 252.422 240.055 251.868 239.934C251.315 239.813 250.742 239.806 250.186 239.914C248.001 239.181 245.699 238.863 243.398 238.976L235.91 239.24L235.665 239.96L243.017 240.52C243.012 242.371 243.658 245.425 246.098 245.73C249.309 246.131 250.227 242.94 250.497 241.392C251.389 240.87 252.636 241.172 252.683 241.823C252.49 243.208 252.299 246.491 255.54 247.393C258.782 248.295 258.932 241.886 258.932 241.886Z" fill="black"/>
<g opacity="0.3">
<path d="M257.654 241.918L254.646 246.395C254.646 246.395 256.308 247.675 257.322 246.335C258.039 245.077 258.466 243.675 258.574 242.231C258.288 242.073 257.977 241.967 257.654 241.918Z" fill="white"/>
<path d="M257.236 241.732L254.205 246.279C254.205 246.279 253.454 245.733 253.552 245.41L256.099 241.534C256.099 241.534 256.916 241.656 257.236 241.732Z" fill="white"/>
<path d="M248.755 240.252L245.748 244.729C245.748 244.729 247.413 245.999 248.437 244.663C249.147 243.405 249.569 242.006 249.675 240.565C249.39 240.407 249.078 240.301 248.755 240.252Z" fill="white"/>
<path d="M248.346 240.056L245.324 244.607C245.324 244.607 244.563 244.057 244.662 243.734L247.208 239.858C247.208 239.858 248.026 239.981 248.346 240.056Z" fill="white"/>
</g>
<path d="M247.579 228.721C247.579 228.721 246.37 238.832 238.359 240.602" stroke="#263238" stroke-width="0.5" stroke-linecap="round" stroke-linejoin="round"/>
<path d="M204.85 258.861C200.87 258.098 180.349 278.629 177.446 277.652C174.543 276.676 171.976 254.38 171.976 254.38L162.561 257.391C162.561 257.391 161.088 291.232 171.757 293.256C183.288 295.439 201.402 281.553 201.402 281.553C203.191 277.769 204.544 273.794 205.434 269.703C206.093 266.093 205.893 262.379 204.85 258.861Z" fill="#598E7D"/>
<path d="M247.427 229.773C247.427 229.773 240.564 243.382 231.483 241.084C222.402 238.786 236.209 225.688 240.72 223.775C242.803 222.9 249.036 222.845 247.427 229.773Z" fill="#263238"/>
<path opacity="0.2" d="M204.85 258.861C200.87 258.098 180.349 278.629 177.446 277.652C174.543 276.676 171.976 254.38 171.976 254.38L162.561 257.391C162.561 257.391 161.088 291.232 171.757 293.256C183.288 295.439 201.402 281.553 201.402 281.553C203.191 277.769 204.544 273.794 205.434 269.703C206.093 266.093 205.893 262.379 204.85 258.861Z" fill="#7A9B8B"/>
<path d="M363.638 301.983L342.799 294.892L331.665 327.61L352.504 334.701L363.638 301.983Z" fill="white"/>
<path opacity="0.2" d="M363.638 301.983L342.799 294.892L331.665 327.61L352.504 334.701L363.638 301.983Z" fill="black"/>
<path d="M358.091 300.094L337.252 293.003L326.118 325.722L346.957 332.813L358.091 300.094Z" fill="white"/>
<path opacity="0.1" d="M358.091 300.094L337.252 293.003L326.118 325.722L346.957 332.813L358.091 300.094Z" fill="black"/>
<path d="M364.623 304.26L349.818 347.769L320.939 337.942L331.97 305.523L350.733 299.534L364.623 304.26Z" fill="#263238"/>
<path opacity="0.2" d="M364.623 304.26L355.853 301.276L341.048 344.784L349.818 347.768L364.623 304.26Z" fill="black"/>
<path opacity="0.4" d="M361.399 310.784L354.869 308.562L353.831 311.612L360.361 313.834L361.399 310.784Z" fill="white"/>
<path opacity="0.4" d="M359.703 315.783L353.174 313.562L349.815 323.431L356.345 325.653L359.703 315.783Z" fill="white"/>
<path opacity="0.4" d="M355.43 328.333L348.9 326.111L348.029 328.671L354.559 330.893L355.43 328.333Z" fill="white"/>
<path d="M348.982 295.879L328.142 288.788L317.009 321.506L337.848 328.597L348.982 295.879Z" fill="white"/>
<path opacity="0.2" d="M348.982 295.879L328.142 288.788L317.009 321.506L337.848 328.597L348.982 295.879Z" fill="black"/>
<path d="M343.427 293.99L322.588 286.899L311.454 319.618L332.293 326.709L343.427 293.99Z" fill="white"/>
<path opacity="0.1" d="M343.427 293.99L322.588 286.899L311.454 319.618L332.293 326.709L343.427 293.99Z" fill="black"/>
<path d="M349.623 299.156L334.818 342.665L305.939 332.838L316.97 300.419L335.733 294.43L349.623 299.156Z" fill="#125D45"/>
<path opacity="0.2" d="M349.623 299.156L340.853 296.172L326.048 339.68L334.818 342.664L349.623 299.156Z" fill="black"/>
<path opacity="0.4" d="M346.407 305.68L339.877 303.458L338.839 306.508L345.369 308.73L346.407 305.68Z" fill="white"/>
<path opacity="0.4" d="M344.703 310.679L338.174 308.458L334.815 318.327L341.345 320.549L344.703 310.679Z" fill="white"/>
<path opacity="0.4" d="M340.43 323.229L333.9 321.007L333.029 323.567L339.559 325.789L340.43 323.229Z" fill="white"/>
<path d="M232.007 486.824L238.127 488.906L291.28 336.016L283.15 333.25L232.007 486.824Z" fill="#263238"/>
<path opacity="0.5" d="M283.064 333.486L274.809 358.27L232.003 486.82L238.133 488.906L282.619 360.927L291.194 336.253L283.064 333.486Z" fill="white"/>
<path opacity="0.2" d="M283.064 333.486L274.718 358.54L282.527 361.197L291.194 336.253L283.064 333.486Z" fill="black"/>
<path d="M166.976 464.692L173.096 466.775L236.248 317.288L228.119 314.521L166.976 464.692Z" fill="#263238"/>
<path opacity="0.5" d="M166.964 464.689L173.094 466.775L233.117 324.713L236.164 317.528L228.035 314.761L225.087 321.981L166.964 464.689Z" fill="white"/>
<path opacity="0.2" d="M225.214 321.611L233.243 324.344L236.165 317.528L228.035 314.761L225.214 321.611Z" fill="black"/>
<path d="M299.048 509.635L305.178 511.721L348.311 355.422L340.181 352.655L299.048 509.635Z" fill="#263238"/>
<path opacity="0.5" d="M340.096 352.895L338.128 360.449L299.044 509.635L305.164 511.718L346.157 363.181L348.225 355.662L340.096 352.895Z" fill="white"/>
<path opacity="0.2" d="M348.225 355.662L340.096 352.895L338.254 360.079L346.283 362.811L348.225 355.662Z" fill="black"/>
<path d="M351.287 360.718L222.533 316.905C222.249 316.808 221.987 316.657 221.762 316.459C221.537 316.261 221.353 316.021 221.221 315.752C221.088 315.484 221.01 315.191 220.991 314.892C220.971 314.593 221.011 314.294 221.108 314.01L222.969 308.54L356.043 353.823L354.168 359.333C353.965 359.895 353.55 360.355 353.011 360.614C352.472 360.873 351.853 360.911 351.287 360.718Z" fill="#80B2A8"/>
<path opacity="0.6" d="M351.287 360.718L222.533 316.905C222.249 316.808 221.987 316.657 221.762 316.459C221.537 316.261 221.353 316.021 221.221 315.752C221.088 315.484 221.01 315.191 220.991 314.892C220.971 314.593 221.011 314.294 221.108 314.01L222.969 308.54L356.043 353.823L354.168 359.333C353.965 359.895 353.55 360.355 353.011 360.614C352.472 360.873 351.853 360.911 351.287 360.718Z" fill="white"/>
<path opacity="0.2" d="M221.677 312.33L354.752 357.613L356.058 353.773L222.984 308.49L221.677 312.33Z" fill="black"/>
<path d="M218.84 308.197L359.514 356.066C359.798 356.162 360.098 356.202 360.397 356.183C360.696 356.163 360.988 356.085 361.257 355.953C361.526 355.821 361.766 355.637 361.963 355.412C362.161 355.187 362.313 354.925 362.409 354.641C362.506 354.357 362.545 354.058 362.526 353.759C362.507 353.46 362.429 353.167 362.296 352.898C362.164 352.63 361.98 352.39 361.755 352.192C361.53 351.994 361.268 351.843 360.984 351.746L220.31 303.877C220.026 303.781 219.727 303.741 219.428 303.76C219.129 303.78 218.836 303.858 218.568 303.99C218.299 304.122 218.059 304.306 217.861 304.531C217.663 304.756 217.512 305.018 217.415 305.302C217.319 305.586 217.279 305.886 217.298 306.185C217.318 306.484 217.396 306.776 217.528 307.045C217.66 307.313 217.844 307.553 218.07 307.751C218.295 307.949 218.556 308.1 218.84 308.197Z" fill="#80B2A8"/>
<path opacity="0.6" d="M218.84 308.197L359.514 356.066C359.798 356.162 360.098 356.202 360.397 356.183C360.696 356.163 360.988 356.085 361.257 355.953C361.526 355.821 361.766 355.637 361.963 355.412C362.161 355.187 362.313 354.925 362.409 354.641C362.506 354.357 362.545 354.058 362.526 353.759C362.507 353.46 362.429 353.167 362.296 352.898C362.164 352.63 361.98 352.39 361.755 352.192C361.53 351.994 361.268 351.843 360.984 351.746L220.31 303.877C220.026 303.781 219.727 303.741 219.428 303.76C219.129 303.78 218.836 303.858 218.568 303.99C218.299 304.122 218.059 304.306 217.861 304.531C217.663 304.756 217.512 305.018 217.415 305.302C217.319 305.586 217.279 305.886 217.298 306.185C217.318 306.484 217.396 306.776 217.528 307.045C217.66 307.313 217.844 307.553 218.07 307.751C218.295 307.949 218.556 308.1 218.84 308.197Z" fill="white"/>
<path d="M320.522 333.459L319.621 336.109C319.352 336.899 317.801 336.997 317.011 336.728L255.224 315.702C254.434 315.434 253.355 314.442 253.623 313.652L254.525 311.002L320.522 333.459Z" fill="#263238"/>
<path opacity="0.6" d="M320.522 333.459L319.621 336.109C319.352 336.899 317.801 336.997 317.011 336.728L255.224 315.702C254.434 315.434 253.355 314.442 253.623 313.652L254.525 311.002L320.522 333.459Z" fill="white"/>
<path opacity="0.2" d="M320.523 333.46L319.622 336.109C319.353 336.899 317.802 336.997 317.012 336.728L276.264 322.862C275.464 322.59 274.355 321.587 274.623 320.797L275.525 318.147L320.523 333.46Z" fill="black"/>
<path d="M341.504 304.293L322.712 335.254C322.4 335.757 321.932 336.144 321.381 336.359C320.829 336.574 320.222 336.603 319.652 336.444L279.504 322.782C279.255 322.67 279.034 322.504 278.857 322.296C278.68 322.089 278.552 321.845 278.48 321.582C278.409 321.318 278.396 321.043 278.444 320.774C278.492 320.505 278.598 320.251 278.756 320.028L297.375 289.411C297.705 288.97 298.173 288.655 298.705 288.516C299.237 288.377 299.8 288.422 300.303 288.644L340.481 302.316C341.601 302.697 342.112 303.295 341.504 304.293Z" fill="#263238"/>
<path opacity="0.6" d="M341.504 304.293L322.712 335.254C322.4 335.757 321.932 336.144 321.381 336.359C320.829 336.574 320.222 336.603 319.652 336.444L279.504 322.782C279.255 322.67 279.034 322.504 278.857 322.296C278.68 322.089 278.552 321.845 278.48 321.582C278.409 321.318 278.396 321.043 278.444 320.774C278.492 320.505 278.598 320.251 278.756 320.028L297.375 289.411C297.705 288.97 298.173 288.655 298.705 288.516C299.237 288.377 299.8 288.422 300.303 288.644L340.481 302.316C341.601 302.697 342.112 303.295 341.504 304.293Z" fill="white"/>
<path opacity="0.4" d="M341.507 304.293L322.715 335.254C322.403 335.756 321.935 336.144 321.383 336.359C320.831 336.573 320.225 336.603 319.655 336.444L280.876 323.248C280.626 323.137 280.404 322.972 280.226 322.764C280.047 322.557 279.917 322.313 279.845 322.049C279.772 321.785 279.759 321.509 279.807 321.239C279.854 320.97 279.961 320.714 280.119 320.491L298.748 289.877C299.07 289.422 299.539 289.091 300.075 288.941C300.612 288.79 301.184 288.829 301.696 289.05L340.504 302.256C341.604 302.697 342.115 303.295 341.507 304.293Z" fill="white"/>
<path opacity="0.2" d="M310.563 317.708C312.433 318.344 315.034 316.998 316.368 314.685C317.701 312.371 317.255 309.977 315.375 309.337C315.03 309.228 314.669 309.181 314.307 309.197C313.833 310.022 313.171 310.724 312.375 311.246C311.579 311.768 310.672 312.095 309.726 312.201C309.699 312.266 309.676 312.333 309.658 312.401C308.237 314.674 308.683 317.068 310.563 317.708Z" fill="black"/>
<path d="M160.122 358.396C159.591 358.215 159.154 357.831 158.907 357.329C158.66 356.826 158.622 356.246 158.802 355.715C166.987 333.039 179.507 320.708 184.118 316.732C184.339 316.543 184.598 316.403 184.876 316.318C185.155 316.234 185.448 316.209 185.737 316.243C186.026 316.278 186.304 316.371 186.555 316.518C186.806 316.666 187.024 316.863 187.195 317.098L188.384 318.719L187.136 317.011L187.205 317.102C187.521 317.527 187.666 318.055 187.611 318.582C187.555 319.109 187.304 319.596 186.907 319.946C182.715 323.607 170.609 335.543 162.795 357.13C162.604 357.649 162.217 358.072 161.717 358.309C161.217 358.545 160.644 358.577 160.122 358.396Z" fill="#263238"/>
<g opacity="0.2">
<path d="M160.122 358.396C159.591 358.215 159.154 357.831 158.907 357.329C158.66 356.826 158.622 356.246 158.802 355.715C166.987 333.039 179.507 320.708 184.118 316.732C184.339 316.543 184.598 316.403 184.876 316.318C185.155 316.234 185.448 316.209 185.737 316.243C186.026 316.278 186.304 316.371 186.555 316.518C186.806 316.666 187.024 316.863 187.195 317.098L188.384 318.719L187.136 317.011L187.205 317.102C187.521 317.527 187.666 318.055 187.611 318.582C187.555 319.109 187.304 319.596 186.907 319.946C182.715 323.607 170.609 335.543 162.795 357.13C162.604 357.649 162.217 358.072 161.717 358.309C161.217 358.545 160.644 358.577 160.122 358.396Z" fill="white"/>
</g>
<path d="M199.902 324.86L144.515 306.013C144.082 305.866 143.682 305.634 143.339 305.332C142.996 305.03 142.715 304.664 142.514 304.253C142.313 303.842 142.194 303.396 142.166 302.94C142.137 302.483 142.199 302.026 142.348 301.594C142.494 301.16 142.724 300.76 143.025 300.416C143.326 300.072 143.692 299.79 144.101 299.587C144.511 299.385 144.957 299.265 145.414 299.235C145.87 299.205 146.328 299.266 146.76 299.413L202.148 318.261C202.581 318.408 202.981 318.639 203.324 318.941C203.667 319.243 203.948 319.61 204.149 320.021C204.35 320.431 204.468 320.877 204.497 321.334C204.525 321.79 204.464 322.248 204.315 322.68C204.169 323.113 203.939 323.514 203.638 323.858C203.337 324.202 202.971 324.484 202.561 324.686C202.151 324.889 201.705 325.008 201.249 325.038C200.793 325.068 200.335 325.008 199.902 324.86Z" fill="#263238"/>
<path opacity="0.6" d="M199.902 324.86L144.515 306.013C144.082 305.866 143.682 305.634 143.339 305.332C142.996 305.03 142.715 304.664 142.514 304.253C142.313 303.842 142.194 303.396 142.166 302.94C142.137 302.483 142.199 302.026 142.348 301.594C142.494 301.16 142.724 300.76 143.025 300.416C143.326 300.072 143.692 299.79 144.101 299.587C144.511 299.385 144.957 299.265 145.414 299.235C145.87 299.205 146.328 299.266 146.76 299.413L202.148 318.261C202.581 318.408 202.981 318.639 203.324 318.941C203.667 319.243 203.948 319.61 204.149 320.021C204.35 320.431 204.468 320.877 204.497 321.334C204.525 321.79 204.464 322.248 204.315 322.68C204.169 323.113 203.939 323.514 203.638 323.858C203.337 324.202 202.971 324.484 202.561 324.686C202.151 324.889 201.705 325.008 201.249 325.038C200.793 325.068 200.335 325.008 199.902 324.86Z" fill="white"/>
</g>
</g>
<defs>
<clipPath id="clip0_6834_61591">
<rect width="528.133" height="528.133" fill="white" transform="translate(170.135) rotate(18.7926)"/>
</clipPath>
</defs>
</svg>
