<svg width="605" height="532" viewBox="0 0 605 532" fill="none" xmlns="http://www.w3.org/2000/svg">
<g opacity="0.3" clip-path="url(#clip0_6834_61537)">
<path d="M203.454 164.904L194.991 168.252L197.808 178.177L207.23 174.449L203.454 164.904Z" fill="#ED9DA0"/>
<path d="M195.312 150.83C190.247 152.434 187.442 157.839 189.046 162.903C190.649 167.967 196.055 170.771 201.119 169.167C206.184 167.563 208.989 162.158 207.385 157.094C205.782 152.03 200.376 149.226 195.312 150.83Z" fill="#ED9DA0"/>
<path d="M189.894 147.857C189.822 147.779 189.728 147.725 189.625 147.701C189.522 147.677 189.415 147.684 189.316 147.722C193.434 146.141 198.01 145.232 202.256 146.431C203.264 146.79 204.299 147.064 205.352 147.25C205.402 147.256 205.45 147.274 205.491 147.304C205.531 147.333 205.563 147.373 205.584 147.419C205.605 147.465 205.614 147.515 205.609 147.565C205.605 147.615 205.587 147.663 205.559 147.705L205.482 147.816C205.452 147.861 205.434 147.913 205.43 147.966C205.427 148.02 205.439 148.074 205.464 148.121C205.49 148.169 205.528 148.209 205.574 148.236C205.621 148.263 205.674 148.277 205.728 148.276C205.784 148.275 205.838 148.291 205.886 148.32C205.933 148.35 205.971 148.392 205.995 148.442C206.019 148.493 206.028 148.549 206.021 148.604C206.015 148.659 205.992 148.712 205.957 148.755L205.338 149.505C205.307 149.542 205.286 149.587 205.277 149.635C205.267 149.683 205.27 149.732 205.285 149.779C205.3 149.825 205.326 149.867 205.361 149.901C205.396 149.935 205.439 149.959 205.486 149.972C205.565 149.992 205.645 150.005 205.726 150.011C205.776 150.014 205.825 150.03 205.867 150.056C205.91 150.083 205.944 150.121 205.968 150.165C205.992 150.209 206.004 150.258 206.003 150.309C206.002 150.359 205.988 150.408 205.962 150.451C205.72 150.858 205.581 151.319 205.557 151.792C205.551 152.552 205.66 153.309 205.883 154.036C205.284 153.08 203.953 152.826 202.859 153.104C201.79 153.47 200.78 153.992 199.864 154.654C197.762 155.929 195.426 156.769 192.993 157.125C194.277 158.452 194.21 160.542 194.06 162.383L191.609 162.142C188.114 161.405 192.423 167.83 193.837 168.451C191.818 169.951 183.139 163.121 183.998 159.215C184.445 157.184 183.04 155.191 184.472 152.942C185.111 151.633 187.156 151.478 187.865 150.334C188.144 149.884 187.281 149.189 187.747 148.83C188.438 148.454 189.156 148.128 189.894 147.857Z" fill="#2F2E41"/>
<path d="M207.628 168.742L210.884 171.18L225.123 170.789L236.334 202.111L236.517 205.822L238.504 208.171L237.762 210.962C240.196 211.684 241.18 213.189 241.054 215.294L236.243 219.12C236.243 219.12 207.48 236.183 207.783 230.317C208.113 223.907 201.623 208.552 191.672 203.453C183.223 199.124 182.968 188.376 182.968 188.376L193.505 178.81L196.743 173.957L207.628 168.742Z" fill="#125D45"/>
<path d="M162.277 218.269C162.811 218.622 163.417 218.854 164.051 218.948C164.685 219.043 165.332 218.997 165.946 218.814C166.561 218.631 167.128 218.316 167.607 217.891C168.087 217.465 168.467 216.94 168.722 216.352L184.267 217.502L180.321 210.429L166.164 210.421C165.147 210.059 164.033 210.084 163.032 210.489C162.032 210.894 161.214 211.652 160.735 212.619C160.256 213.586 160.149 214.696 160.433 215.737C160.717 216.778 161.373 217.679 162.277 218.269L162.277 218.269Z" fill="#ED9DA0"/>
<path d="M192.212 180.457C194.005 188.285 197.827 206.739 195.338 212.174C195.194 212.548 194.968 212.885 194.677 213.16C181.817 223.681 172.818 216.869 172.818 216.869C172.818 216.869 175.809 213.099 174.127 209.336L183.166 208.006L182.63 189.287L183.189 187.863L183.192 187.854L192.212 180.457Z" fill="#125D45"/>
<path d="M283.359 321.663C286.871 320.769 290.446 319.669 293.236 317.364C293.679 317.009 294.095 316.441 293.846 315.957C293.737 315.788 293.591 315.647 293.419 315.543C291.497 314.211 289.72 312.681 288.116 310.979C288.042 310.886 287.94 310.82 287.826 310.791C287.707 310.794 287.592 310.839 287.503 310.918C286.18 311.891 285.282 313.349 283.976 314.338C283.31 314.839 282.552 315.206 281.746 315.419C281.051 315.606 279.923 315.417 279.349 315.726C280.563 317.792 282.213 319.517 283.359 321.663Z" fill="#6C63FF"/>
<path d="M344.354 291.076C345.959 288.692 347.614 286.202 347.991 283.353C348.029 283.178 348.019 282.995 347.963 282.825C347.875 282.669 347.749 282.538 347.597 282.445C345.579 280.965 343.303 279.875 340.886 279.23C340.183 280.304 339.624 281.466 339.222 282.686C338.898 283.489 337.734 285.024 338.073 285.921C338.272 286.425 339.087 286.779 339.528 287.094C340.111 287.493 340.679 287.91 341.236 288.342C341.534 288.545 344.488 290.897 344.354 291.076Z" fill="#6C63FF"/>
<path d="M299.134 323.229C299.379 323.732 299.441 324.306 299.309 324.85C299.168 325.179 298.945 325.468 298.662 325.689C294.652 329.211 288.417 329.264 284.407 332.757C283.584 333.474 282.867 334.322 282.035 335.025C281.023 335.824 279.922 336.502 278.754 337.046C277.167 337.854 275.549 338.611 273.913 339.31C272.692 339.896 271.386 340.285 270.044 340.462C269.371 340.547 268.687 340.489 268.038 340.293C267.389 340.096 266.788 339.765 266.276 339.321C265.824 338.921 265.544 338.361 265.494 337.759C265.495 337.546 265.531 337.335 265.602 337.134C265.778 336.654 266.03 336.206 266.348 335.807L267.629 334.018C268.209 333.13 268.901 332.319 269.688 331.606C270.281 331.116 270.963 330.735 271.58 330.275C273.716 328.614 274.803 325.969 275.789 323.451L277.14 320.031C277.25 319.67 277.44 319.339 277.695 319.06C277.976 318.824 278.308 318.655 278.665 318.566C281.001 317.829 283.486 317.696 285.887 318.18C286.521 318.353 287.173 318.455 287.829 318.484C289.412 318.476 291.012 317.377 292.009 316.201C292.482 315.641 292.277 315.512 292.303 314.837C292.33 314.162 292.797 313.552 293.538 313.865C293.771 313.983 293.972 314.155 294.122 314.369C295.284 315.833 295.801 317.698 296.491 319.442C296.584 319.72 296.726 319.979 296.911 320.208C297.143 320.42 297.396 320.609 297.664 320.773C297.725 320.82 297.782 320.871 297.836 320.926C298.45 321.576 298.896 322.366 299.137 323.227L299.134 323.229Z" fill="#514E7F"/>
<path d="M299.133 323.228C299.377 323.732 299.439 324.305 299.308 324.849C299.166 325.179 298.943 325.467 298.66 325.688C294.65 329.21 288.416 329.264 284.406 332.756C283.582 333.473 282.866 334.322 282.033 335.024C281.022 335.823 279.92 336.502 278.752 337.045C277.165 337.854 275.547 338.611 273.912 339.31C272.691 339.895 271.385 340.284 270.042 340.461C269.369 340.546 268.686 340.489 268.036 340.292C267.387 340.096 266.787 339.765 266.274 339.321C265.821 338.921 265.54 338.363 265.489 337.762C265.489 337.548 265.526 337.337 265.597 337.136C266.094 337.598 266.588 338.277 266.871 338.479C267.262 338.79 267.715 339.015 268.2 339.137C268.684 339.26 269.19 339.277 269.682 339.189C270.38 338.961 271.03 338.603 271.596 338.134C275.415 335.409 279.91 333.615 283.35 330.418C284.528 329.316 285.57 328.059 286.905 327.146C288.24 326.233 289.833 325.708 291.296 324.983C293.61 323.846 295.638 322.21 297.842 320.901C298.454 321.559 298.896 322.357 299.129 323.226L299.133 323.228Z" fill="#464353"/>
<path d="M354.941 286.536C355.421 288.398 354.901 290.37 354.179 292.154C353.457 293.939 352.521 295.655 352.128 297.536C351.651 299.864 352.013 302.372 351.06 304.557C350.681 305.364 350.194 306.115 349.612 306.791C348.982 307.601 348.27 308.346 347.489 309.012C345.437 310.692 342.839 311.522 340.313 312.311C339.513 312.619 338.663 312.779 337.806 312.784C337.4 312.746 336.998 312.676 336.603 312.573C335.838 312.437 335.115 312.124 334.492 311.659C334.174 311.398 333.966 311.026 333.911 310.618C333.89 310.154 333.985 309.691 334.189 309.273C334.514 308.48 334.896 307.712 335.331 306.973C335.975 306.075 336.484 305.088 336.844 304.043C337.01 303.264 337.042 302.463 336.939 301.674C336.798 300.275 336.504 298.896 336.063 297.561C335.717 296.695 335.464 295.794 335.309 294.874C335.156 293.396 335.674 291.816 335.018 290.484C334.895 290.305 334.831 290.092 334.834 289.874C334.894 289.682 335.018 289.516 335.185 289.404C335.834 288.792 336.571 288.282 337.373 287.891C337.776 287.698 338.217 287.597 338.664 287.595C339.111 287.594 339.552 287.691 339.957 287.881C340.463 288.158 340.925 288.663 341.492 288.623C341.769 288.592 342.035 288.499 342.27 288.35C343.46 287.733 344.709 287.058 345.37 285.871C345.662 285.287 345.829 284.649 345.862 283.997C345.895 283.345 345.793 282.694 345.562 282.083C345.381 281.625 344.985 281.228 345.667 280.876C346.174 280.594 346.824 281.001 347.236 281.246C348.74 282.173 350.292 283.15 351.294 284.607C351.416 284.495 351.556 284.406 351.709 284.344C352.022 284.216 352.362 284.167 352.698 284.199C353.035 284.231 353.359 284.345 353.642 284.529C354.301 285.02 354.762 285.731 354.942 286.533L354.941 286.536Z" fill="#514E7F"/>
<path d="M354.937 286.537C355.417 288.399 354.896 290.37 354.175 292.155C353.453 293.939 352.517 295.655 352.124 297.536C351.646 299.864 352.009 302.372 351.055 304.557C350.676 305.364 350.189 306.116 349.608 306.791C348.977 307.602 348.266 308.346 347.484 309.012C345.432 310.693 342.835 311.523 340.308 312.312C339.508 312.62 338.659 312.78 337.802 312.785C337.396 312.747 336.993 312.676 336.598 312.573C335.833 312.438 335.11 312.125 334.488 311.659C334.87 311.245 335.337 310.917 335.857 310.698C336.968 310.326 338.173 311.041 339.341 310.945C341.006 310.806 342.073 309.171 343.438 308.217C344.329 307.595 345.387 307.248 346.228 306.53C346.915 305.896 347.484 305.145 347.91 304.313C348.552 303.32 349.045 302.238 349.374 301.102C349.588 300.011 349.686 298.899 349.665 297.787C349.726 295.616 349.953 293.452 350.344 291.316C350.395 290.982 350.487 290.656 350.619 290.344C350.784 290.045 350.968 289.757 351.169 289.48C351.877 288.322 351.798 286.899 351.664 285.53C351.611 285.119 351.601 284.703 351.633 284.289C351.946 284.162 352.286 284.113 352.622 284.145C352.959 284.177 353.283 284.29 353.566 284.475C354.263 284.968 354.751 285.703 354.937 286.537Z" fill="#464353"/>
<path d="M240.854 238.386C242.516 240.642 242.603 243.674 242.804 246.481C243.107 250.707 243.829 254.892 244.961 258.976C245.304 259.992 245.493 261.055 245.521 262.128C245.481 263.117 245.127 264.079 245.01 265.052C244.654 267.629 245.701 270.188 246.912 272.495C247.711 274.015 248.594 275.496 249.53 276.932C250.674 278.689 251.944 280.498 252.121 282.581C252.977 282.004 254.095 282.966 254.409 283.944C254.723 284.922 254.839 286.106 255.623 286.746C256.95 286.711 257.588 288.3 258.043 289.548C258.91 291.681 260.023 293.706 261.362 295.579C266.453 303.319 271.642 310.993 276.93 318.6C281.711 318.235 287.231 317.643 290.569 314.206C290.91 313.919 291.179 313.556 291.355 313.147C291.531 312.738 291.609 312.293 291.583 311.848C291.454 311.391 291.223 310.968 290.908 310.612L286.211 304.368C285.074 302.861 283.911 301.297 283.47 299.46C283.144 298.091 283.156 296.471 282.069 295.578C281.697 295.271 281.232 295.099 280.833 294.826C279.24 293.748 278.988 291.563 278.361 289.742C278.234 289.328 278.047 288.934 277.806 288.574C277.486 288.169 277.118 287.803 276.711 287.486C273.897 285.026 271.769 281.88 270.533 278.353C270.419 277.887 270.18 277.459 269.842 277.117C269.652 276.996 269.472 276.861 269.302 276.713C269.099 276.419 269.002 276.065 269.027 275.708C268.276 275.499 267.554 275.197 266.876 274.81C267.087 274.526 267.231 274.197 267.296 273.849C267.361 273.501 267.346 273.143 267.253 272.802C267.159 272.46 266.989 272.145 266.756 271.878C266.522 271.612 266.231 271.403 265.905 271.266C266.094 271.143 266.245 270.97 266.342 270.767C266.439 270.563 266.478 270.336 266.454 270.112C266.429 269.888 266.344 269.675 266.206 269.497C266.068 269.318 265.883 269.182 265.673 269.102C265.358 269.028 265 269.083 264.722 268.895C264.303 268.63 264.319 268.023 264.383 267.537L264.718 264.95C264.97 263.028 264.396 260.997 264.74 259.112C265.125 256.358 265.226 253.572 265.041 250.798L264.73 240.096L267.798 241.177C268.789 241.457 269.714 241.931 270.519 242.572C271.168 243.263 271.715 244.044 272.142 244.891C274.989 249.64 279.927 252.78 283.092 257.316C283.794 258.326 284.434 259.426 285.451 260.125C285.795 260.327 286.124 260.556 286.433 260.81C286.796 261.239 287.088 261.724 287.298 262.245C287.809 263.227 288.525 264.087 289.398 264.768C290.27 265.449 291.279 265.934 292.356 266.19C293.785 266.516 295.391 266.493 296.484 267.471C296.755 267.8 297.067 268.094 297.412 268.345C298.216 268.785 299.421 268.396 299.977 269.126C300.29 269.532 300.265 270.178 300.681 270.479C300.901 270.608 301.152 270.676 301.407 270.676L305.336 271.016C309.732 271.399 313.272 274.871 317.195 276.869C318.526 277.5 319.787 278.267 320.958 279.159C322.952 280.789 324.533 283.201 327.035 283.75C327.674 283.814 328.298 283.98 328.885 284.242C329.828 284.813 330.054 286.047 330.516 287.053C330.978 288.059 332.249 288.973 333.103 288.274C333.253 289.655 333.774 290.969 334.609 292.079C338.812 290.159 342.248 286.882 344.365 282.775C344.991 281.559 345.491 280.126 344.999 278.852C344.927 278.627 344.791 278.427 344.608 278.277C344.316 278.106 343.985 278.014 343.646 278.011C339.918 277.562 337.471 274.072 334.681 271.556C332.233 269.33 329.285 267.745 326.592 265.843C320.759 261.769 315.627 256.075 308.666 254.615C307.134 254.294 305.442 254.142 304.307 253.058C303.676 252.45 303.301 251.62 302.731 250.959C302.16 250.299 301.225 249.806 300.409 250.129C300.424 248.841 299.798 247.526 299.354 246.314C299.175 245.77 298.902 245.262 298.549 244.811C298.122 244.344 297.642 243.927 297.12 243.569C294.715 241.701 292.889 239.19 291.853 236.327C291.316 234.853 290.98 233.251 289.991 232.033C289.492 231.421 288.85 230.933 288.318 230.363C287.43 229.298 286.712 228.103 286.187 226.821L283.969 222.098C283.285 220.503 282.441 218.981 281.45 217.557C278.954 214.196 271.714 198.844 267.56 198.436C263.405 198.028 262.268 212.496 258.475 214.271C256.784 215.023 255.215 216.023 253.82 217.238C251.617 219.229 250.163 221.89 248.749 224.49L243.976 233.321C242.955 235.165 242.176 236.849 240.854 238.386Z" fill="#464353"/>
<path d="M358.811 206.914L356.335 200.656C354.511 196.048 350.931 192.354 346.383 190.386C341.834 188.417 336.69 188.336 332.082 190.159L84.8483 287.975C80.2397 289.798 76.544 293.377 74.5738 297.924C72.6037 302.472 72.5204 307.615 74.3423 312.224L78.9087 323.766L358.811 206.914Z" fill="#7A9B8B"/>
<path d="M150.722 253.423C150.722 253.423 167.337 297.48 180.798 308.814C194.259 320.147 222.379 381.496 222.379 381.496C222.379 381.496 307.083 357.718 356.471 316.786C405.859 275.854 523.526 220.548 523.526 220.548L448.976 91.5591C448.976 91.5591 345.975 124.861 299.612 174.721C253.249 224.581 150.722 253.423 150.722 253.423Z" fill="#8DD070"/>
<path d="M150.722 253.423C150.722 253.423 167.337 297.48 180.798 308.814C194.259 320.147 222.379 381.496 222.379 381.496C222.379 381.496 307.083 357.718 356.471 316.786C405.859 275.854 523.526 220.548 523.526 220.548L448.976 91.5591C448.976 91.5591 345.975 124.861 299.612 174.721C253.249 224.581 150.722 253.423 150.722 253.423Z" fill="#7A9B8B"/>
<path d="M175.056 262.29C175.056 262.29 186.802 299.419 197.756 308.436C208.71 317.452 229.392 368.859 229.392 368.859C229.392 368.859 303.97 343.282 349.048 304.94C394.127 266.599 499.05 211.789 499.05 211.789L442.268 104.641C442.268 104.641 351.32 139.544 308.33 185.419C265.34 231.294 175.056 262.29 175.056 262.29Z" fill="#E6E6E6"/>
<path opacity="0.1" d="M345.808 282.491C355.714 277.07 354.321 255.454 342.696 234.209C331.072 212.964 313.617 200.136 303.711 205.556C293.804 210.976 295.197 232.593 306.822 253.838C318.447 275.082 335.901 287.911 345.808 282.491Z" fill="black"/>
<path d="M129.349 286.479C129.349 286.479 158.677 323.314 174.954 329.978C191.231 336.641 236.825 386.401 236.825 386.401C236.825 386.401 310.154 337.775 344.593 283.649C379.031 229.524 474.07 140.793 474.07 140.793L363.543 40.9107C363.543 40.9107 275.729 104.215 246.908 165.893C218.087 227.57 129.349 286.479 129.349 286.479Z" fill="#8DD070"/>
<path d="M129.349 286.479C129.349 286.479 158.677 323.314 174.954 329.978C191.231 336.641 236.825 386.401 236.825 386.401C236.825 386.401 310.154 337.775 344.592 283.649C379.031 229.524 474.07 140.793 474.07 140.793L363.543 40.9107C363.543 40.9107 275.729 104.215 246.908 165.893C218.087 227.57 129.349 286.479 129.349 286.479Z" fill="#7A9B8B"/>
<path d="M155.217 287.459C155.217 287.459 177.794 319.195 190.986 324.41C204.177 329.624 239.625 372.199 239.625 372.199C239.625 372.199 302.75 324.969 333.889 274.644C365.028 224.319 448.096 140.002 448.096 140.002L361.167 55.4146C361.167 55.4146 285.318 116.532 258.477 173.387C231.636 230.242 155.217 287.459 155.217 287.459Z" fill="#E6E6E6"/>
<path d="M323.94 254.285C331.705 246.087 323.746 225.941 306.162 209.288C288.578 192.636 268.029 185.782 260.264 193.981C252.498 202.179 260.458 222.325 278.041 238.977C295.625 255.63 316.175 262.483 323.94 254.285Z" fill="#125D45"/>
<path d="M368.793 212.63L437.588 386.511C439.164 390.5 439.092 394.951 437.387 398.886C435.682 402.821 432.484 405.919 428.495 407.496L169.914 509.802C165.927 511.378 161.477 511.306 157.542 509.602C153.608 507.898 150.512 504.701 148.935 500.714L73.2031 309.298C81.7 309.113 81.7 309.113 89.2311 305.871L347.811 203.567C351.795 201.99 356.243 202.058 360.177 203.757C364.111 205.457 367.21 208.648 368.793 212.63Z" fill="#0D4B37"/>
<path d="M393.64 275.434L415.644 331.051L361.71 352.389C354.335 355.307 346.103 355.176 338.825 352.025C331.547 348.874 325.82 342.961 322.902 335.586C319.985 328.212 320.116 319.981 323.268 312.703C326.42 305.425 332.334 299.698 339.709 296.78L393.64 275.434Z" fill="#7A9B8B"/>
<path d="M358.319 334.115C364.307 331.746 367.241 324.972 364.872 318.985C362.503 312.997 355.729 310.064 349.741 312.433C343.753 314.802 340.819 321.576 343.188 327.564C345.556 333.551 352.331 336.484 358.319 334.115Z" fill="#0D4B37"/>
<path d="M254.491 230.859C254.716 230.259 254.806 229.616 254.756 228.977C254.706 228.338 254.516 227.718 254.2 227.16C253.884 226.602 253.45 226.12 252.927 225.748C252.405 225.376 251.807 225.124 251.177 225.008L248.814 209.603L242.807 215.035L245.971 228.832C245.848 229.903 246.121 230.983 246.74 231.867C247.359 232.751 248.281 233.377 249.331 233.627C250.38 233.876 251.485 233.733 252.436 233.223C253.387 232.713 254.118 231.872 254.491 230.86L254.491 230.859Z" fill="#ED9DA0"/>
<path d="M221.505 171.601L225.101 170.803C225.101 170.803 250.934 190.41 250.087 196.91C249.239 203.409 253.154 221.71 253.154 221.71C253.154 221.71 246.76 223.346 243.105 221.441L237.865 200.023L225.816 185.684L221.505 171.601Z" fill="#125D45"/>
<path d="M600.158 341.021L136.175 524.591C135.358 524.914 134.586 524.897 134.45 524.553C134.313 524.209 134.863 523.669 135.679 523.346L599.662 339.776C600.479 339.452 601.251 339.469 601.387 339.814C601.523 340.158 600.976 340.697 600.158 341.021Z" fill="#E6E6E6"/>
<path d="M545.286 359.458C545.299 359.458 545.312 359.459 545.325 359.462C544.62 358.792 543.938 358.102 543.282 357.387C543.204 357.303 543.129 357.215 543.052 357.131C543.065 357.156 543.075 357.181 543.09 357.209C543.163 357.365 543.238 357.519 543.316 357.677C543.435 357.921 543.551 358.171 543.656 358.424C543.69 358.503 543.721 358.579 543.751 358.656C543.873 358.968 543.964 359.29 544.021 359.62L544.034 359.614C544.117 359.589 544.191 359.563 544.273 359.546C544.59 359.467 544.917 359.435 545.243 359.45C545.258 359.451 545.272 359.454 545.286 359.458Z" fill="url(#paint0_linear_6834_61537)"/>
<path d="M489.661 236.513C490.154 237.859 490.214 239.33 490.669 240.687C494.671 239.329 497.789 235.893 501.907 234.939C500.543 234.669 499.46 233.629 498.625 232.517C497.553 231.08 496.759 229.455 496.286 227.726C496.26 227.63 496.24 227.532 496.227 227.433C496.113 226.724 496.121 225.653 495.818 225.181C495.418 224.555 494.832 224.942 494.271 225.209C492.567 226.038 490.908 226.955 489.3 227.957C488.88 228.214 484.915 231.053 484.804 230.964C486.064 231.896 487.223 232.958 488.26 234.134C488.858 234.842 489.331 235.646 489.661 236.513Z" fill="#ED9DA0"/>
<path d="M449.214 247.753C449.734 248.08 450.299 248.327 450.891 248.487C451.285 248.613 451.689 248.742 452.097 248.84C452.841 249.054 453.629 249.061 454.376 248.861C455.335 248.555 457.101 247.221 457.369 246.193C457.455 245.693 457.386 245.178 457.172 244.718C456.91 244.085 456.552 243.495 456.109 242.971C455.355 242.132 454.48 241.41 453.512 240.832C452.499 240.103 451.34 239.601 450.115 239.361C449.709 239.314 448.775 240.919 449.495 241.704C449.202 241.83 448.957 242.045 448.794 242.32C448.632 242.594 448.561 242.912 448.591 243.23C448.637 243.386 448.633 243.554 448.578 243.707C448.468 243.901 448.188 243.929 448.043 244.097C447.788 244.401 448.119 244.826 448.23 245.206C448.276 245.555 448.286 245.907 448.26 246.258C448.301 246.562 448.407 246.854 448.572 247.112C448.738 247.37 448.957 247.59 449.216 247.754L449.214 247.753Z" fill="#ED9DA0"/>
<path d="M556.179 359.946C555.956 359.894 555.723 359.893 555.499 359.945C555.276 359.996 555.067 360.099 554.889 360.244C552.766 361.498 550.55 362.589 548.261 363.507C547.42 362.22 547.714 360.526 547.429 359.014C547.324 358.636 547.275 358.245 547.283 357.853C547.364 357.485 547.525 357.14 547.753 356.841C547.981 356.542 548.271 356.295 548.603 356.119C549.734 355.371 551.481 354.149 552.662 355.121C554.081 356.293 555.22 358.399 556.179 359.946Z" fill="#ED9DA0"/>
<path d="M528.999 364.577C530.201 364.762 531.43 364.662 532.587 364.285C533.742 363.906 534.952 363.72 536.167 363.736C537.213 363.821 538.229 364.238 539.277 364.182C540.231 364.077 541.142 363.733 541.927 363.181C542.89 362.574 543.849 361.758 544.055 360.637C544.239 359.641 543.786 358.652 543.344 357.737C542.844 356.707 542.344 355.675 541.845 354.64C541.742 354.369 541.569 354.129 541.342 353.947C540.157 353.149 538.944 355.427 537.964 355.812C536.308 356.36 534.512 356.306 532.892 355.659C532.754 355.596 532.606 355.555 532.455 355.538C531.935 355.515 531.638 356.057 531.372 356.532C531.342 356.586 531.312 356.64 531.282 356.691C530.66 357.767 529.502 358.395 528.499 359.128C527.496 359.861 526.527 360.92 526.617 362.162C526.622 362.24 526.632 362.318 526.648 362.395C526.794 362.944 527.092 363.44 527.508 363.826C527.924 364.212 528.441 364.472 528.999 364.577Z" fill="#090814"/>
<path d="M526.287 285.642C528.417 288.91 529.193 292.879 528.45 296.71C528.181 297.731 527.991 298.771 527.881 299.822C527.872 300.565 527.93 301.307 528.056 302.04L529.156 309.863C529.451 311.973 529.762 314.125 530.684 316.048C531.326 317.388 532.287 318.8 531.869 320.226C531.746 320.516 531.667 320.821 531.634 321.134C531.669 321.47 531.792 321.792 531.992 322.065C534.918 326.903 537.707 332.067 538.113 337.707C538.482 342.818 540.393 347.887 541.001 352.974C541.134 353.599 541.089 354.249 540.87 354.848C540.653 355.25 540.337 355.59 539.951 355.834C538.329 356.968 536.241 357.217 534.265 357.104C532.876 357.025 531.235 356.571 530.828 355.24C530.711 354.589 530.701 353.922 530.799 353.267C530.736 351.969 530.479 350.688 530.037 349.466C529.169 346.326 528.947 343.049 528.483 339.825C528.019 336.601 527.277 333.331 525.506 330.595C521.86 324.93 517.55 319.719 512.669 315.075C512.435 314.818 512.145 314.617 511.823 314.488C511.5 314.442 511.181 314.37 510.87 314.272C510.576 314.063 510.332 313.79 510.157 313.475C509.523 312.638 508.474 312.251 507.627 311.63C505.489 310.064 504.847 307.226 503.92 304.743C503.02 302.328 501.718 300.046 501.176 297.529C500.635 295.012 501.032 292.057 503.018 290.415C504.053 289.661 505.233 289.128 506.483 288.851C512.99 286.985 519.522 285.716 526.287 285.642Z" fill="#090814"/>
<path d="M506.737 310.755C507.124 311.679 507.596 312.564 508.148 313.4C511.7 319.151 515.318 324.86 519.004 330.528C519.325 331.019 519.644 331.511 519.996 331.979C521.14 333.51 522.587 334.788 524.248 335.734C532.014 340.159 536.188 349.395 542.103 356.096C542.503 356.551 542.903 357.005 543.312 357.447C544.346 358.57 545.44 359.637 546.589 360.642C546.738 360.796 546.925 360.907 547.132 360.964C547.342 360.982 547.553 360.943 547.741 360.849C550.286 359.859 552.569 358.297 554.412 356.282C554.691 356.033 554.875 355.696 554.935 355.327C554.929 355.055 554.856 354.788 554.724 354.55C554.032 353.031 553.3 351.463 552.023 350.393C551.209 349.772 550.307 349.276 549.348 348.919C547.257 344.112 544.747 339.498 541.846 335.131C540.336 332.919 538.688 330.732 536.463 329.238C534.823 328.132 532.739 327.227 532.198 325.324C531.961 324.49 531.902 323.355 531.061 323.143C530.694 323.048 530.261 323.189 529.951 322.969C529.818 322.861 529.713 322.723 529.644 322.566C529.014 321.364 528.591 320.065 528.393 318.722C528.314 317.825 528.177 316.935 527.985 316.055C527.884 315.615 527.695 315.2 527.428 314.836C527.162 314.471 526.824 314.165 526.435 313.936C525.74 312.28 525.101 310.528 524.407 308.875C523.965 307.951 523.666 306.965 523.52 305.951C523.474 305.464 523.502 304.971 523.423 304.485C523.138 302.743 521.503 301.169 522.04 299.485C522.35 298.82 522.755 298.204 523.241 297.655C524.031 296.409 524.378 294.933 524.227 293.466C524.073 292.009 523.757 290.573 523.282 289.187C523.202 288.885 523.09 288.593 522.948 288.315C522.871 288.172 522.774 288.041 522.66 287.926C522.051 287.328 521.073 287.391 520.228 287.51C514.861 288.274 509.604 289.675 504.567 291.682C502.198 291.151 501.327 292.019 501.071 293.678C500.959 294.672 500.947 295.674 501.036 296.67C501.106 297.904 503.5 304.02 503.583 305.255C503.691 306.865 506.165 309.251 506.737 310.755Z" fill="#090814"/>
<path d="M490.431 233.294C495.438 231.313 497.89 225.65 495.91 220.644C493.929 215.639 488.266 213.186 483.26 215.167C478.254 217.148 475.801 222.811 477.781 227.817C479.762 232.822 485.425 235.275 490.431 233.294Z" fill="#ED9DA0"/>
<path d="M487.442 241.154C488.018 241.455 488.747 241.749 489.276 241.37C489.459 241.214 489.615 241.029 489.739 240.822C490.518 239.736 491.738 239.07 492.896 238.398C495.225 237.045 497.454 235.528 499.566 233.857C500.162 233.329 500.833 232.891 501.558 232.56C503.098 231.96 504.864 232.442 506.3 233.259C507.736 234.075 508.973 235.206 510.396 236.043C511.411 236.64 512.514 237.083 513.494 237.732C515.976 239.366 520.189 268.812 520.457 269.231C522.752 273.273 527.783 285.064 528.387 287.364C525.118 287.39 521.867 287.859 518.723 288.758C516.7 289.338 514.706 290.099 512.61 290.295C511.301 290.419 509.975 290.318 508.675 290.518C507.634 290.71 506.612 290.999 505.624 291.379C503.392 292.082 501.232 292.993 499.171 294.1C499.007 294.195 498.801 294.293 498.641 294.192C498.564 294.133 498.506 294.053 498.474 293.962C498.122 293.169 497.999 292.294 498.117 291.434C498.287 290.86 498.302 290.25 498.161 289.668C498.038 289.417 485.198 255.324 485.428 253.561C485.804 251.523 485.862 249.439 485.6 247.383C485.357 246.036 484.839 244.753 484.519 243.422C484.411 243.094 484.4 242.743 484.489 242.409C484.603 242.187 484.764 241.992 484.96 241.838C485.157 241.684 485.384 241.574 485.627 241.515C486.21 241.304 486.822 241.182 487.442 241.154Z" fill="#0D4B37"/>
<path opacity="0.05" d="M491.399 237.248C492.184 236.294 493.141 235.497 494.22 234.897C494.836 234.475 495.512 234.15 496.226 233.932C496.896 233.759 497.605 233.763 498.262 233.545C499.148 233.145 499.964 232.606 500.678 231.948C501.455 231.366 502.424 230.877 503.366 231.113C503.582 231.205 503.821 231.232 504.053 231.19C504.265 231.075 504.432 230.892 504.526 230.67C504.968 229.985 505.63 229.47 506.403 229.21C507.176 228.951 508.014 228.961 508.781 229.241C511.059 230.142 512.075 233.26 514.491 233.672C515.156 233.785 515.913 233.685 516.44 234.106C516.584 234.249 516.739 234.381 516.903 234.502C517.09 234.594 517.294 234.644 517.502 234.651C518.167 234.68 518.827 234.776 519.473 234.939C519.796 235.022 520.098 235.17 520.362 235.373C520.627 235.576 520.847 235.831 521.01 236.122C521.195 236.569 521.275 237.054 521.242 237.537C521.213 240.251 520.345 242.891 518.756 245.092C517.168 247.293 514.936 248.949 512.369 249.831C511.93 250.031 511.434 250.068 510.97 249.935C510.699 249.797 510.455 249.612 510.25 249.389C508.575 247.832 506.295 247.095 504.481 245.701C503.4 244.871 502.5 243.819 501.399 243.017C499.729 241.799 497.693 241.217 495.703 240.657C494.581 240.342 493.349 240.033 492.284 240.507C491.335 240.93 490.653 241.259 490.539 239.936C490.496 238.966 490.801 238.013 491.399 237.248Z" fill="#125D45"/>
<path d="M490.011 256.51C489.793 257.435 489.386 258.306 488.815 259.066C488.033 259.835 487.072 260.396 486.019 260.7C481.807 262.263 477.466 263.452 473.045 264.253C472.546 264.357 466.314 263.23 464.772 262.331C462.929 261.238 455.852 252.323 455.517 251.788C454.935 250.868 454.072 250.16 453.055 249.771C452.852 249.72 452.67 249.609 452.533 249.451C452.453 249.307 452.42 249.141 452.44 248.976C452.497 248.43 452.676 247.903 452.963 247.435C453.25 246.967 453.639 246.568 454.1 246.27C455.026 245.68 456.036 245.233 457.095 244.945C457.458 244.875 457.827 244.832 458.196 244.816C459.862 246.676 469.456 254.546 469.744 254.416C470.565 254.149 472.41 253.758 473.001 253.128C473.673 252.415 476.371 251.33 476.484 251.194C476.735 250.874 479.172 248.437 479.571 248.327C479.245 248.208 484.258 244.604 484.377 243.784C484.419 243.493 484.319 243.161 484.493 242.925C484.62 242.785 484.79 242.694 484.976 242.666C485.536 242.527 486.115 242.481 486.69 242.528C488.689 245.287 489.539 248.638 490.172 251.987C490.512 253.485 490.458 255.045 490.015 256.516L490.011 256.51Z" fill="#0D4B37"/>
<path d="M491.406 237.252C492.191 236.299 493.149 235.501 494.228 234.901C494.844 234.48 495.52 234.154 496.234 233.936C496.904 233.764 497.613 233.768 498.27 233.549C499.156 233.15 499.972 232.611 500.686 231.953C501.463 231.37 502.432 230.881 503.374 231.117C503.59 231.209 503.829 231.236 504.061 231.195C504.273 231.08 504.439 230.896 504.534 230.675C504.976 229.989 505.638 229.475 506.411 229.215C507.184 228.955 508.022 228.966 508.788 229.245C511.067 230.146 512.083 233.265 514.499 233.676C515.164 233.789 515.921 233.689 516.448 234.11C516.592 234.253 516.747 234.386 516.911 234.506C517.098 234.598 517.302 234.649 517.51 234.655C518.175 234.684 518.835 234.78 519.481 234.943C519.803 235.026 520.106 235.174 520.37 235.377C520.634 235.581 520.855 235.836 521.018 236.126C521.203 236.574 521.283 237.058 521.25 237.541C521.221 240.256 520.353 242.895 518.764 245.096C517.175 247.298 514.944 248.953 512.376 249.835C511.938 250.035 511.442 250.072 510.978 249.939C510.707 249.802 510.463 249.617 510.258 249.393C508.583 247.836 506.302 247.099 504.488 245.706C503.408 244.876 502.508 243.824 501.407 243.021C499.737 241.803 497.7 241.221 495.711 240.662C494.589 240.347 493.357 240.037 492.292 240.511C491.343 240.934 490.661 241.264 490.546 239.94C490.504 238.97 490.809 238.017 491.406 237.252Z" fill="#125D45"/>
<path d="M535.316 371.488C536.243 371.779 537.23 371.816 538.176 371.596C540.332 371.195 542.457 370.644 544.536 369.947C545.215 369.735 545.896 369.525 546.575 369.314C548.566 368.696 550.561 368.079 552.505 367.319C554.903 366.379 557.213 365.227 559.405 363.875C559.503 363.846 559.593 363.795 559.668 363.726C559.743 363.657 559.8 363.571 559.836 363.475C559.871 363.38 559.884 363.277 559.872 363.176C559.861 363.074 559.826 362.977 559.77 362.892C558.773 360.494 556.417 359.256 554.944 357.118C554.337 356.24 554.571 358.044 554.529 358.165C554.45 358.489 554.296 358.79 554.08 359.043C553.864 359.297 553.592 359.496 553.285 359.626C551.334 360.524 548.62 360.195 546.609 359.743C546.17 359.625 545.722 359.545 545.269 359.503C544.943 359.488 544.616 359.52 544.299 359.599C543.236 359.91 542.287 360.527 541.571 361.372C540.613 362.434 539.904 363.697 538.966 364.771C538.202 365.643 537.297 366.38 536.288 366.951C535.268 367.527 534.007 368.108 533.823 369.262C533.823 369.263 533.823 369.265 533.824 369.266C533.824 369.268 533.825 369.269 533.826 369.27C533.797 369.752 533.928 370.229 534.197 370.63C534.466 371.031 534.859 371.333 535.316 371.488Z" fill="#090814"/>
<path opacity="0.1" d="M497.624 221.422C497.48 221.617 497.298 221.78 497.09 221.903C496.842 222.096 496.556 222.232 496.25 222.303C495.945 222.374 495.627 222.377 495.32 222.314L497.624 221.422Z" fill="black"/>
<path d="M474.92 215.822C475.877 214.784 477.139 214.076 478.524 213.799C479.873 213.47 481.358 213.338 482.419 212.457C483.625 211.441 484.115 209.56 485.616 209.103C486.27 208.953 486.953 208.988 487.589 209.205C490.025 209.866 492.211 211.237 493.867 213.143C494.26 213.692 494.756 214.162 495.326 214.525C495.665 214.657 495.995 214.807 496.318 214.974C496.674 215.239 496.958 215.589 497.144 215.992C498.294 218.162 498.615 220.677 498.046 223.066C497.708 224.478 497.06 225.793 496.697 227.216C496.333 228.639 494.545 231.37 494.091 230.716C493.569 230.106 493.135 229.426 492.801 228.696C492.294 227.197 492.671 225.664 491.46 224.648C490.71 224.019 489.375 223.62 488.9 224.472C488.712 224.802 488.736 225.213 488.577 225.555C488.382 225.869 488.071 226.093 487.712 226.18C487.353 226.267 486.974 226.209 486.657 226.02C486.031 225.613 485.581 224.985 485.398 224.261C484.351 221.05 482.663 219.057 479.237 220.54C477.961 221.094 476.45 221.486 475.185 220.632C473.517 219.509 473.786 217.186 474.92 215.822Z" fill="#090814"/>
</g>
<defs>
<linearGradient id="paint0_linear_6834_61537" x1="372.202" y1="427.956" x2="371.098" y2="425.163" gradientUnits="userSpaceOnUse">
<stop stop-color="#808080" stop-opacity="0.251"/>
<stop offset="0.535" stop-color="#808080" stop-opacity="0.122"/>
<stop offset="1" stop-color="#808080" stop-opacity="0.102"/>
</linearGradient>
<clipPath id="clip0_6834_61537">
<rect width="502.16" height="373.033" fill="white" transform="translate(0 184.741) rotate(-21.5858)"/>
</clipPath>
</defs>
</svg>
