<svg width="583" height="396" viewBox="0 0 583 396" fill="none" xmlns="http://www.w3.org/2000/svg">
<g opacity="0.3" clip-path="url(#clip0_6834_63278)">
<path d="M342.455 72.6073C341.583 73.1859 340.594 73.5664 339.558 73.7218C338.523 73.8773 337.466 73.8039 336.462 73.507C335.458 73.2101 334.532 72.6968 333.748 72.0033C332.964 71.3098 332.341 70.4528 331.924 69.4927L306.542 71.4127L312.974 59.8555L336.091 59.8041C337.751 59.2104 339.572 59.2462 341.207 59.9048C342.842 60.5634 344.179 61.799 344.963 63.3775C345.748 64.9559 345.926 66.7674 345.464 68.4687C345.001 70.1699 343.931 71.6427 342.455 72.6078L342.455 72.6073Z" fill="#FFB7B7"/>
<path d="M327.381 72.5004L325.135 59.0897L324.917 59.0555L283.409 52.6016L243.363 38.2271L230.538 52.0329L233.946 56.545L234.043 56.5742L285.446 71.7998L285.487 71.8002L327.381 72.5004Z" fill="#AFD7D2"/>
<path d="M307.992 114.742L256.157 130.95L246.318 99.1093L282.104 82.163L307.992 114.742Z" fill="#FFB6B6"/>
<path d="M294.533 299.847L305.601 297.441L301.601 253.62L285.266 257.17L294.533 299.847Z" fill="#FFB6B6"/>
<path d="M292.853 320.287L300.791 318.562L300.581 310.762L305.836 317.465L326.888 312.89C327.897 312.67 328.809 312.134 329.492 311.36C330.175 310.585 330.593 309.613 330.684 308.585C330.775 307.556 330.535 306.526 329.999 305.644C329.463 304.762 328.659 304.074 327.704 303.682L308.372 295.729L306.728 288.156L289.275 293.054L292.853 320.287Z" fill="#2F2E41"/>
<path d="M358.69 276.266L368.927 271.419L355.109 229.643L340 236.797L358.69 276.266Z" fill="#FFB6B6"/>
<path d="M361.684 296.554L369.025 293.078L367.055 285.529L373.692 290.868L393.163 281.648C394.096 281.206 394.864 280.477 395.354 279.569C395.844 278.66 396.03 277.618 395.886 276.596C395.742 275.574 395.275 274.625 394.553 273.887C393.831 273.149 392.892 272.661 391.873 272.495L371.241 269.124L367.925 262.12L352.032 270.84L361.684 296.554Z" fill="#2F2E41"/>
<path d="M253.151 126.182L298.898 99.8911C328.437 126.003 344.279 182.517 361.372 246.485L347.018 255.701L301.042 161.677L304.38 267.821L288.058 274.553L253.151 126.182Z" fill="#2F2E41"/>
<path d="M239.977 26.8254L232.365 10.7494C231.026 7.91897 229.143 5.38011 226.822 3.27788C224.502 1.17565 221.79 -0.448763 218.84 -1.50253C215.891 -2.5563 212.763 -3.01878 209.635 -2.86356C206.507 -2.70834 203.44 -1.93845 200.609 -0.597884C197.778 0.742679 195.238 2.62766 193.136 4.94934C191.034 7.27103 189.409 9.98393 188.356 12.9331C187.302 15.8822 186.84 19.0098 186.996 22.1371C187.152 25.2644 187.923 28.3302 189.264 31.1593C189.212 40.8695 193.37 43.5058 196.877 47.2353C197.241 48.0014 197.894 48.5917 198.693 48.877C199.492 49.1623 200.372 49.1193 201.14 48.7574L238.452 31.0885C239.219 30.7243 239.81 30.071 240.096 29.2718C240.382 28.4727 240.339 27.5929 239.977 26.8254Z" fill="#2F2E41"/>
<path d="M225 37.1618C233.726 33.0296 237.452 22.6088 233.321 13.8862C229.191 5.16369 218.769 1.44246 210.042 5.57465C201.316 9.70684 197.591 20.1277 201.721 28.8502C205.852 37.5728 216.274 41.294 225 37.1618Z" fill="#FFB7B7"/>
<path d="M238.076 9.62099C235.931 5.10567 232.082 1.62569 227.374 -0.0554687C222.665 -1.73663 217.481 -1.48168 212.959 0.653447L209.743 2.17665C205.225 4.32197 201.743 8.17077 200.06 12.8787C198.377 17.5865 198.63 22.769 200.764 27.2892L200.917 27.6108C204.105 28.1163 206.506 27.2741 207.715 24.3918L206.96 16.8048L210.496 23.0745L214.01 21.4106L213.631 17.5821L215.416 20.7451C222.074 22.5378 230.131 16.3523 238.228 9.94263L238.076 9.62099Z" fill="#2F2E41"/>
<path d="M247.782 109.087L287.287 88.5065L277.078 61.1351C276.532 55.4989 274.601 51.3481 271.342 48.8073C268.6 46.7492 265.181 45.8019 261.769 46.155L247.934 39.696C246.155 38.8663 244.214 38.4422 242.25 38.4543C240.287 38.4664 238.35 38.9144 236.581 39.7659L213.782 50.7534C213.074 50.6831 208.926 50.5678 203.683 56.5474C197.997 63.0337 204.757 73.0136 204.826 73.1132L204.89 73.2066L205.001 73.2383L226.28 78.8432L247.782 109.087Z" fill="#AFD7D2"/>
<path d="M372.588 96.7317C379.815 112.071 381.04 129.56 376.022 145.761C371.005 161.962 360.107 175.702 345.472 184.28C330.838 192.859 313.524 195.655 296.936 192.119C280.347 188.583 265.684 178.971 255.828 165.172C245.973 151.373 241.638 134.386 243.676 117.551C245.714 100.715 253.978 85.2482 266.842 74.1914C279.707 63.1345 296.242 57.2873 313.196 57.7992C330.151 58.3112 346.299 65.1452 358.465 76.9579C358.769 77.255 359.071 77.5536 359.37 77.8574L359.372 77.8608C360.696 79.1922 361.967 80.5854 363.184 82.0404C366.933 86.5159 370.094 91.4531 372.588 96.7317Z" fill="#125D45"/>
<path d="M284.257 87.5165C280.768 87.3303 277.282 87.9433 274.065 89.3086C270.848 90.674 267.985 92.7556 265.695 95.3948C263.673 97.7081 261.933 100.964 262.783 104.955C265.258 101.301 271.221 102.398 274.537 107.115L274.358 107.27C275.576 111.049 278.452 114.428 281.515 115.679C281.193 114.612 281.114 113.488 281.281 112.387C281.449 111.285 281.86 110.235 282.485 109.313C283.506 107.636 284.811 106.152 285.149 103.942C285.551 101.321 284.518 98.2588 283.797 95.3598C283.077 92.4607 282.741 89.1373 284.257 87.5165Z" fill="#7A9B8B"/>
<path d="M279.367 126.897C279.092 128.775 278.246 130.273 277.634 131.929C276.884 133.749 276.785 135.772 277.352 137.656C277.797 138.967 278.618 140.125 279.182 141.396C279.746 142.667 279.997 144.28 279.29 144.997C278.171 146.124 275.954 144.106 274.483 144.588C273.316 144.973 273.144 147.176 274.176 148.529C275.207 149.881 277.023 149.836 277.421 148.446C278.82 149.385 279.393 152.018 278.412 152.974C278.679 153.857 278.944 154.736 279.214 155.616C275.273 154.948 271.285 154.26 267.332 152.421C262.949 150.404 259.27 147.123 256.766 143C254.789 139.67 253.386 135.455 250.516 133.532C248.219 131.992 245.796 132.56 243.881 133.63C243.532 133.825 243.188 134.039 242.848 134.254C242.356 130.199 242.233 126.108 242.479 122.03C242.8 121.667 243.064 121.257 243.262 120.815C244.363 118.381 243.683 114.832 244.142 111.937C244.171 111.751 244.206 111.567 244.245 111.384C244.829 108.666 246.39 106.67 247.917 104.779C251.289 100.58 254.776 96.2935 259.539 94.3996L258.283 95.1496C258.784 100.175 259.283 105.201 259.78 110.227C259.859 110.997 259.936 111.769 260.011 112.543C260.296 115.4 260.629 118.429 262.058 121.101C262.905 122.684 264.287 124.148 265.622 124.197C266.865 124.238 267.658 123.09 268.328 122.008C268.613 121.553 268.895 121.1 269.178 120.643C270.198 119.004 271.364 117.267 273.212 117.165C274.903 117.07 276.863 118.5 278.046 120.482C279.184 122.415 279.649 124.671 279.367 126.897Z" fill="#7A9B8B"/>
<path d="M301.986 152.111C296.455 151.503 290.923 150.896 285.392 150.288L285.376 150.066C283.193 152.341 284.328 157.597 286.6 161.258C288.873 164.919 292.003 167.671 294.543 171.085C298.002 175.763 300.146 181.283 300.752 187.07C303.393 178.086 305.126 168.86 305.926 159.531C306.085 158.328 306.062 157.107 305.859 155.911C305.641 154.637 304.959 153.488 303.946 152.685C303.351 152.334 302.677 152.137 301.986 152.111Z" fill="#7A9B8B"/>
<path d="M262.366 112.157C262.374 113.475 262.879 114.741 263.779 115.703C264.635 116.416 265.737 116.763 266.848 116.668L269.769 116.72C270.742 116.737 271.777 116.729 272.427 116.028C273.212 115.182 273.165 113.347 272.325 112.021C271.43 110.61 269.997 110.027 268.707 109.563C266.902 108.913 265.097 108.264 263.292 107.615L263.002 108.785C262.601 109.865 262.386 111.005 262.366 112.157Z" fill="#7A9B8B"/>
<path d="M353.267 88.7291C354.451 88.4755 355.634 88.2219 356.818 87.9683C358.334 91.6506 358.127 95.8214 356.307 98.1584C355.548 99.1313 354.527 99.842 354.146 101.17C353.804 102.374 354.054 103.878 354.307 105.309C354.746 107.808 355.185 110.307 355.624 112.805C356.1 115.497 356.515 118.541 355.225 120.202C354.118 121.63 352.025 121.516 350.188 120.532C348.352 119.548 346.704 117.836 345.102 116.166C346.167 118.309 346.166 120.907 345.096 122.334C344.023 123.763 341.964 123.906 340.214 122.679C338.956 121.799 337.919 120.345 336.667 119.441C335.415 118.538 333.672 118.506 333.479 120.001C333.356 120.992 333.971 122.13 334.189 123.212C334.372 123.912 334.333 124.652 334.076 125.329C333.819 126.006 333.358 126.586 332.756 126.988C332.154 127.256 331.505 127.399 330.846 127.409C330.187 127.418 329.534 127.293 328.925 127.041C325.804 125.887 323.128 123.775 321.279 121.008C320.306 119.722 319.644 118.228 319.347 116.644C319.137 115.108 319.67 113.595 320.803 113.37C320.803 111.646 318.603 110.402 317.496 111.128C316.386 111.855 316.058 113.57 315.546 115.01C315.038 116.449 314.014 117.803 312.575 117.295C312.765 117.64 312.81 118.047 312.701 118.425C312.591 118.804 312.336 119.123 311.991 119.313C311.956 119.332 311.922 119.35 311.886 119.366C311.147 119.487 310.39 119.453 309.665 119.266C306.761 118.931 304.352 121.206 304.011 124.604C303 119.896 302.158 114.343 304.747 111.899C305.804 110.898 307.326 110.589 308.173 109.322C309.671 107.079 307.852 102.144 305.12 101.046C306.225 102.784 307.201 104.962 306.824 106.687C306.447 108.412 304.01 108.557 303.249 106.631C303.346 106.907 303.353 107.206 303.269 107.486C303.185 107.766 303.014 108.013 302.782 108.19C302.549 108.367 302.267 108.466 301.974 108.473C301.682 108.48 301.395 108.394 301.155 108.228C300.037 107.547 299.327 105.904 299.228 104.505C299.195 103.211 299.418 101.923 299.884 100.714C300.688 98.1943 301.506 95.6424 302.875 93.6492C304.247 91.6545 306.256 90.2494 308.669 90.4433C309.941 90.5468 311.276 91.0917 312.536 91.1168C312.846 91.1519 313.16 91.1257 313.46 91.0395C313.76 90.9534 314.04 90.809 314.285 90.6146C314.529 90.4203 314.732 90.1797 314.884 89.9068C315.035 89.6338 315.131 89.3337 315.166 89.0237C315.169 88.9997 315.171 88.9758 315.173 88.9517C315.302 87.2603 314.008 85.4519 313.501 83.6535C312.613 80.4723 314.904 77.7018 317.456 78.8724C316.089 79.1374 315.511 81.1762 316.187 82.9952C316.86 84.8158 318.579 86.1625 320.01 86.1317C322.412 86.0705 323.309 82.939 323.841 80.1822C324.392 77.2983 324.947 74.4145 325.504 71.5307C325.583 71.0476 325.702 70.572 325.861 70.1092C326.126 69.397 326.652 68.8119 327.332 68.4727C328.012 68.1334 328.796 68.0653 329.525 68.2821C331.724 68.8249 333.726 71.1258 335.893 72.3358C339.038 74.0951 342.171 73.402 345.045 72.6712C347.187 72.1236 349.331 71.5777 351.477 71.0336C353.938 72.8477 356.273 74.8271 358.466 76.9579C355.642 80.304 353.838 84.3893 353.267 88.7291Z" fill="#7A9B8B"/>
<path d="M363.181 82.0404C363.34 83.4165 363.707 84.7604 364.269 86.0262C361.614 84.7702 359.524 81.0486 359.368 77.8607C360.692 79.1922 361.963 80.5854 363.181 82.0404Z" fill="#7A9B8B"/>
<path d="M379.161 127.034C379.104 130.717 378.748 134.39 378.096 138.016C376.609 138.073 375.727 139.646 374.989 141.08C374.219 142.579 373.194 144.17 371.554 143.913C369.877 143.648 368.322 141.421 367.815 139.312C367.439 137.323 367.46 135.279 367.877 133.297C368.179 131.272 368.526 129.153 369.675 127.877C370.828 126.6 373.072 126.571 374.457 128.412L375.457 127.897C374.516 127.384 374.048 125.622 374.679 124.974C375.404 124.223 376.744 125.072 377.773 125.896C378.236 126.27 378.703 126.645 379.161 127.034Z" fill="#7A9B8B"/>
<path d="M333.365 130.97C331.245 132.142 328.241 130.273 325.838 128.172C323.435 126.072 320.953 123.544 318.344 123.131C316.853 122.895 315.519 123.398 314.12 123.603C313.344 123.757 312.543 123.723 311.783 123.505C311.022 123.287 310.325 122.89 309.749 122.349L308.098 122.446C306.618 124.333 305.441 126.439 304.611 128.689C303.732 131.405 303.77 134.335 304.72 137.027C305.769 139.926 308.211 142.555 310.531 142.732C312.365 142.871 313.8 141.557 315.619 141.618C317.892 141.694 320.272 143.916 321.961 146.422C323.651 148.928 324.876 151.784 326.463 154.376C328.05 156.968 330.205 159.427 332.544 160.033C335.47 160.792 337.857 157.88 337.288 154.246C337.009 152.463 336.157 150.706 335.734 148.919C334.987 145.772 335.623 142.875 335.813 139.914C336.003 136.952 335.519 133.282 333.365 130.97Z" fill="#7A9B8B"/>
<path d="M298.469 113.102C298.761 113.193 299.047 113.304 299.324 113.436C299.653 113.663 299.914 113.975 300.079 114.338C300.243 114.702 300.306 115.104 300.259 115.501C300.515 115.362 300.739 115.17 300.918 114.94C301.096 114.709 301.225 114.444 301.296 114.161C301.48 113.518 301.597 112.858 301.645 112.191C301.699 111.945 301.701 111.689 301.649 111.443C301.597 111.196 301.493 110.963 301.345 110.759C301.102 110.513 300.798 110.503 300.522 110.363C300.08 110.042 299.695 109.649 299.385 109.199C299.074 108.788 298.654 108.471 298.173 108.284C297.691 108.098 297.167 108.05 296.66 108.145L296.779 108.114C296.645 108.313 296.577 108.549 296.584 108.788C296.59 109.028 296.672 109.259 296.817 109.45C297.086 109.847 297.53 110.073 297.709 110.523C297.967 111.17 297.479 111.762 297.737 112.409C297.881 112.727 298.143 112.976 298.469 113.102Z" fill="#7A9B8B"/>
<path d="M289.665 104.197L289.674 104.191C289.712 104.098 289.743 104.002 289.766 103.904L289.665 104.197Z" fill="#6C63FF"/>
<path d="M291.718 106.836C291.871 106.482 291.924 106.092 291.871 105.71C291.818 105.327 291.661 104.966 291.417 104.667C290.92 104.028 290.131 103.814 289.675 104.191C289.597 104.415 289.463 104.615 289.286 104.772C289.109 104.93 288.896 105.04 288.665 105.092C288.305 105.162 287.853 105.116 287.689 105.489C287.616 105.744 287.607 106.014 287.665 106.274C287.711 106.638 287.758 107.002 287.804 107.367C287.809 107.503 287.856 107.634 287.938 107.743C287.98 107.782 288.032 107.809 288.088 107.822C288.145 107.835 288.203 107.834 288.259 107.817C288.962 107.707 289.665 107.597 290.368 107.486C290.627 107.484 290.882 107.424 291.116 107.312C291.349 107.199 291.554 107.037 291.718 106.836Z" fill="#7A9B8B"/>
<path d="M357.584 125.492C357.078 125.16 356.571 124.829 356.065 124.497C355.529 124.089 354.918 123.789 354.267 123.615C354.127 123.579 353.981 123.57 353.837 123.59C353.693 123.61 353.554 123.658 353.429 123.732C353.304 123.805 353.194 123.902 353.107 124.018C353.019 124.134 352.955 124.266 352.919 124.406L352.912 124.431L353.073 124.682C354.225 125.139 355.226 125.907 355.964 126.901C356.255 127.348 356.467 127.852 356.751 128.304C356.862 128.524 357.015 128.719 357.202 128.879C357.389 129.039 357.605 129.16 357.839 129.237C358.43 129.324 358.748 128.632 358.812 127.941C358.888 127.362 358.767 126.775 358.469 126.274C358.23 125.955 357.929 125.689 357.584 125.492Z" fill="#7A9B8B"/>
<path d="M362.351 123.98C362.199 123.518 361.953 123.091 361.629 122.727C361.338 122.164 361.222 121.527 361.297 120.898C361.382 120.298 361.374 119.687 361.271 119.089C361.22 118.819 361.088 118.571 360.894 118.376C360.699 118.209 360.425 118.221 360.373 118.451L360.739 118.499C360.328 118.61 359.948 118.814 359.626 119.093C359.453 119.274 359.326 119.494 359.256 119.735C359.186 119.975 359.175 120.229 359.223 120.475C359.339 120.839 359.423 121.213 359.475 121.592C359.47 122.015 359.2 122.283 359.14 122.682C359.128 123.015 359.199 123.346 359.346 123.645C359.494 123.945 359.714 124.202 359.986 124.395C360.446 124.704 361.004 124.831 361.552 124.752C361.953 124.713 362.408 124.505 362.351 123.98Z" fill="#7A9B8B"/>
<path d="M371.453 122.61C371.73 122.874 372.04 123.1 372.376 123.282C372.939 123.486 373.346 123.004 373.765 122.692C374.153 122.426 374.606 122.271 375.076 122.243C375.545 122.214 376.014 122.313 376.432 122.529C375.828 121.719 375.04 121.066 374.131 120.624C373.223 120.183 372.222 119.965 371.212 119.991C369.95 120.129 368.723 120.491 367.588 121.061L367.416 121.204C368.603 122.421 370.156 121.646 371.453 122.61Z" fill="#7A9B8B"/>
<path d="M339.112 141.565L339.118 141.57L339.123 141.433L339.112 141.565Z" fill="#6C63FF"/>
<path d="M339.006 144.476C338.969 145.08 338.978 145.685 339.033 146.287C339.178 147.235 339.418 148.167 339.749 149.068C339.92 149.588 340.198 150.224 340.619 150.318C340.735 150.335 340.853 150.308 340.952 150.244C341.05 150.18 341.122 150.083 341.153 149.97C341.239 149.708 341.28 149.434 341.276 149.158C341.388 147.83 341.33 146.494 341.104 145.18C340.858 143.79 340.158 142.52 339.114 141.57C339.078 142.539 339.042 143.508 339.006 144.476Z" fill="#6C63FF"/>
<path d="M297.838 87.6829C298.118 87.7796 298.422 87.792 298.709 87.7186C298.997 87.6452 299.258 87.4893 299.458 87.2699C299.866 86.8013 300.191 86.266 300.417 85.6875C300.637 85.2767 300.776 84.8275 300.826 84.3643C300.846 84.0924 300.812 83.8193 300.726 83.5606C300.64 83.3019 300.503 83.0628 300.325 82.857C300.122 82.6745 299.877 82.5466 299.611 82.4853C299.346 82.424 299.069 82.4315 298.807 82.5069C298.026 82.6282 297.245 82.7495 296.464 82.8709L296.748 82.1898C296.109 82.1578 295.785 82.9324 295.764 83.7116C295.754 84.2187 295.819 84.7245 295.957 85.2124C296.073 85.736 296.3 86.2282 296.625 86.6548C296.95 87.0815 297.364 87.4323 297.838 87.6829Z" fill="#7A9B8B"/>
<path d="M308.006 77.8984C308.3 78.0197 308.629 78.0247 308.926 77.9124C309.223 77.8001 309.467 77.5788 309.607 77.2935C309.732 77.0565 309.806 76.7959 309.823 76.5287C309.84 76.2614 309.801 75.9935 309.708 75.7425C309.501 75.1809 308.952 74.7085 308.549 74.8422L308.397 74.2967C307.602 74.5115 306.687 74.912 306.716 75.9877C306.745 76.3913 306.879 76.7801 307.105 77.1154C307.332 77.4507 307.642 77.7207 308.006 77.8984Z" fill="#7A9B8B"/>
<path d="M261.372 166.049C260.368 165.75 259.443 165.235 258.66 164.54C257.877 163.845 257.257 162.987 256.842 162.027C256.426 161.066 256.227 160.026 256.257 158.979C256.287 157.933 256.547 156.906 257.017 155.971L239.281 137.724L252.279 135.248L267.122 152.957C268.642 153.85 269.781 155.27 270.324 156.948C270.866 158.625 270.774 160.443 270.065 162.058C269.355 163.672 268.078 164.97 266.476 165.706C264.873 166.443 263.056 166.565 261.369 166.051L261.372 166.049Z" fill="#FFB7B7"/>
<path d="M251.799 154.412L260.66 144.092L238.909 107.911L224.293 67.9622L205.469 66.9738L204.188 72.482L204.231 72.5729L225.473 121.782L225.5 121.815L251.799 154.412Z" fill="#AFD7D2"/>
<path d="M477.4 186.09C469.669 186.178 461.191 185.982 451.968 185.503C404.263 183.02 342.397 173.201 277.766 157.857C213.136 142.512 153.463 123.474 109.739 104.251C88.4401 94.8864 72.0742 85.9789 61.0965 77.7754C49.4739 69.0907 44.3477 61.4636 45.8595 55.1068C48.8053 42.7226 76.0699 39.7099 98.4234 39.3634L98.4509 41.1592C67.7536 41.635 49.6971 46.7359 47.6075 55.5218C44.9456 66.7121 67.8556 83.8736 110.463 102.607C154.09 121.788 213.654 140.789 278.182 156.11C342.71 171.43 404.462 181.231 452.062 183.71C498.548 186.13 526.737 181.1 529.399 169.91C531.609 160.619 516.212 147.144 486.047 131.968L486.855 130.364C508.773 141.391 534.251 157.275 531.147 170.325C529.635 176.681 521.622 181.189 507.332 183.721C499.186 185.165 489.169 185.956 477.4 186.09Z" fill="#125D45"/>
<path d="M182.437 191.789C161.121 192.033 141.296 191.527 123.539 190.254C100.328 188.589 81.9185 185.697 68.821 181.659C54.9539 177.384 47.5617 171.923 46.8497 165.428C45.4621 152.777 70.1324 140.781 91.0725 132.946L91.7017 134.629C62.9456 145.388 47.6511 156.256 48.6353 165.233C49.8889 176.665 77.2371 185.132 123.668 188.462C171.21 191.872 233.704 189.76 299.636 182.512C365.569 175.266 427.032 163.754 472.703 150.099C517.306 136.763 542.168 122.557 540.915 111.125C539.874 101.633 520.842 94.1151 487.326 89.9553L487.548 88.173C511.901 91.1954 541.238 97.5966 542.7 110.929C543.412 117.423 537.379 124.359 524.769 131.545C512.858 138.332 495.514 145.153 473.217 151.819C427.445 165.505 365.869 177.039 299.832 184.298C258.405 188.85 218.318 191.38 182.437 191.789Z" fill="#125D45"/>
<path d="M169.874 96.6088C175.1 94.1341 177.331 87.893 174.858 82.6691C172.384 77.4452 166.142 75.2165 160.916 77.6913C155.69 80.166 153.458 86.4071 155.932 91.631C158.406 96.855 164.648 99.0836 169.874 96.6088Z" fill="#E6E6E6"/>
<path d="M411.066 123.735C414.265 122.22 415.631 118.399 414.116 115.202C412.602 112.004 408.781 110.639 405.582 112.154C402.383 113.669 401.017 117.49 402.531 120.688C404.045 123.885 407.866 125.25 411.066 123.735Z" fill="#FF6584"/>
<path d="M151.827 308.717C157.053 306.242 159.285 300.001 156.811 294.777C154.337 289.553 148.095 287.325 142.869 289.799C137.643 292.274 135.412 298.515 137.885 303.739C140.359 308.963 146.601 311.192 151.827 308.717Z" fill="#E6E6E6"/>
</g>
<defs>
<clipPath id="clip0_6834_63278">
<rect width="474.357" height="358.475" fill="white" transform="translate(0 72.0143) rotate(-25.3393)"/>
</clipPath>
</defs>
</svg>
