<svg width="5797" height="1614" viewBox="0 0 5797 1614" fill="none" xmlns="http://www.w3.org/2000/svg">
<path d="M1303.01 633.586C1255.01 542.086 1127 375.66 970.012 380.086C779.925 385.445 721.012 537.086 722.012 633.586" stroke="#0D4B37" stroke-width="100"/>
<path d="M1303.01 632C1255.01 723.5 1127 889.926 970.012 885.5C779.925 880.141 721.012 728.5 722.012 632" stroke="#0D4B37" stroke-width="100"/>
<path d="M1303 633.586C1351 542.086 1479.02 375.66 1636 380.086C1826.09 385.445 1885 537.086 1884 633.586" stroke="#0D4B37" stroke-width="100"/>
<path d="M1303 632C1351 723.5 1479.02 889.926 1636 885.5C1826.09 880.141 1885 728.5 1884 632" stroke="#0D4B37" stroke-width="100"/>
<path d="M1149.5 632.5C1149.5 595.3 1134.17 557.333 1126.5 543C1173.3 577 1201 616.833 1209 632.5H1149.5Z" fill="#0D4B37"/>
<path d="M1149.5 632C1149.5 669.2 1134.17 707.167 1126.5 721.5C1173.3 687.5 1201 647.667 1209 632H1149.5Z" fill="#0D4B37"/>
<path d="M1199 837L1301 936L1410 829" stroke="#0D4B37" stroke-width="80" stroke-linecap="round"/>
<path d="M1457 632.5C1457 595.3 1472.33 557.333 1480 543C1433.2 577 1405.5 616.833 1397.5 632.5H1457Z" fill="#0D4B37"/>
<path d="M1457 632C1457 669.2 1472.33 707.167 1480 721.5C1433.2 687.5 1405.5 647.667 1397.5 632H1457Z" fill="#0D4B37"/>
<path d="M856.029 506C817.5 550.5 771.002 656.5 856.029 758.5" stroke="#0D4B37" stroke-width="20" stroke-linecap="round"/>
<path d="M1749.16 506C1787.69 550.5 1834.19 656.5 1749.16 758.5" stroke="#0D4B37" stroke-width="20" stroke-linecap="round"/>
<path d="M1303.19 0C1519.72 0 1699.61 121.385 1735.37 281H1651.96C1616.49 175.692 1487.73 80 1303.19 80C1118.64 80.0002 989.884 175.692 954.409 281H871C906.766 121.385 1086.65 0.000177767 1303.19 0Z" fill="#0D4B37"/>
<path d="M1779.4 1015C1719.5 1191.97 1580.13 1401.21 1303.93 1613.7L1255.15 1550.3C1507.88 1355.86 1636.02 1169.83 1694.47 1015H1779.4Z" fill="#0D4B37"/>
<path d="M912.933 1015C971.383 1169.83 1099.52 1355.86 1352.25 1550.3L1327.86 1582L1303.47 1613.7C1027.28 1401.21 887.898 1191.97 828 1015H912.933Z" fill="#0D4B37"/>
<path d="M424.203 349.016C482.536 349.016 537.875 359.302 590.219 379.875L604.672 385.734L573.812 470.109L558.969 465.031C508.448 448.104 462.745 439.641 421.859 439.641C389.568 439.641 359.62 444.979 332.016 455.656C304.672 466.073 281.885 480.135 263.656 497.844C245.688 515.552 231.625 535.865 221.469 558.781C211.573 581.698 206.625 605.656 206.625 630.656C206.625 656.438 211.964 681.047 222.641 704.484C233.578 727.661 248.682 748.104 267.953 765.812C287.484 783.26 311.964 797.193 341.391 807.609C370.818 817.766 402.979 822.844 437.875 822.844C480.583 822.844 523.292 815.292 566 800.188L580.453 795.109L612.484 873.234L598.031 879.484C541.521 903.703 481.885 915.812 419.125 915.812C370.427 915.812 326.156 908.391 286.312 893.547C246.729 878.703 214.047 858.391 188.266 832.609C162.484 806.568 142.562 776.359 128.5 741.984C114.698 707.609 107.797 670.63 107.797 631.047C107.797 590.943 114.958 553.703 129.281 519.328C143.604 484.953 164.047 455.135 190.609 429.875C217.172 404.615 250.505 384.823 290.609 370.5C330.714 356.177 375.245 349.016 424.203 349.016Z" fill="#0D4B37"/>
<path d="M2990.2 349.016C3048.54 349.016 3103.88 359.302 3156.22 379.875L3170.67 385.734L3139.81 470.109L3124.97 465.031C3074.45 448.104 3028.74 439.641 2987.86 439.641C2955.57 439.641 2925.62 444.979 2898.02 455.656C2870.67 466.073 2847.89 480.135 2829.66 497.844C2811.69 515.552 2797.62 535.865 2787.47 558.781C2777.57 581.698 2772.62 605.656 2772.62 630.656C2772.62 656.438 2777.96 681.047 2788.64 704.484C2799.58 727.661 2814.68 748.104 2833.95 765.812C2853.48 783.26 2877.96 797.193 2907.39 807.609C2936.82 817.766 2968.98 822.844 3003.88 822.844C3046.58 822.844 3089.29 815.292 3132 800.188L3146.45 795.109L3178.48 873.234L3164.03 879.484C3107.52 903.703 3047.89 915.812 2985.12 915.812C2936.43 915.812 2892.16 908.391 2852.31 893.547C2812.73 878.703 2780.05 858.391 2754.27 832.609C2728.48 806.568 2708.56 776.359 2694.5 741.984C2680.7 707.609 2673.8 670.63 2673.8 631.047C2673.8 590.943 2680.96 553.703 2695.28 519.328C2709.6 484.953 2730.05 455.135 2756.61 429.875C2783.17 404.615 2816.51 384.823 2856.61 370.5C2896.71 356.177 2941.24 349.016 2990.2 349.016Z" fill="#0D4B37"/>
<path d="M3323.41 352.922H3421.84V908H3323.41V352.922Z" fill="#0D4B37"/>
<path d="M3579.47 908V352.922H3968.92V443.547H3678.3V576.75H3947.44V667.375H3678.3V817.375H3968.92V908H3579.47Z" fill="#0D4B37"/>
<path d="M2814.04 1096.88C2830.22 1096.88 2845.58 1099.74 2860.11 1105.45L2864.12 1107.07L2855.55 1130.49L2851.43 1129.08C2837.41 1124.38 2824.73 1122.03 2813.39 1122.03C2804.42 1122.03 2796.11 1123.51 2788.45 1126.47C2780.87 1129.37 2774.54 1133.27 2769.48 1138.18C2764.5 1143.1 2760.6 1148.73 2757.78 1155.09C2755.03 1161.45 2753.66 1168.1 2753.66 1175.04C2753.66 1182.19 2755.14 1189.02 2758.1 1195.52C2761.14 1201.96 2765.33 1207.63 2770.68 1212.54C2776.1 1217.38 2782.89 1221.25 2791.06 1224.14C2799.22 1226.96 2808.15 1228.37 2817.83 1228.37C2829.68 1228.37 2841.53 1226.27 2853.38 1222.08L2857.4 1220.67L2866.28 1242.35L2862.27 1244.09C2846.59 1250.81 2830.04 1254.17 2812.63 1254.17C2799.11 1254.17 2786.83 1252.11 2775.77 1247.99C2764.79 1243.87 2755.72 1238.23 2748.56 1231.08C2741.41 1223.85 2735.88 1215.47 2731.98 1205.93C2728.15 1196.39 2726.23 1186.13 2726.23 1175.15C2726.23 1164.02 2728.22 1153.68 2732.2 1144.14C2736.17 1134.6 2741.84 1126.33 2749.21 1119.32C2756.58 1112.31 2765.83 1106.82 2776.96 1102.84C2788.09 1098.87 2800.45 1096.88 2814.04 1096.88ZM2946.82 1142.84C2964.75 1142.84 2979.16 1147.58 2990.08 1157.04C3001.06 1166.44 3006.55 1179.59 3006.55 1196.5C3006.55 1214.28 3000.95 1228.33 2989.75 1238.67C2978.62 1249 2963.63 1254.17 2944.76 1254.17C2926.84 1254.17 2912.5 1249.33 2901.73 1239.64C2891.04 1229.89 2885.69 1216.52 2885.69 1199.54C2885.69 1182.12 2891.14 1168.32 2902.06 1158.13C2913.04 1147.94 2927.96 1142.84 2946.82 1142.84ZM2945.09 1166.91C2939.53 1166.91 2934.29 1167.96 2929.37 1170.05C2924.46 1172.15 2920.3 1175.54 2916.91 1180.24C2913.58 1184.94 2911.92 1190.47 2911.92 1196.83C2911.92 1206.22 2915.17 1214.13 2921.68 1220.56C2928.18 1226.92 2936.63 1230.1 2947.04 1230.1C2956.51 1230.1 2964.42 1227.32 2970.78 1221.76C2977.14 1216.19 2980.32 1208.82 2980.32 1199.64C2980.32 1194.37 2979.27 1189.6 2977.18 1185.33C2975.08 1181 2972.33 1177.53 2968.94 1174.93C2965.54 1172.33 2961.78 1170.34 2957.66 1168.97C2953.54 1167.59 2949.35 1166.91 2945.09 1166.91ZM3035.28 1168.64H3137.39V1192.6H3035.28V1168.64ZM3227.68 1142.84C3233.1 1142.84 3238.34 1143.38 3243.4 1144.47C3248.46 1145.55 3253.45 1147.43 3258.36 1150.11C3263.28 1152.71 3267.54 1156.03 3271.15 1160.08C3274.77 1164.05 3277.69 1169.26 3279.93 1175.69C3282.17 1182.05 3283.29 1189.27 3283.29 1197.37C3283.29 1215.07 3277.95 1228.98 3267.25 1239.1C3256.55 1249.15 3242.14 1254.17 3224 1254.17C3215.54 1254.17 3207.27 1252.94 3199.18 1250.48V1309.56H3171.43V1144.9H3191.15L3193.65 1150C3204.7 1145.23 3216.05 1142.84 3227.68 1142.84ZM3220.64 1166.47C3213.48 1166.47 3206.33 1167.74 3199.18 1170.27V1228.04C3206.69 1230.21 3213.95 1231.3 3220.96 1231.3C3224.22 1231.3 3227.36 1231.04 3230.39 1230.54C3233.43 1230.03 3236.61 1229.09 3239.93 1227.72C3243.26 1226.27 3246.15 1224.43 3248.61 1222.19C3251.06 1219.95 3253.09 1216.95 3254.68 1213.19C3256.27 1209.36 3257.06 1204.99 3257.06 1200.08C3257.06 1194.66 3256.23 1189.89 3254.57 1185.77C3252.98 1181.58 3250.95 1178.33 3248.5 1176.01C3246.04 1173.63 3243.11 1171.68 3239.72 1170.16C3236.32 1168.64 3233.1 1167.67 3230.07 1167.23C3227.03 1166.73 3223.89 1166.47 3220.64 1166.47ZM3315.27 1097.97H3345.19V1127.34H3315.27V1097.97ZM3316.9 1144.9H3343.56V1252H3316.9V1144.9ZM3384.75 1088.21H3411.42V1252H3384.75V1088.21ZM3508.33 1142.84C3526.25 1142.84 3540.67 1147.58 3551.58 1157.04C3562.56 1166.44 3568.06 1179.59 3568.06 1196.5C3568.06 1214.28 3562.46 1228.33 3551.25 1238.67C3540.12 1249 3525.13 1254.17 3506.27 1254.17C3488.35 1254.17 3474 1249.33 3463.23 1239.64C3452.54 1229.89 3447.19 1216.52 3447.19 1199.54C3447.19 1182.12 3452.65 1168.32 3463.56 1158.13C3474.54 1147.94 3489.47 1142.84 3508.33 1142.84ZM3506.59 1166.91C3501.03 1166.91 3495.79 1167.96 3490.88 1170.05C3485.96 1172.15 3481.81 1175.54 3478.41 1180.24C3475.09 1184.94 3473.42 1190.47 3473.42 1196.83C3473.42 1206.22 3476.68 1214.13 3483.18 1220.56C3489.68 1226.92 3498.14 1230.1 3508.54 1230.1C3518.01 1230.1 3525.92 1227.32 3532.28 1221.76C3538.64 1216.19 3541.82 1208.82 3541.82 1199.64C3541.82 1194.37 3540.78 1189.6 3538.68 1185.33C3536.58 1181 3533.84 1177.53 3530.44 1174.93C3527.04 1172.33 3523.29 1170.34 3519.17 1168.97C3515.05 1167.59 3510.86 1166.91 3506.59 1166.91ZM3673.09 1250.05C3662.47 1252.79 3653.58 1254.17 3646.43 1254.17C3639.56 1254.17 3633.64 1253.48 3628.65 1252.11C3623.74 1250.74 3619.87 1249 3617.05 1246.91C3614.23 1244.74 3611.99 1241.99 3610.33 1238.67C3608.74 1235.27 3607.69 1231.98 3607.19 1228.8C3606.68 1225.62 3606.43 1221.9 3606.43 1217.64V1167.77H3589.84V1144.9H3606.43V1114.23H3633.09V1144.9H3672.44V1167.77H3633.09V1215.79C3633.09 1217.6 3633.38 1219.34 3633.96 1221C3634.61 1222.66 3635.62 1224.32 3637 1225.98C3638.37 1227.65 3640.43 1228.98 3643.18 1230C3645.92 1230.93 3649.17 1231.4 3652.93 1231.4C3654.88 1231.4 3660.16 1230.68 3668.76 1229.24L3672.99 1228.48L3677.21 1248.96L3673.09 1250.05ZM3777.16 1138.51C3777.16 1136.12 3777.16 1134.21 3777.16 1132.76C3777.23 1131.32 3777.41 1129.33 3777.7 1126.8C3777.99 1124.27 3778.38 1122.17 3778.89 1120.51C3779.47 1118.85 3780.26 1116.9 3781.28 1114.66C3782.36 1112.35 3783.62 1110.47 3785.07 1109.02C3786.59 1107.5 3788.5 1105.95 3790.81 1104.36C3793.13 1102.7 3795.76 1101.4 3798.73 1100.46C3801.69 1099.45 3805.2 1098.65 3809.24 1098.07C3813.29 1097.42 3817.77 1097.1 3822.68 1097.1C3831.72 1097.1 3841.18 1098.58 3851.08 1101.54L3854.99 1102.74L3850.54 1124.42L3845.99 1123.33C3839.12 1121.67 3833.78 1120.84 3829.95 1120.84C3821.06 1120.84 3814.48 1122.32 3810.22 1125.28C3805.95 1128.25 3803.82 1132.4 3803.82 1137.75V1144.9H3846.64V1167.77H3803.82V1252H3777.16V1167.77H3759.49V1144.9H3777.16V1138.51ZM3926.75 1142.84C3944.67 1142.84 3959.08 1147.58 3970 1157.04C3980.98 1166.44 3986.47 1179.59 3986.47 1196.5C3986.47 1214.28 3980.87 1228.33 3969.67 1238.67C3958.54 1249 3943.55 1254.17 3924.69 1254.17C3906.76 1254.17 3892.42 1249.33 3881.65 1239.64C3870.96 1229.89 3865.61 1216.52 3865.61 1199.54C3865.61 1182.12 3871.07 1168.32 3881.98 1158.13C3892.96 1147.94 3907.88 1142.84 3926.75 1142.84ZM3925.01 1166.91C3919.45 1166.91 3914.21 1167.96 3909.29 1170.05C3904.38 1172.15 3900.22 1175.54 3896.83 1180.24C3893.5 1184.94 3891.84 1190.47 3891.84 1196.83C3891.84 1206.22 3895.09 1214.13 3901.6 1220.56C3908.1 1226.92 3916.56 1230.1 3926.96 1230.1C3936.43 1230.1 3944.34 1227.32 3950.7 1221.76C3957.06 1216.19 3960.24 1208.82 3960.24 1199.64C3960.24 1194.37 3959.19 1189.6 3957.1 1185.33C3955 1181 3952.26 1177.53 3948.86 1174.93C3945.46 1172.33 3941.71 1170.34 3937.59 1168.97C3933.47 1167.59 3929.28 1166.91 3925.01 1166.91ZM4041.11 1150.65C4052.38 1145.44 4064.41 1142.84 4077.2 1142.84C4085.37 1142.84 4092.81 1144.4 4099.53 1147.5L4103.33 1149.24L4094.87 1171.46L4090.64 1169.83C4085.59 1167.88 4080.09 1166.91 4074.17 1166.91C4064.7 1166.91 4055.6 1168.61 4046.85 1172V1252H4020.19V1144.9H4037.96L4041.11 1150.65ZM4240.23 1142.84C4246.45 1142.84 4252.01 1143.53 4256.93 1144.9C4261.91 1146.2 4266 1147.9 4269.18 1150C4272.43 1152.02 4275.21 1154.69 4277.52 1158.02C4279.91 1161.27 4281.71 1164.41 4282.94 1167.45C4284.17 1170.41 4285.11 1173.99 4285.76 1178.18C4286.48 1182.37 4286.92 1185.91 4287.06 1188.8C4287.21 1191.69 4287.28 1195.13 4287.28 1199.1V1211.24H4206.74C4208.26 1216.59 4212.56 1221.25 4219.64 1225.23C4226.72 1229.13 4236.04 1231.08 4247.61 1231.08C4255.77 1231.08 4264.08 1229.85 4272.54 1227.39L4276.98 1226.09L4282.29 1246.69L4278.39 1247.99C4266.32 1252.11 4253.46 1254.17 4239.8 1254.17C4230.26 1254.17 4221.81 1253.12 4214.44 1251.02C4207.06 1248.93 4201.14 1246.22 4196.66 1242.89C4192.25 1239.57 4188.6 1235.56 4185.71 1230.86C4182.89 1226.17 4180.94 1221.47 4179.86 1216.77C4178.77 1212.07 4178.23 1207.05 4178.23 1201.7C4178.23 1193.75 4179.35 1186.49 4181.59 1179.92C4183.9 1173.27 4187.01 1167.7 4190.91 1163.22C4194.89 1158.67 4199.51 1154.84 4204.79 1151.73C4210.14 1148.62 4215.77 1146.38 4221.7 1145.01C4227.62 1143.57 4233.8 1142.84 4240.23 1142.84ZM4235.79 1167.12C4227.48 1167.12 4220.83 1169.22 4215.84 1173.41C4210.86 1177.53 4207.9 1182.7 4206.96 1188.91H4261.05C4260.47 1181.11 4258.01 1175.54 4253.68 1172.22C4249.34 1168.82 4243.38 1167.12 4235.79 1167.12ZM4423.43 1144.9L4381.26 1252H4352.54L4308.42 1144.9H4339.2L4367.6 1223.82L4395.46 1144.9H4423.43ZM4502.99 1142.84C4509.21 1142.84 4514.77 1143.53 4519.69 1144.9C4524.67 1146.2 4528.75 1147.9 4531.93 1150C4535.19 1152.02 4537.97 1154.69 4540.28 1158.02C4542.67 1161.27 4544.47 1164.41 4545.7 1167.45C4546.93 1170.41 4547.87 1173.99 4548.52 1178.18C4549.24 1182.37 4549.68 1185.91 4549.82 1188.8C4549.96 1191.69 4550.04 1195.13 4550.04 1199.1V1211.24H4469.5C4471.01 1216.59 4475.31 1221.25 4482.4 1225.23C4489.48 1229.13 4498.8 1231.08 4510.36 1231.08C4518.53 1231.08 4526.84 1229.85 4535.29 1227.39L4539.74 1226.09L4545.05 1246.69L4541.15 1247.99C4529.08 1252.11 4516.22 1254.17 4502.56 1254.17C4493.02 1254.17 4484.56 1253.12 4477.19 1251.02C4469.82 1248.93 4463.9 1246.22 4459.42 1242.89C4455.01 1239.57 4451.36 1235.56 4448.47 1230.86C4445.65 1226.17 4443.7 1221.47 4442.61 1216.77C4441.53 1212.07 4440.99 1207.05 4440.99 1201.7C4440.99 1193.75 4442.11 1186.49 4444.35 1179.92C4446.66 1173.27 4449.77 1167.7 4453.67 1163.22C4457.65 1158.67 4462.27 1154.84 4467.55 1151.73C4472.89 1148.62 4478.53 1146.38 4484.46 1145.01C4490.38 1143.57 4496.56 1142.84 4502.99 1142.84ZM4498.55 1167.12C4490.24 1167.12 4483.59 1169.22 4478.6 1173.41C4473.62 1177.53 4470.65 1182.7 4469.71 1188.91H4523.8C4523.23 1181.11 4520.77 1175.54 4516.43 1172.22C4512.1 1168.82 4506.14 1167.12 4498.55 1167.12ZM4604.56 1150.65C4615.83 1145.44 4627.87 1142.84 4640.66 1142.84C4648.82 1142.84 4656.27 1144.4 4662.99 1147.5L4666.78 1149.24L4658.33 1171.46L4654.1 1169.83C4649.04 1167.88 4643.55 1166.91 4637.62 1166.91C4628.16 1166.91 4619.05 1168.61 4610.31 1172V1252H4583.64V1144.9H4601.42L4604.56 1150.65ZM4672.31 1144.9H4702.88L4738.11 1227.18L4770.19 1144.9H4798.27L4728.68 1309.56H4696.16L4722.61 1252.87L4672.31 1144.9ZM4879.68 1097.97H4909.59V1127.34H4879.68V1097.97ZM4881.3 1144.9H4907.97V1262.41C4907.97 1264.86 4907.93 1267 4907.86 1268.8C4907.79 1270.61 4907.5 1272.92 4906.99 1275.74C4906.56 1278.63 4905.95 1281.16 4905.15 1283.33C4904.36 1285.57 4903.16 1288.02 4901.57 1290.7C4900.06 1293.37 4898.21 1295.76 4896.04 1297.85C4893.88 1300.02 4891.09 1302.15 4887.7 1304.25C4884.37 1306.34 4880.62 1308.15 4876.42 1309.67L4872.74 1310.97L4862.22 1289.94L4866.34 1287.99C4876.32 1283.29 4881.3 1275.38 4881.3 1264.25V1144.9ZM5001.19 1142.84C5019.11 1142.84 5033.53 1147.58 5044.44 1157.04C5055.43 1166.44 5060.92 1179.59 5060.92 1196.5C5060.92 1214.28 5055.32 1228.33 5044.12 1238.67C5032.99 1249 5017.99 1254.17 4999.13 1254.17C4981.21 1254.17 4966.87 1249.33 4956.1 1239.64C4945.4 1229.89 4940.05 1216.52 4940.05 1199.54C4940.05 1182.12 4945.51 1168.32 4956.42 1158.13C4967.41 1147.94 4982.33 1142.84 5001.19 1142.84ZM4999.46 1166.91C4993.89 1166.91 4988.65 1167.96 4983.74 1170.05C4978.83 1172.15 4974.67 1175.54 4971.27 1180.24C4967.95 1184.94 4966.29 1190.47 4966.29 1196.83C4966.29 1206.22 4969.54 1214.13 4976.04 1220.56C4982.55 1226.92 4991 1230.1 5001.41 1230.1C5010.88 1230.1 5018.79 1227.32 5025.15 1221.76C5031.51 1216.19 5034.69 1208.82 5034.69 1199.64C5034.69 1194.37 5033.64 1189.6 5031.54 1185.33C5029.45 1181 5026.7 1177.53 5023.3 1174.93C5019.91 1172.33 5016.15 1170.34 5012.03 1168.97C5007.91 1167.59 5003.72 1166.91 4999.46 1166.91ZM5174.3 1144.9H5200.97V1252H5181.13L5177.99 1244.74C5163.46 1251.02 5149.48 1254.17 5136.04 1254.17C5129.03 1254.17 5122.96 1253.26 5117.83 1251.46C5112.7 1249.58 5108.65 1247.23 5105.69 1244.41C5102.8 1241.52 5100.48 1237.94 5098.75 1233.68C5097.02 1229.42 5095.9 1225.33 5095.39 1221.43C5094.88 1217.53 5094.63 1213.12 5094.63 1208.21V1144.9H5121.3V1207.99C5121.3 1209.87 5121.37 1211.53 5121.51 1212.98C5121.73 1214.42 5122.27 1216.26 5123.14 1218.5C5124.01 1220.67 5125.24 1222.48 5126.83 1223.92C5128.42 1225.37 5130.8 1226.63 5133.98 1227.72C5137.16 1228.8 5140.92 1229.34 5145.25 1229.34C5153.92 1229.34 5163.61 1227.36 5174.3 1223.38V1144.9ZM5261.02 1150.65C5272.3 1145.44 5284.33 1142.84 5297.12 1142.84C5305.29 1142.84 5312.73 1144.4 5319.45 1147.5L5323.24 1149.24L5314.79 1171.46L5310.56 1169.83C5305.5 1167.88 5300.01 1166.91 5294.08 1166.91C5284.62 1166.91 5275.51 1168.61 5266.77 1172V1252H5240.1V1144.9H5257.88L5261.02 1150.65ZM5342.86 1144.9H5361.51L5365.19 1152.27C5380.08 1145.91 5393.92 1142.73 5406.71 1142.73C5413.65 1142.73 5419.65 1143.67 5424.7 1145.55C5429.76 1147.43 5433.74 1149.78 5436.63 1152.6C5439.52 1155.42 5441.79 1158.99 5443.46 1163.33C5445.19 1167.59 5446.31 1171.68 5446.82 1175.58C5447.32 1179.48 5447.58 1183.89 5447.58 1188.8V1252H5420.91V1189.13C5420.91 1187.11 5420.8 1185.37 5420.58 1183.93C5420.44 1182.41 5419.93 1180.57 5419.07 1178.4C5418.2 1176.16 5417.01 1174.35 5415.49 1172.98C5413.97 1171.53 5411.66 1170.3 5408.55 1169.29C5405.52 1168.21 5401.9 1167.67 5397.71 1167.67C5389.26 1167.67 5379.86 1169.65 5369.53 1173.63V1252H5342.86V1144.9ZM5543.18 1142.84C5549.4 1142.84 5554.96 1143.53 5559.88 1144.9C5564.86 1146.2 5568.95 1147.9 5572.13 1150C5575.38 1152.02 5578.16 1154.69 5580.47 1158.02C5582.86 1161.27 5584.66 1164.41 5585.89 1167.45C5587.12 1170.41 5588.06 1173.99 5588.71 1178.18C5589.43 1182.37 5589.87 1185.91 5590.01 1188.8C5590.16 1191.69 5590.23 1195.13 5590.23 1199.1V1211.24H5509.69C5511.21 1216.59 5515.51 1221.25 5522.59 1225.23C5529.67 1229.13 5538.99 1231.08 5550.55 1231.08C5558.72 1231.08 5567.03 1229.85 5575.49 1227.39L5579.93 1226.09L5585.24 1246.69L5581.34 1247.99C5569.27 1252.11 5556.41 1254.17 5542.75 1254.17C5533.21 1254.17 5524.76 1253.12 5517.38 1251.02C5510.01 1248.93 5504.09 1246.22 5499.61 1242.89C5495.2 1239.57 5491.55 1235.56 5488.66 1230.86C5485.84 1226.17 5483.89 1221.47 5482.81 1216.77C5481.72 1212.07 5481.18 1207.05 5481.18 1201.7C5481.18 1193.75 5482.3 1186.49 5484.54 1179.92C5486.85 1173.27 5489.96 1167.7 5493.86 1163.22C5497.84 1158.67 5502.46 1154.84 5507.74 1151.73C5513.08 1148.62 5518.72 1146.38 5524.65 1145.01C5530.57 1143.57 5536.75 1142.84 5543.18 1142.84ZM5538.74 1167.12C5530.43 1167.12 5523.78 1169.22 5518.79 1173.41C5513.81 1177.53 5510.84 1182.7 5509.91 1188.91H5564C5563.42 1181.11 5560.96 1175.54 5556.62 1172.22C5552.29 1168.82 5546.33 1167.12 5538.74 1167.12ZM5609.74 1144.9H5640.31L5675.54 1227.18L5707.62 1144.9H5735.7L5666.11 1309.56H5633.59L5660.04 1252.87L5609.74 1144.9Z" fill="#0D4B37"/>
<path d="M4545.47 511.906C4545.47 529.615 4543.26 546.542 4538.83 562.688C4534.66 578.573 4527.89 593.938 4518.52 608.781C4509.4 623.625 4496.77 636.906 4480.62 648.625C4464.74 660.344 4445.86 669.458 4423.98 675.969L4591.56 908H4463.44L4307.97 692.766H4213.83V908H4115.39V352.922H4351.72C4363.44 352.922 4374.11 353.312 4383.75 354.094C4393.65 354.615 4405.49 356.177 4419.3 358.781C4433.36 361.125 4445.73 364.38 4456.41 368.547C4467.34 372.714 4478.54 378.833 4490 386.906C4501.72 394.979 4511.35 404.484 4518.91 415.422C4526.72 426.099 4533.1 439.771 4538.05 456.438C4542.99 472.844 4545.47 491.333 4545.47 511.906ZM4213.83 443.156V602.141H4304.45C4320.08 602.141 4333.88 601.62 4345.86 600.578C4357.84 599.536 4370.21 597.453 4382.97 594.328C4395.73 590.943 4406.15 586.385 4414.22 580.656C4422.55 574.927 4429.32 566.984 4434.53 556.828C4440 546.672 4442.73 534.693 4442.73 520.891C4442.73 469.068 4402.76 443.156 4322.81 443.156H4213.83Z" fill="#0D4B37"/>
<path d="M5214.98 827.531C5161.08 886.385 5083.99 915.812 4983.73 915.812C4941.03 915.812 4901.96 910.344 4866.55 899.406C4831.39 888.208 4801.96 873.495 4778.27 855.266C4754.57 836.776 4734.52 815.161 4718.11 790.422C4701.96 765.682 4690.24 740.031 4682.95 713.469C4675.66 686.646 4672.02 659.172 4672.02 631.047C4672.02 601.62 4676.05 573.234 4684.12 545.891C4692.2 518.547 4704.7 492.896 4721.62 468.938C4738.81 444.979 4759.39 424.146 4783.34 406.438C4807.56 388.469 4836.73 374.406 4870.84 364.25C4904.96 353.833 4942.2 348.625 4982.56 348.625C5056.26 348.625 5122.54 365.031 5181.39 397.844L5195.06 405.656L5154.05 483L5139.98 475.578C5121.49 466.203 5098.32 457.87 5070.45 450.578C5042.59 443.026 5014.59 439.25 4986.47 439.25C4958.86 439.25 4932.17 443.547 4906.39 452.141C4880.61 460.734 4857.56 472.844 4837.25 488.469C4817.2 504.094 4801.05 524.016 4788.81 548.234C4776.83 572.193 4770.84 598.495 4770.84 627.141C4770.84 664.901 4780.74 698.885 4800.53 729.094C4820.32 759.302 4847.67 782.87 4882.56 799.797C4917.72 816.464 4957.17 824.797 5000.92 824.797C5048.84 824.797 5088.03 813.99 5118.5 792.375V685.734H4944.67V599.016H5214.98V827.531Z" fill="#0D4B37"/>
<path d="M5344.47 908V352.922H5733.92V443.547H5443.3V576.75H5712.44V667.375H5443.3V817.375H5733.92V908H5344.47Z" fill="#0D4B37"/>
<path d="M2047.53 352.922H2156.12L2465.89 779.484V352.922H2564.33V908H2454.56L2145.97 480.656V908H2047.53V352.922Z" fill="#0D4B37"/>
<path d="M2055 1166L2566 1166" stroke="#0D4B37" stroke-width="26" stroke-linecap="round"/>
</svg>
