<svg xmlns="http://www.w3.org/2000/svg" width="141" height="44" viewBox="0 0 141 44" fill="none">
<path d="M97.2139 9.39941C98.7871 9.39945 100.161 9.71941 101.334 10.3594C102.534 10.9994 103.454 11.8399 104.094 12.8799V9.71973H110.934V32C110.934 34.0532 110.52 35.9063 109.693 37.5596C108.893 39.2395 107.654 40.5729 105.974 41.5596C104.32 42.5462 102.253 43.04 99.7734 43.04C96.4669 43.04 93.7867 42.253 91.7334 40.6797C89.6802 39.133 88.5072 37.026 88.2139 34.3594H94.9736C95.1869 35.2125 95.6935 35.8794 96.4932 36.3594C97.2931 36.866 98.28 37.12 99.4531 37.1201C100.866 37.1201 101.987 36.7065 102.813 35.8799C103.667 35.0799 104.094 33.7865 104.094 32V28.8398C103.427 29.8797 102.507 30.7328 101.334 31.3994C100.161 32.0394 98.7871 32.3593 97.2139 32.3594C95.374 32.3594 93.7071 31.8932 92.2139 30.96C90.7205 30 89.5333 28.6532 88.6533 26.9199C87.8 25.1599 87.374 23.1331 87.374 20.8398C87.374 18.5466 87.8 16.5331 88.6533 14.7998C89.5333 13.0665 90.7205 11.7331 92.2139 10.7998C93.7072 9.86654 95.3739 9.39941 97.2139 9.39941ZM11.2002 9.39941C14.0002 9.39942 16.3335 10.133 18.2002 11.5996C20.0935 13.0663 21.3333 15.1331 21.9199 17.7998H14.6406C14.0273 16.0931 12.8401 15.2393 11.0801 15.2393C9.82679 15.2393 8.82673 15.7331 8.08008 16.7197C7.33343 17.6797 6.95996 19.0666 6.95996 20.8799C6.95998 22.6931 7.33343 24.0934 8.08008 25.0801C8.82671 26.0399 9.82686 26.5195 11.0801 26.5195C12.8401 26.5195 14.0273 25.6666 14.6406 23.96H21.9199C21.3332 26.5732 20.0935 28.6268 18.2002 30.1201C16.3069 31.6134 13.9734 32.3594 11.2002 32.3594C9.01362 32.3594 7.06696 31.8932 5.36035 30.96C3.68043 30.0267 2.36038 28.6932 1.40039 26.96C0.467076 25.2267 1.83836e-05 23.1998 0 20.8799C0 18.5599 0.467057 16.5331 1.40039 14.7998C2.36039 13.0665 3.68037 11.7331 5.36035 10.7998C7.06699 9.86651 9.01358 9.39941 11.2002 9.39941ZM52.0957 9.39941C54.2556 9.39941 56.1755 9.85319 57.8555 10.7598C59.5354 11.6664 60.8421 12.9598 61.7754 14.6396C62.7354 16.3196 63.2158 18.2796 63.2158 20.5195C63.2158 21.1595 63.1757 21.8263 63.0957 22.5195H47.6162C47.7229 23.9061 48.1623 24.9731 48.9355 25.7197C49.7355 26.4397 50.7089 26.7997 51.8555 26.7998C53.5621 26.7998 54.7494 26.0796 55.416 24.6396H62.6963C62.323 26.1062 61.6428 27.4264 60.6562 28.5996C59.6963 29.7729 58.4823 30.6927 57.0156 31.3594C55.549 32.026 53.909 32.3594 52.0957 32.3594C49.9091 32.3594 47.9625 31.8932 46.2559 30.96C44.5493 30.0267 43.2159 28.6932 42.2559 26.96C41.2959 25.2267 40.8154 23.1998 40.8154 20.8799C40.8154 18.5599 41.2825 16.5331 42.2158 14.7998C43.1758 13.0665 44.5092 11.7331 46.2158 10.7998C47.9225 9.86648 49.8824 9.39943 52.0957 9.39941ZM128.522 9.39941C130.709 9.39947 132.682 9.86653 134.442 10.7998C136.202 11.7331 137.589 13.0799 138.603 14.8398C139.616 16.5731 140.122 18.5867 140.122 20.8799C140.122 23.1731 139.602 25.2 138.562 26.96C137.549 28.6933 136.149 30.0266 134.362 30.96C132.602 31.8932 130.629 32.3593 128.442 32.3594C126.256 32.3594 124.282 31.8932 122.522 30.96C120.789 30.0267 119.416 28.6932 118.402 26.96C117.416 25.2267 116.922 23.1998 116.922 20.8799C116.922 18.5865 117.429 16.5732 118.442 14.8398C119.456 13.0799 120.843 11.7331 122.603 10.7998C124.362 9.8666 126.336 9.39941 128.522 9.39941ZM34.8193 32.04H27.9785V9.71973H34.8193V32.04ZM83.0645 16.7197H81.1846C79.4779 16.7197 78.1971 17.0932 77.3438 17.8398C76.4906 18.5599 76.0645 19.84 76.0645 21.6797V32.04H69.2246V9.71973H76.0645V13.4395C76.8644 12.2129 77.8646 11.2528 79.0645 10.5596C80.2644 9.83966 81.5979 9.47949 83.0645 9.47949V16.7197ZM128.522 15.3193C127.189 15.3193 126.082 15.7998 125.202 16.7598C124.322 17.6931 123.882 19.0665 123.882 20.8799C123.882 22.6665 124.309 24.04 125.162 25C126.042 25.9599 127.136 26.4395 128.442 26.4395C129.749 26.4394 130.855 25.9597 131.762 25C132.695 24.04 133.162 22.6665 133.162 20.8799C133.162 19.0932 132.708 17.7198 131.802 16.7598C130.922 15.8 129.829 15.3194 128.522 15.3193ZM99.2139 15.3594C97.8539 15.3594 96.6934 15.8532 95.7334 16.8398C94.8002 17.7998 94.334 19.1333 94.334 20.8398C94.334 22.5465 94.8001 23.9066 95.7334 24.9199C96.6934 25.9066 97.8539 26.3994 99.2139 26.3994C100.574 26.3994 101.72 25.9064 102.653 24.9199C103.613 23.9333 104.094 22.5865 104.094 20.8799C104.094 19.1732 103.613 17.8265 102.653 16.8398C101.72 15.8533 100.574 15.3594 99.2139 15.3594ZM52.0156 14.8799C50.869 14.8799 49.8957 15.2133 49.0957 15.8799C48.3225 16.5465 47.8429 17.4932 47.6562 18.7197H56.2158C56.2158 17.5464 55.8156 16.6133 55.0156 15.9199C54.2156 15.2266 53.2156 14.8799 52.0156 14.8799ZM31.4189 0C32.5923 4.04786e-06 33.5522 0.360082 34.2988 1.08008C35.0721 1.77339 35.459 2.65312 35.459 3.71973C35.459 4.75967 35.0721 5.6394 34.2988 6.35938C33.5522 7.0527 32.5923 7.39941 31.4189 7.39941C30.2189 7.39941 29.2323 7.05271 28.459 6.35938C27.7124 5.6394 27.3389 4.75965 27.3389 3.71973C27.3389 2.65313 27.7124 1.77339 28.459 1.08008C29.2323 0.360078 30.2189 0 31.4189 0Z" fill="#7135AD"/>
</svg>