<svg width="20" height="20" viewBox="0 0 20 20" fill="none" xmlns="http://www.w3.org/2000/svg">
<path d="M9.99969 8.47833C11.4714 6.15833 12.7622 5 13.873 5C15.5397 5 16.5922 6.84417 17.2064 9.3475C17.793 11.7383 17.623 15 15.5397 15C14.6114 15 13.333 13.6958 12.083 11.9567C11.2876 10.8607 10.5905 9.69679 9.99969 8.47833ZM9.99969 8.47833C8.52803 6.15833 7.23719 5 6.12636 5C4.45969 5 3.40719 6.84417 2.79302 9.3475C2.20636 11.7383 2.37636 15 4.45969 15C5.38802 15 6.66636 13.6958 7.91636 11.9567C8.74969 10.7975 9.44386 9.6375 9.99969 8.47833Z" stroke="#818181" stroke-width="1.5" stroke-linecap="round" stroke-linejoin="round"/>
</svg>
