<svg width="20" height="20" viewBox="0 0 20 20" fill="none" xmlns="http://www.w3.org/2000/svg">
<path d="M5.41602 8.33341V7.59267C5.41602 7.19976 5.56234 6.82294 5.82281 6.54511C6.08328 6.26728 6.43655 6.11119 6.8049 6.11119H8.19379C8.56215 6.11119 8.91542 6.26728 9.17589 6.54511C9.43635 6.82294 9.58268 7.19976 9.58268 7.59267V8.33341M8.88824 3.14823C8.88824 3.96643 8.26641 4.62971 7.49935 4.62971C6.73229 4.62971 6.11046 3.96643 6.11046 3.14823C6.11046 2.33003 6.73229 1.66675 7.49935 1.66675C8.26641 1.66675 8.88824 2.33003 8.88824 3.14823Z" stroke="#818181" stroke-width="1.2" stroke-linecap="round" stroke-linejoin="round"/>
<path d="M12.084 19.1667V18.4259C12.084 18.033 12.2303 17.6562 12.4908 17.3784C12.7512 17.1005 13.1045 16.9444 13.4729 16.9444H14.8618C15.2301 16.9444 15.5834 17.1005 15.8439 17.3784C16.1043 17.6562 16.2507 18.033 16.2507 18.4259V19.1667M15.5562 13.9815C15.5562 14.7997 14.9344 15.463 14.1673 15.463C13.4003 15.463 12.7784 14.7997 12.7784 13.9815C12.7784 13.1633 13.4003 12.5 14.1673 12.5C14.9344 12.5 15.5562 13.1633 15.5562 13.9815Z" stroke="#818181" stroke-width="1.2" stroke-linecap="round" stroke-linejoin="round"/>
<path d="M8.38574 16.6004L6.71949 16.6531C6.05653 16.6636 5.41656 16.4103 4.94036 15.9489C4.46417 15.4875 4.19076 14.8559 4.18028 14.1929L4.11442 10.0268M2.48758 11.7326L4.11442 10.0268L5.82029 11.6536" stroke="#818181" stroke-width="1.2" stroke-linecap="round" stroke-linejoin="round"/>
<path d="M11.6667 4.16675L13.3333 4.16675C13.9964 4.16675 14.6323 4.43014 15.1011 4.89898C15.5699 5.36782 15.8333 6.00371 15.8333 6.66675L15.8333 10.8334M17.5 9.16675L15.8333 10.8334L14.1667 9.16675" stroke="#818181" stroke-width="1.2" stroke-linecap="round" stroke-linejoin="round"/>
</svg>
