<svg width="20" height="20" viewBox="0 0 20 20" fill="none" xmlns="http://www.w3.org/2000/svg">
<path d="M5.83333 6.6665H3.33333C3.11232 6.6665 2.90036 6.7543 2.74408 6.91058C2.5878 7.06686 2.5 7.27882 2.5 7.49984V9.1665C2.5 9.38752 2.5878 9.59948 2.74408 9.75576C2.90036 9.91204 3.11232 9.99984 3.33333 9.99984H5C5.22101 9.99984 5.43298 10.0876 5.58926 10.2439C5.74554 10.4002 5.83333 10.6122 5.83333 10.8332V12.4998C5.83333 12.7209 5.74554 12.9328 5.58926 13.0891C5.43298 13.2454 5.22101 13.3332 5 13.3332H2.5M11.6667 13.3332H8.33333V6.6665H11.6667M9.16667 9.99984H10.8333M15 6.6665H16.6667C17.1269 6.6665 17.5 7.0396 17.5 7.49984V12.4998C17.5 12.9601 17.1269 13.3332 16.6667 13.3332H15C14.5398 13.3332 14.1667 12.9601 14.1667 12.4998V7.49984C14.1667 7.0396 14.5398 6.6665 15 6.6665Z" stroke="#818181" stroke-width="1.5" stroke-linecap="round" stroke-linejoin="round"/>
</svg>
