<svg width="20" height="20" viewBox="0 0 20 20" fill="none" xmlns="http://www.w3.org/2000/svg">
<path d="M5 8.33307C4.99929 7.43381 5.2065 6.54655 5.60544 5.74062C6.00438 4.93469 6.58425 4.2319 7.29975 3.68716C8.01525 3.14243 8.847 2.77049 9.73004 2.6004C10.6131 2.43032 11.5235 2.4667 12.3901 2.70669C13.2568 2.94669 14.0562 3.3838 14.726 3.98389C15.3957 4.58398 15.9177 5.33079 16.251 6.16598C16.5844 7.00118 16.7202 7.90213 16.6477 8.79848C16.5752 9.69482 16.2965 10.5623 15.8333 11.3331C15.3596 11.9648 14.7984 12.526 14.1667 12.9997C13.4281 13.6954 12.8581 14.5504 12.5 15.4997C12.2414 15.9884 11.8779 16.4139 11.4357 16.7456C10.9934 17.0774 10.4832 17.3073 9.94166 17.4188C9.40013 17.5302 8.84065 17.5206 8.30328 17.3905C7.7659 17.2605 7.26394 17.0132 6.83334 16.6664M8.33333 8.33312C8.32833 7.91488 8.42835 7.50207 8.62422 7.13249C8.82009 6.76292 9.10556 6.4484 9.45448 6.21773C9.8034 5.98707 10.2046 5.84764 10.6214 5.81221C11.0382 5.77678 11.4572 5.84648 11.84 6.01494C12.2229 6.18339 12.5573 6.44521 12.8128 6.77641C13.0682 7.10762 13.2365 7.49762 13.3022 7.91071C13.3678 8.32379 13.3288 8.74675 13.1887 9.14085C13.0485 9.53494 12.8117 9.88758 12.5 10.1665" stroke="#818181" stroke-width="1.5" stroke-linecap="round" stroke-linejoin="round"/>
</svg>
