<svg width="2928" height="2928" viewBox="0 0 2928 2928" fill="none" xmlns="http://www.w3.org/2000/svg">
<path d="M1464.01 1290.59C1416.01 1199.09 1288 1032.66 1131.01 1037.09C940.925 1042.44 882.012 1194.09 883.012 1290.59" stroke="white" stroke-width="100"/>
<path d="M1464.01 1289C1416.01 1380.5 1288 1546.93 1131.01 1542.5C940.925 1537.14 882.012 1385.5 883.012 1289" stroke="white" stroke-width="100"/>
<path d="M1464 1290.59C1512 1199.09 1640.02 1032.66 1797 1037.09C1987.09 1042.44 2046 1194.09 2045 1290.59" stroke="white" stroke-width="100"/>
<path d="M1464 1289C1512 1380.5 1640.02 1546.93 1797 1542.5C1987.09 1537.14 2046 1385.5 2045 1289" stroke="white" stroke-width="100"/>
<path d="M1310.5 1289.5C1310.5 1252.3 1295.17 1214.33 1287.5 1200C1334.3 1234 1362 1273.83 1370 1289.5H1310.5Z" fill="white" stroke="white" stroke-linecap="round"/>
<path d="M1310.5 1289C1310.5 1326.2 1295.17 1364.17 1287.5 1378.5C1334.3 1344.5 1362 1304.67 1370 1289H1310.5Z" fill="white" stroke="white" stroke-linecap="round"/>
<path d="M1360 1494L1462 1593L1571 1486" stroke="white" stroke-width="80" stroke-linecap="round"/>
<path d="M1618 1289.5C1618 1252.3 1633.33 1214.33 1641 1200C1594.2 1234 1566.5 1273.83 1558.5 1289.5H1618Z" fill="white" stroke="white" stroke-linecap="round"/>
<path d="M1618 1289C1618 1326.2 1633.33 1364.17 1641 1378.5C1594.2 1344.5 1566.5 1304.67 1558.5 1289H1618Z" fill="white" stroke="white" stroke-linecap="round"/>
<path d="M1017.03 1163C978.5 1207.5 932.002 1313.5 1017.03 1415.5" stroke="white" stroke-width="20" stroke-linecap="round"/>
<path d="M1910.16 1163C1948.69 1207.5 1995.19 1313.5 1910.16 1415.5" stroke="white" stroke-width="20" stroke-linecap="round"/>
<path d="M1464.19 657C1680.72 657 1860.61 778.385 1896.37 938H1812.96C1777.49 832.692 1648.73 737 1464.19 737C1279.64 737 1150.88 832.692 1115.41 938H1032C1067.77 778.385 1247.65 657 1464.19 657Z" fill="white"/>
<path fill-rule="evenodd" clip-rule="evenodd" d="M1940.4 1672C1880.5 1848.97 1741.13 2058.21 1464.93 2270.7L1440.54 2239L1416.15 2207.3C1668.88 2012.86 1797.02 1826.83 1855.47 1672H1940.4Z" fill="white"/>
<path d="M1073.93 1672C1132.38 1826.83 1260.52 2012.86 1513.25 2207.3L1488.86 2239L1464.47 2270.7C1188.28 2058.21 1048.9 1848.97 989 1672H1073.93Z" fill="white"/>
</svg>
