<svg width="8652" height="2928" viewBox="0 0 8652 2928" fill="none" xmlns="http://www.w3.org/2000/svg">
<g clip-path="url(#clip0_267_431)">
<path d="M2595.01 1290.59C2547.01 1199.09 2419 1032.66 2262.01 1037.09C2071.92 1042.44 2013.01 1194.09 2014.01 1290.59" stroke="white" stroke-width="100"/>
<path d="M2595.01 1289C2547.01 1380.5 2419 1546.92 2262.01 1542.5C2071.92 1537.14 2013.01 1385.5 2014.01 1289" stroke="white" stroke-width="100"/>
<path d="M2595 1290.59C2643 1199.09 2771.02 1032.66 2928 1037.09C3118.09 1042.44 3177 1194.09 3176 1290.59" stroke="white" stroke-width="100"/>
<path d="M2595 1289C2643 1380.5 2771.02 1546.92 2928 1542.5C3118.09 1537.14 3177 1385.5 3176 1289" stroke="white" stroke-width="100"/>
<path d="M2441.5 1289.5C2441.5 1252.3 2426.17 1214.33 2418.5 1200C2465.3 1234 2493 1273.83 2501 1289.5H2441.5Z" fill="white" stroke="white" stroke-linecap="round"/>
<path d="M2441.5 1289C2441.5 1326.2 2426.17 1364.17 2418.5 1378.5C2465.3 1344.5 2493 1304.67 2501 1289H2441.5Z" fill="white" stroke="white" stroke-linecap="round"/>
<path d="M2491 1494L2593 1593L2702 1486" stroke="white" stroke-width="80" stroke-linecap="round"/>
<path d="M2749 1289.5C2749 1252.3 2764.33 1214.33 2772 1200C2725.2 1234 2697.5 1273.83 2689.5 1289.5H2749Z" fill="white" stroke="white" stroke-linecap="round"/>
<path d="M2749 1289C2749 1326.2 2764.33 1364.17 2772 1378.5C2725.2 1344.5 2697.5 1304.67 2689.5 1289H2749Z" fill="white" stroke="white" stroke-linecap="round"/>
<path d="M2148.03 1163C2109.5 1207.5 2063 1313.5 2148.03 1415.5" stroke="white" stroke-width="20" stroke-linecap="round"/>
<path d="M3041.16 1163C3079.69 1207.5 3126.19 1313.5 3041.16 1415.5" stroke="white" stroke-width="20" stroke-linecap="round"/>
<path d="M2595.19 657C2811.72 657 2991.61 778.385 3027.37 938H2943.96C2908.49 832.692 2779.73 737 2595.19 737C2410.64 737 2281.88 832.692 2246.41 938H2163C2198.77 778.385 2378.65 657 2595.19 657Z" fill="white"/>
<path fill-rule="evenodd" clip-rule="evenodd" d="M3071.4 1672C3011.5 1848.97 2872.13 2058.21 2595.93 2270.7L2547.15 2207.3C2799.88 2012.86 2928.02 1826.83 2986.47 1672H3071.4Z" fill="white"/>
<path d="M2204.93 1672C2263.38 1826.83 2391.52 2012.86 2644.25 2207.3L2619.86 2239L2595.47 2270.7C2319.28 2058.21 2179.9 1848.97 2120 1672H2204.93Z" fill="white"/>
<mask id="path-15-outside-1_267_431" maskUnits="userSpaceOnUse" x="1398" y="1005" width="508" height="569" fill="black">
<rect fill="white" x="1398" y="1005" width="508" height="569"/>
<path d="M1716.2 1006.02C1774.54 1006.02 1829.88 1016.3 1882.22 1036.88L1896.67 1042.73L1865.81 1127.11L1850.97 1122.03C1800.45 1105.1 1754.74 1096.64 1713.86 1096.64C1681.57 1096.64 1651.62 1101.98 1624.02 1112.66C1596.67 1123.07 1573.89 1137.14 1555.66 1154.84C1537.69 1172.55 1523.62 1192.86 1513.47 1215.78C1503.57 1238.7 1498.62 1262.66 1498.62 1287.66C1498.62 1313.44 1503.96 1338.05 1514.64 1361.48C1525.58 1384.66 1540.68 1405.1 1559.95 1422.81C1579.48 1440.26 1603.96 1454.19 1633.39 1464.61C1662.82 1474.77 1694.98 1479.84 1729.88 1479.84C1772.58 1479.84 1815.29 1472.29 1858 1457.19L1872.45 1452.11L1904.48 1530.23L1890.03 1536.48C1833.52 1560.7 1773.89 1572.81 1711.12 1572.81C1662.43 1572.81 1618.16 1565.39 1578.31 1550.55C1538.73 1535.7 1506.05 1515.39 1480.27 1489.61C1454.48 1463.57 1434.56 1433.36 1420.5 1398.98C1406.7 1364.61 1399.8 1327.63 1399.8 1288.05C1399.8 1247.94 1406.96 1210.7 1421.28 1176.33C1435.6 1141.95 1456.05 1112.14 1482.61 1086.88C1509.17 1061.61 1542.51 1041.82 1582.61 1027.5C1622.71 1013.18 1667.24 1006.02 1716.2 1006.02Z"/>
</mask>
<path d="M1716.2 1006.02C1774.54 1006.02 1829.88 1016.3 1882.22 1036.88L1896.67 1042.73L1865.81 1127.11L1850.97 1122.03C1800.45 1105.1 1754.74 1096.64 1713.86 1096.64C1681.57 1096.64 1651.62 1101.98 1624.02 1112.66C1596.67 1123.07 1573.89 1137.14 1555.66 1154.84C1537.69 1172.55 1523.62 1192.86 1513.47 1215.78C1503.57 1238.7 1498.62 1262.66 1498.62 1287.66C1498.62 1313.44 1503.96 1338.05 1514.64 1361.48C1525.58 1384.66 1540.68 1405.1 1559.95 1422.81C1579.48 1440.26 1603.96 1454.19 1633.39 1464.61C1662.82 1474.77 1694.98 1479.84 1729.88 1479.84C1772.58 1479.84 1815.29 1472.29 1858 1457.19L1872.45 1452.11L1904.48 1530.23L1890.03 1536.48C1833.52 1560.7 1773.89 1572.81 1711.12 1572.81C1662.43 1572.81 1618.16 1565.39 1578.31 1550.55C1538.73 1535.7 1506.05 1515.39 1480.27 1489.61C1454.48 1463.57 1434.56 1433.36 1420.5 1398.98C1406.7 1364.61 1399.8 1327.63 1399.8 1288.05C1399.8 1247.94 1406.96 1210.7 1421.28 1176.33C1435.6 1141.95 1456.05 1112.14 1482.61 1086.88C1509.17 1061.61 1542.51 1041.82 1582.61 1027.5C1622.71 1013.18 1667.24 1006.02 1716.2 1006.02Z" fill="white"/>
<path d="M1882.22 1036.88L1882.59 1035.95L1882.58 1035.94L1882.22 1036.88ZM1896.67 1042.73L1897.61 1043.08L1897.94 1042.17L1897.05 1041.81L1896.67 1042.73ZM1865.81 1127.11L1865.49 1128.06L1866.42 1128.37L1866.75 1127.45L1865.81 1127.11ZM1850.97 1122.03L1851.29 1121.09L1851.29 1121.08L1850.97 1122.03ZM1624.02 1112.66L1624.37 1113.59L1624.38 1113.59L1624.02 1112.66ZM1555.66 1154.84L1554.96 1154.13L1554.95 1154.13L1555.66 1154.84ZM1513.47 1215.78L1512.55 1215.38L1512.55 1215.38L1513.47 1215.78ZM1514.64 1361.48L1513.73 1361.9L1513.74 1361.91L1514.64 1361.48ZM1559.95 1422.81L1559.28 1423.55L1559.29 1423.56L1559.95 1422.81ZM1633.39 1464.61L1633.06 1465.55L1633.06 1465.55L1633.39 1464.61ZM1858 1457.19L1857.67 1456.24L1857.67 1456.24L1858 1457.19ZM1872.45 1452.11L1873.38 1451.73L1873.02 1450.85L1872.12 1451.17L1872.45 1452.11ZM1904.48 1530.23L1904.88 1531.15L1905.78 1530.76L1905.41 1529.86L1904.48 1530.23ZM1890.03 1536.48L1890.43 1537.4L1890.43 1537.4L1890.03 1536.48ZM1578.31 1550.55L1577.96 1551.48L1577.96 1551.48L1578.31 1550.55ZM1480.27 1489.61L1479.55 1490.31L1479.56 1490.32L1480.27 1489.61ZM1420.5 1398.98L1419.57 1399.36L1419.57 1399.36L1420.5 1398.98ZM1421.28 1176.33L1420.36 1175.94L1421.28 1176.33ZM1716.2 1006.02V1007.02C1774.42 1007.02 1829.63 1017.28 1881.85 1037.81L1882.22 1036.88L1882.58 1035.94C1830.12 1015.32 1774.66 1005.02 1716.2 1005.02V1006.02ZM1882.22 1036.88L1881.84 1037.8L1896.3 1043.66L1896.67 1042.73L1897.05 1041.81L1882.59 1035.95L1882.22 1036.88ZM1896.67 1042.73L1895.73 1042.39L1864.87 1126.77L1865.81 1127.11L1866.75 1127.45L1897.61 1043.08L1896.67 1042.73ZM1865.81 1127.11L1866.14 1126.16L1851.29 1121.09L1850.97 1122.03L1850.65 1122.98L1865.49 1128.06L1865.81 1127.11ZM1850.97 1122.03L1851.29 1121.08C1800.69 1104.13 1754.88 1095.64 1713.86 1095.64V1096.64V1097.64C1754.61 1097.64 1800.2 1106.08 1850.65 1122.98L1850.97 1122.03ZM1713.86 1096.64V1095.64C1681.46 1095.64 1651.38 1101 1623.65 1111.72L1624.02 1112.66L1624.38 1113.59C1651.86 1102.96 1681.68 1097.64 1713.86 1097.64V1096.64ZM1624.02 1112.66L1623.66 1111.72C1596.21 1122.18 1573.3 1136.31 1554.96 1154.13L1555.66 1154.84L1556.35 1155.56C1574.47 1137.96 1597.14 1123.97 1624.37 1113.59L1624.02 1112.66ZM1555.66 1154.84L1554.95 1154.13C1536.9 1171.93 1522.76 1192.34 1512.55 1215.38L1513.47 1215.78L1514.38 1216.19C1524.49 1193.39 1538.48 1173.18 1556.36 1155.56L1555.66 1154.84ZM1513.47 1215.78L1512.55 1215.38C1502.6 1238.43 1497.62 1262.52 1497.62 1287.66H1498.62H1499.62C1499.62 1262.79 1504.55 1238.97 1514.39 1216.18L1513.47 1215.78ZM1498.62 1287.66H1497.62C1497.62 1313.58 1502.99 1338.33 1513.73 1361.9L1514.64 1361.48L1515.55 1361.07C1504.93 1337.76 1499.62 1313.29 1499.62 1287.66H1498.62ZM1514.64 1361.48L1513.74 1361.91C1524.73 1385.21 1539.91 1405.75 1559.28 1423.55L1559.95 1422.81L1560.63 1422.08C1541.45 1404.45 1526.43 1384.12 1515.54 1361.06L1514.64 1361.48ZM1559.95 1422.81L1559.29 1423.56C1578.93 1441.11 1603.53 1455.1 1633.06 1465.55L1633.39 1464.61L1633.72 1463.67C1604.4 1453.29 1580.04 1439.41 1560.62 1422.07L1559.95 1422.81ZM1633.39 1464.61L1633.06 1465.55C1662.61 1475.75 1694.88 1480.84 1729.88 1480.84V1479.84V1478.84C1695.08 1478.84 1663.03 1473.78 1633.72 1463.66L1633.39 1464.61ZM1729.88 1479.84V1480.84C1772.7 1480.84 1815.52 1473.27 1858.33 1458.13L1858 1457.19L1857.67 1456.24C1815.06 1471.31 1772.46 1478.84 1729.88 1478.84V1479.84ZM1858 1457.19L1858.33 1458.13L1872.78 1453.05L1872.45 1452.11L1872.12 1451.17L1857.67 1456.24L1858 1457.19ZM1872.45 1452.11L1871.53 1452.49L1903.56 1530.61L1904.48 1530.23L1905.41 1529.86L1873.38 1451.73L1872.45 1452.11ZM1904.48 1530.23L1904.09 1529.32L1889.63 1535.57L1890.03 1536.48L1890.43 1537.4L1904.88 1531.15L1904.48 1530.23ZM1890.03 1536.48L1889.64 1535.57C1833.25 1559.73 1773.75 1571.81 1711.12 1571.81V1572.81V1573.81C1774.02 1573.81 1833.79 1561.68 1890.43 1537.4L1890.03 1536.48ZM1711.12 1572.81V1571.81C1662.53 1571.81 1618.38 1564.41 1578.66 1549.61L1578.31 1550.55L1577.96 1551.48C1617.93 1566.37 1662.32 1573.81 1711.12 1573.81V1572.81ZM1578.31 1550.55L1578.66 1549.61C1539.19 1534.81 1506.64 1514.57 1480.97 1488.9L1480.27 1489.61L1479.56 1490.32C1505.46 1516.21 1538.27 1536.6 1577.96 1551.48L1578.31 1550.55ZM1480.27 1489.61L1480.98 1488.91C1455.29 1462.96 1435.44 1432.86 1421.43 1398.61L1420.5 1398.98L1419.57 1399.36C1433.69 1433.86 1453.68 1464.18 1479.55 1490.31L1480.27 1489.61ZM1420.5 1398.98L1421.43 1398.61C1407.68 1364.36 1400.8 1327.51 1400.8 1288.05H1399.8H1398.8C1398.8 1327.75 1405.72 1364.86 1419.57 1399.36L1420.5 1398.98ZM1399.8 1288.05H1400.8C1400.8 1248.06 1407.94 1210.96 1422.2 1176.71L1421.28 1176.33L1420.36 1175.94C1405.98 1210.45 1398.8 1247.82 1398.8 1288.05H1399.8ZM1421.28 1176.33L1422.2 1176.71C1436.47 1142.46 1456.84 1112.76 1483.3 1087.6L1482.61 1086.88L1481.92 1086.15C1455.26 1111.51 1434.73 1141.44 1420.36 1175.94L1421.28 1176.33ZM1482.61 1086.88L1483.3 1087.6C1509.74 1062.45 1542.95 1042.73 1582.95 1028.44L1582.61 1027.5L1582.27 1026.56C1542.06 1040.92 1508.6 1060.78 1481.92 1086.15L1482.61 1086.88ZM1582.61 1027.5L1582.95 1028.44C1622.93 1014.16 1667.34 1007.02 1716.2 1007.02V1006.02V1005.02C1667.15 1005.02 1622.5 1012.19 1582.27 1026.56L1582.61 1027.5Z" fill="white" mask="url(#path-15-outside-1_267_431)"/>
<mask id="path-17-outside-2_267_431" maskUnits="userSpaceOnUse" x="3964" y="1005" width="508" height="569" fill="black">
<rect fill="white" x="3964" y="1005" width="508" height="569"/>
<path d="M4282.2 1006.02C4340.54 1006.02 4395.88 1016.3 4448.22 1036.88L4462.67 1042.73L4431.81 1127.11L4416.97 1122.03C4366.45 1105.1 4320.74 1096.64 4279.86 1096.64C4247.57 1096.64 4217.62 1101.98 4190.02 1112.66C4162.67 1123.07 4139.89 1137.14 4121.66 1154.84C4103.69 1172.55 4089.62 1192.86 4079.47 1215.78C4069.57 1238.7 4064.62 1262.66 4064.62 1287.66C4064.62 1313.44 4069.96 1338.05 4080.64 1361.48C4091.58 1384.66 4106.68 1405.1 4125.95 1422.81C4145.48 1440.26 4169.96 1454.19 4199.39 1464.61C4228.82 1474.77 4260.98 1479.84 4295.88 1479.84C4338.58 1479.84 4381.29 1472.29 4424 1457.19L4438.45 1452.11L4470.48 1530.23L4456.03 1536.48C4399.52 1560.7 4339.89 1572.81 4277.12 1572.81C4228.43 1572.81 4184.16 1565.39 4144.31 1550.55C4104.73 1535.7 4072.05 1515.39 4046.27 1489.61C4020.48 1463.57 4000.56 1433.36 3986.5 1398.98C3972.7 1364.61 3965.8 1327.63 3965.8 1288.05C3965.8 1247.94 3972.96 1210.7 3987.28 1176.33C4001.6 1141.95 4022.05 1112.14 4048.61 1086.88C4075.17 1061.61 4108.51 1041.82 4148.61 1027.5C4188.71 1013.18 4233.24 1006.02 4282.2 1006.02Z"/>
</mask>
<path d="M4282.2 1006.02C4340.54 1006.02 4395.88 1016.3 4448.22 1036.88L4462.67 1042.73L4431.81 1127.11L4416.97 1122.03C4366.45 1105.1 4320.74 1096.64 4279.86 1096.64C4247.57 1096.64 4217.62 1101.98 4190.02 1112.66C4162.67 1123.07 4139.89 1137.14 4121.66 1154.84C4103.69 1172.55 4089.62 1192.86 4079.47 1215.78C4069.57 1238.7 4064.62 1262.66 4064.62 1287.66C4064.62 1313.44 4069.96 1338.05 4080.64 1361.48C4091.58 1384.66 4106.68 1405.1 4125.95 1422.81C4145.48 1440.26 4169.96 1454.19 4199.39 1464.61C4228.82 1474.77 4260.98 1479.84 4295.88 1479.84C4338.58 1479.84 4381.29 1472.29 4424 1457.19L4438.45 1452.11L4470.48 1530.23L4456.03 1536.48C4399.52 1560.7 4339.89 1572.81 4277.12 1572.81C4228.43 1572.81 4184.16 1565.39 4144.31 1550.55C4104.73 1535.7 4072.05 1515.39 4046.27 1489.61C4020.48 1463.57 4000.56 1433.36 3986.5 1398.98C3972.7 1364.61 3965.8 1327.63 3965.8 1288.05C3965.8 1247.94 3972.96 1210.7 3987.28 1176.33C4001.6 1141.95 4022.05 1112.14 4048.61 1086.88C4075.17 1061.61 4108.51 1041.82 4148.61 1027.5C4188.71 1013.18 4233.24 1006.02 4282.2 1006.02Z" fill="white"/>
<path d="M4448.22 1036.88L4448.59 1035.95L4448.58 1035.94L4448.22 1036.88ZM4462.67 1042.73L4463.61 1043.08L4463.94 1042.17L4463.05 1041.81L4462.67 1042.73ZM4431.81 1127.11L4431.49 1128.06L4432.42 1128.37L4432.75 1127.45L4431.81 1127.11ZM4416.97 1122.03L4417.29 1121.09L4417.29 1121.08L4416.97 1122.03ZM4190.02 1112.66L4190.37 1113.59L4190.38 1113.59L4190.02 1112.66ZM4121.66 1154.84L4120.96 1154.13L4120.95 1154.13L4121.66 1154.84ZM4079.47 1215.78L4078.55 1215.38L4078.55 1215.38L4079.47 1215.78ZM4080.64 1361.48L4079.73 1361.9L4079.74 1361.91L4080.64 1361.48ZM4125.95 1422.81L4125.28 1423.55L4125.29 1423.56L4125.95 1422.81ZM4199.39 1464.61L4199.06 1465.55L4199.06 1465.55L4199.39 1464.61ZM4424 1457.19L4423.67 1456.24L4423.67 1456.24L4424 1457.19ZM4438.45 1452.11L4439.38 1451.73L4439.02 1450.85L4438.12 1451.17L4438.45 1452.11ZM4470.48 1530.23L4470.88 1531.15L4471.78 1530.76L4471.41 1529.86L4470.48 1530.23ZM4456.03 1536.48L4456.43 1537.4L4456.43 1537.4L4456.03 1536.48ZM4144.31 1550.55L4143.96 1551.48L4143.96 1551.48L4144.31 1550.55ZM4046.27 1489.61L4045.55 1490.31L4045.56 1490.32L4046.27 1489.61ZM3986.5 1398.98L3985.57 1399.36L3985.57 1399.36L3986.5 1398.98ZM3987.28 1176.33L3986.36 1175.94L3987.28 1176.33ZM4282.2 1006.02V1007.02C4340.42 1007.02 4395.63 1017.28 4447.85 1037.81L4448.22 1036.88L4448.58 1035.94C4396.12 1015.32 4340.66 1005.02 4282.2 1005.02V1006.02ZM4448.22 1036.88L4447.84 1037.8L4462.3 1043.66L4462.67 1042.73L4463.05 1041.81L4448.59 1035.95L4448.22 1036.88ZM4462.67 1042.73L4461.73 1042.39L4430.87 1126.77L4431.81 1127.11L4432.75 1127.45L4463.61 1043.08L4462.67 1042.73ZM4431.81 1127.11L4432.14 1126.16L4417.29 1121.09L4416.97 1122.03L4416.65 1122.98L4431.49 1128.06L4431.81 1127.11ZM4416.97 1122.03L4417.29 1121.08C4366.69 1104.13 4320.88 1095.64 4279.86 1095.64V1096.64V1097.64C4320.61 1097.64 4366.2 1106.08 4416.65 1122.98L4416.97 1122.03ZM4279.86 1096.64V1095.64C4247.46 1095.64 4217.38 1101 4189.65 1111.72L4190.02 1112.66L4190.38 1113.59C4217.86 1102.96 4247.68 1097.64 4279.86 1097.64V1096.64ZM4190.02 1112.66L4189.66 1111.72C4162.21 1122.18 4139.3 1136.31 4120.96 1154.13L4121.66 1154.84L4122.35 1155.56C4140.47 1137.96 4163.14 1123.97 4190.37 1113.59L4190.02 1112.66ZM4121.66 1154.84L4120.95 1154.13C4102.9 1171.93 4088.76 1192.34 4078.55 1215.38L4079.47 1215.78L4080.38 1216.19C4090.49 1193.39 4104.48 1173.18 4122.36 1155.56L4121.66 1154.84ZM4079.47 1215.78L4078.55 1215.38C4068.6 1238.43 4063.62 1262.52 4063.62 1287.66H4064.62H4065.62C4065.62 1262.79 4070.55 1238.97 4080.39 1216.18L4079.47 1215.78ZM4064.62 1287.66H4063.62C4063.62 1313.58 4068.99 1338.33 4079.73 1361.9L4080.64 1361.48L4081.55 1361.07C4070.93 1337.76 4065.62 1313.29 4065.62 1287.66H4064.62ZM4080.64 1361.48L4079.74 1361.91C4090.73 1385.21 4105.91 1405.75 4125.28 1423.55L4125.95 1422.81L4126.63 1422.08C4107.45 1404.45 4092.43 1384.12 4081.54 1361.06L4080.64 1361.48ZM4125.95 1422.81L4125.29 1423.56C4144.93 1441.11 4169.53 1455.1 4199.06 1465.55L4199.39 1464.61L4199.72 1463.67C4170.4 1453.29 4146.04 1439.41 4126.62 1422.07L4125.95 1422.81ZM4199.39 1464.61L4199.06 1465.55C4228.61 1475.75 4260.88 1480.84 4295.88 1480.84V1479.84V1478.84C4261.08 1478.84 4229.03 1473.78 4199.72 1463.66L4199.39 1464.61ZM4295.88 1479.84V1480.84C4338.7 1480.84 4381.52 1473.27 4424.33 1458.13L4424 1457.19L4423.67 1456.24C4381.06 1471.31 4338.46 1478.84 4295.88 1478.84V1479.84ZM4424 1457.19L4424.33 1458.13L4438.78 1453.05L4438.45 1452.11L4438.12 1451.17L4423.67 1456.24L4424 1457.19ZM4438.45 1452.11L4437.53 1452.49L4469.56 1530.61L4470.48 1530.23L4471.41 1529.86L4439.38 1451.73L4438.45 1452.11ZM4470.48 1530.23L4470.09 1529.32L4455.63 1535.57L4456.03 1536.48L4456.43 1537.4L4470.88 1531.15L4470.48 1530.23ZM4456.03 1536.48L4455.64 1535.57C4399.25 1559.73 4339.75 1571.81 4277.12 1571.81V1572.81V1573.81C4340.02 1573.81 4399.79 1561.68 4456.43 1537.4L4456.03 1536.48ZM4277.12 1572.81V1571.81C4228.53 1571.81 4184.38 1564.41 4144.66 1549.61L4144.31 1550.55L4143.96 1551.48C4183.93 1566.37 4228.32 1573.81 4277.12 1573.81V1572.81ZM4144.31 1550.55L4144.66 1549.61C4105.19 1534.81 4072.64 1514.57 4046.97 1488.9L4046.27 1489.61L4045.56 1490.32C4071.46 1516.21 4104.27 1536.6 4143.96 1551.48L4144.31 1550.55ZM4046.27 1489.61L4046.98 1488.91C4021.29 1462.96 4001.44 1432.86 3987.43 1398.61L3986.5 1398.98L3985.57 1399.36C3999.69 1433.86 4019.68 1464.18 4045.55 1490.31L4046.27 1489.61ZM3986.5 1398.98L3987.43 1398.61C3973.68 1364.36 3966.8 1327.51 3966.8 1288.05H3965.8H3964.8C3964.8 1327.75 3971.72 1364.86 3985.57 1399.36L3986.5 1398.98ZM3965.8 1288.05H3966.8C3966.8 1248.06 3973.94 1210.96 3988.2 1176.71L3987.28 1176.33L3986.36 1175.94C3971.98 1210.45 3964.8 1247.82 3964.8 1288.05H3965.8ZM3987.28 1176.33L3988.2 1176.71C4002.47 1142.46 4022.84 1112.76 4049.3 1087.6L4048.61 1086.88L4047.92 1086.15C4021.26 1111.51 4000.73 1141.44 3986.36 1175.94L3987.28 1176.33ZM4048.61 1086.88L4049.3 1087.6C4075.74 1062.45 4108.95 1042.73 4148.95 1028.44L4148.61 1027.5L4148.27 1026.56C4108.06 1040.92 4074.6 1060.78 4047.92 1086.15L4048.61 1086.88ZM4148.61 1027.5L4148.95 1028.44C4188.93 1014.16 4233.34 1007.02 4282.2 1007.02V1006.02V1005.02C4233.15 1005.02 4188.5 1012.19 4148.27 1026.56L4148.61 1027.5Z" fill="white" mask="url(#path-17-outside-2_267_431)"/>
<mask id="path-19-outside-3_267_431" maskUnits="userSpaceOnUse" x="4614" y="1008" width="101" height="558" fill="black">
<rect fill="white" x="4614" y="1008" width="101" height="558"/>
<path d="M4615.41 1009.92H4713.84V1565H4615.41V1009.92Z"/>
</mask>
<path d="M4615.41 1009.92H4713.84V1565H4615.41V1009.92Z" fill="white"/>
<path d="M4615.41 1009.92V1008.92H4614.41V1009.92H4615.41ZM4713.84 1009.92H4714.84V1008.92H4713.84V1009.92ZM4713.84 1565V1566H4714.84V1565H4713.84ZM4615.41 1565H4614.41V1566H4615.41V1565ZM4615.41 1009.92V1010.92H4713.84V1009.92V1008.92H4615.41V1009.92ZM4713.84 1009.92H4712.84V1565H4713.84H4714.84V1009.92H4713.84ZM4713.84 1565V1564H4615.41V1565V1566H4713.84V1565ZM4615.41 1565H4616.41V1009.92H4615.41H4614.41V1565H4615.41Z" fill="white" mask="url(#path-19-outside-3_267_431)"/>
<mask id="path-21-outside-4_267_431" maskUnits="userSpaceOnUse" x="4870" y="1008" width="392" height="558" fill="black">
<rect fill="white" x="4870" y="1008" width="392" height="558"/>
<path d="M4871.47 1565V1009.92H5260.92V1100.55H4970.3V1233.75H5239.44V1324.38H4970.3V1474.38H5260.92V1565H4871.47Z"/>
</mask>
<path d="M4871.47 1565V1009.92H5260.92V1100.55H4970.3V1233.75H5239.44V1324.38H4970.3V1474.38H5260.92V1565H4871.47Z" fill="white"/>
<path d="M4871.47 1565H4870.47V1566H4871.47V1565ZM4871.47 1009.92V1008.92H4870.47V1009.92H4871.47ZM5260.92 1009.92H5261.92V1008.92H5260.92V1009.92ZM5260.92 1100.55V1101.55H5261.92V1100.55H5260.92ZM4970.3 1100.55V1099.55H4969.3V1100.55H4970.3ZM4970.3 1233.75H4969.3V1234.75H4970.3V1233.75ZM5239.44 1233.75H5240.44V1232.75H5239.44V1233.75ZM5239.44 1324.38V1325.38H5240.44V1324.38H5239.44ZM4970.3 1324.38V1323.38H4969.3V1324.38H4970.3ZM4970.3 1474.38H4969.3V1475.38H4970.3V1474.38ZM5260.92 1474.38H5261.92V1473.38H5260.92V1474.38ZM5260.92 1565V1566H5261.92V1565H5260.92ZM4871.47 1565H4872.47V1009.92H4871.47H4870.47V1565H4871.47ZM4871.47 1009.92V1010.92H5260.92V1009.92V1008.92H4871.47V1009.92ZM5260.92 1009.92H5259.92V1100.55H5260.92H5261.92V1009.92H5260.92ZM5260.92 1100.55V1099.55H4970.3V1100.55V1101.55H5260.92V1100.55ZM4970.3 1100.55H4969.3V1233.75H4970.3H4971.3V1100.55H4970.3ZM4970.3 1233.75V1234.75H5239.44V1233.75V1232.75H4970.3V1233.75ZM5239.44 1233.75H5238.44V1324.38H5239.44H5240.44V1233.75H5239.44ZM5239.44 1324.38V1323.38H4970.3V1324.38V1325.38H5239.44V1324.38ZM4970.3 1324.38H4969.3V1474.38H4970.3H4971.3V1324.38H4970.3ZM4970.3 1474.38V1475.38H5260.92V1474.38V1473.38H4970.3V1474.38ZM5260.92 1474.38H5259.92V1565H5260.92H5261.92V1474.38H5260.92ZM5260.92 1565V1564H4871.47V1565V1566H5260.92V1565Z" fill="white" mask="url(#path-21-outside-4_267_431)"/>
<mask id="path-23-outside-5_267_431" maskUnits="userSpaceOnUse" x="5406" y="1008" width="480" height="558" fill="black">
<rect fill="white" x="5406" y="1008" width="480" height="558"/>
<path d="M5837.47 1168.91C5837.47 1186.61 5835.26 1203.54 5830.83 1219.69C5826.66 1235.57 5819.89 1250.94 5810.52 1265.78C5801.4 1280.62 5788.77 1293.91 5772.62 1305.62C5756.74 1317.34 5737.86 1326.46 5715.98 1332.97L5883.56 1565H5755.44L5599.97 1349.77H5505.83V1565H5407.39V1009.92H5643.72C5655.44 1009.92 5666.11 1010.31 5675.75 1011.09C5685.65 1011.61 5697.49 1013.18 5711.3 1015.78C5725.36 1018.12 5737.73 1021.38 5748.41 1025.55C5759.34 1029.71 5770.54 1035.83 5782 1043.91C5793.72 1051.98 5803.35 1061.48 5810.91 1072.42C5818.72 1083.1 5825.1 1096.77 5830.05 1113.44C5834.99 1129.84 5837.47 1148.33 5837.47 1168.91ZM5505.83 1100.16V1259.14H5596.45C5612.08 1259.14 5625.88 1258.62 5637.86 1257.58C5649.84 1256.54 5662.21 1254.45 5674.97 1251.33C5687.73 1247.94 5698.15 1243.39 5706.22 1237.66C5714.55 1231.93 5721.32 1223.98 5726.53 1213.83C5732 1203.67 5734.73 1191.69 5734.73 1177.89C5734.73 1126.07 5694.76 1100.16 5614.81 1100.16H5505.83Z"/>
</mask>
<path d="M5837.47 1168.91C5837.47 1186.61 5835.26 1203.54 5830.83 1219.69C5826.66 1235.57 5819.89 1250.94 5810.52 1265.78C5801.4 1280.62 5788.77 1293.91 5772.62 1305.62C5756.74 1317.34 5737.86 1326.46 5715.98 1332.97L5883.56 1565H5755.44L5599.97 1349.77H5505.83V1565H5407.39V1009.92H5643.72C5655.44 1009.92 5666.11 1010.31 5675.75 1011.09C5685.65 1011.61 5697.49 1013.18 5711.3 1015.78C5725.36 1018.12 5737.73 1021.38 5748.41 1025.55C5759.34 1029.71 5770.54 1035.83 5782 1043.91C5793.72 1051.98 5803.35 1061.48 5810.91 1072.42C5818.72 1083.1 5825.1 1096.77 5830.05 1113.44C5834.99 1129.84 5837.47 1148.33 5837.47 1168.91ZM5505.83 1100.16V1259.14H5596.45C5612.08 1259.14 5625.88 1258.62 5637.86 1257.58C5649.84 1256.54 5662.21 1254.45 5674.97 1251.33C5687.73 1247.94 5698.15 1243.39 5706.22 1237.66C5714.55 1231.93 5721.32 1223.98 5726.53 1213.83C5732 1203.67 5734.73 1191.69 5734.73 1177.89C5734.73 1126.07 5694.76 1100.16 5614.81 1100.16H5505.83Z" fill="white"/>
<path d="M5830.83 1219.69L5829.86 1219.42L5829.86 1219.43L5830.83 1219.69ZM5810.52 1265.78L5809.67 1265.25L5809.66 1265.26L5810.52 1265.78ZM5772.62 1305.62L5772.04 1304.82L5772.03 1304.82L5772.62 1305.62ZM5715.98 1332.97L5715.7 1332.01L5714.35 1332.41L5715.17 1333.55L5715.98 1332.97ZM5883.56 1565V1566H5885.52L5884.37 1564.41L5883.56 1565ZM5755.44 1565L5754.63 1565.59L5754.93 1566H5755.44V1565ZM5599.97 1349.77L5600.78 1349.18L5600.48 1348.77H5599.97V1349.77ZM5505.83 1349.77V1348.77H5504.83V1349.77H5505.83ZM5505.83 1565V1566H5506.83V1565H5505.83ZM5407.39 1565H5406.39V1566H5407.39V1565ZM5407.39 1009.92V1008.92H5406.39V1009.92H5407.39ZM5675.75 1011.09L5675.67 1012.09L5675.68 1012.09L5675.7 1012.09L5675.75 1011.09ZM5711.3 1015.78L5711.11 1016.76L5711.12 1016.77L5711.13 1016.77L5711.3 1015.78ZM5748.41 1025.55L5748.04 1026.48L5748.05 1026.48L5748.41 1025.55ZM5782 1043.91L5781.42 1044.72L5781.43 1044.73L5782 1043.91ZM5810.91 1072.42L5810.08 1072.99L5810.09 1073L5810.1 1073.01L5810.91 1072.42ZM5830.05 1113.44L5829.09 1113.72L5829.09 1113.73L5830.05 1113.44ZM5505.83 1100.16V1099.16H5504.83V1100.16H5505.83ZM5505.83 1259.14H5504.83V1260.14H5505.83V1259.14ZM5674.97 1251.33L5675.21 1252.3L5675.22 1252.3L5675.23 1252.29L5674.97 1251.33ZM5706.22 1237.66L5705.65 1236.83L5705.65 1236.84L5705.64 1236.84L5706.22 1237.66ZM5726.53 1213.83L5725.65 1213.35L5725.65 1213.36L5725.64 1213.37L5726.53 1213.83ZM5837.47 1168.91H5836.47C5836.47 1186.53 5834.27 1203.37 5829.86 1219.42L5830.83 1219.69L5831.79 1219.95C5836.24 1203.72 5838.47 1186.7 5838.47 1168.91H5837.47ZM5830.83 1219.69L5829.86 1219.43C5825.72 1235.21 5818.99 1250.48 5809.67 1265.25L5810.52 1265.78L5811.36 1266.32C5820.79 1251.39 5827.6 1235.93 5831.8 1219.94L5830.83 1219.69ZM5810.52 1265.78L5809.66 1265.26C5800.63 1279.97 5788.09 1293.16 5772.04 1304.82L5772.62 1305.62L5773.21 1306.43C5789.45 1294.65 5802.18 1281.28 5811.37 1266.3L5810.52 1265.78ZM5772.62 1305.62L5772.03 1304.82C5756.25 1316.46 5737.48 1325.53 5715.7 1332.01L5715.98 1332.97L5716.27 1333.93C5738.24 1327.39 5757.23 1318.23 5773.22 1306.43L5772.62 1305.62ZM5715.98 1332.97L5715.17 1333.55L5882.75 1565.59L5883.56 1565L5884.37 1564.41L5716.8 1332.38L5715.98 1332.97ZM5883.56 1565V1564H5755.44V1565V1566H5883.56V1565ZM5755.44 1565L5756.25 1564.41L5600.78 1349.18L5599.97 1349.77L5599.16 1350.35L5754.63 1565.59L5755.44 1565ZM5599.97 1349.77V1348.77H5505.83V1349.77V1350.77H5599.97V1349.77ZM5505.83 1349.77H5504.83V1565H5505.83H5506.83V1349.77H5505.83ZM5505.83 1565V1564H5407.39V1565V1566H5505.83V1565ZM5407.39 1565H5408.39V1009.92H5407.39H5406.39V1565H5407.39ZM5407.39 1009.92V1010.92H5643.72V1009.92V1008.92H5407.39V1009.92ZM5643.72 1009.92V1010.92C5655.42 1010.92 5666.07 1011.31 5675.67 1012.09L5675.75 1011.09L5675.83 1010.1C5666.16 1009.31 5655.46 1008.92 5643.72 1008.92V1009.92ZM5675.75 1011.09L5675.7 1012.09C5685.53 1012.61 5697.34 1014.16 5711.11 1016.76L5711.3 1015.78L5711.48 1014.8C5697.65 1012.19 5685.76 1010.62 5675.8 1010.1L5675.75 1011.09ZM5711.3 1015.78L5711.13 1016.77C5725.14 1019.1 5737.44 1022.34 5748.04 1026.48L5748.41 1025.55L5748.77 1024.62C5738.02 1020.42 5725.58 1017.15 5711.46 1014.79L5711.3 1015.78ZM5748.41 1025.55L5748.05 1026.48C5758.9 1030.61 5770.02 1036.69 5781.42 1044.72L5782 1043.91L5782.58 1043.09C5771.06 1034.98 5759.79 1028.81 5748.76 1024.61L5748.41 1025.55ZM5782 1043.91L5781.43 1044.73C5793.06 1052.74 5802.61 1062.16 5810.08 1072.99L5810.91 1072.42L5811.73 1071.85C5804.1 1060.81 5794.38 1051.22 5782.57 1043.08L5782 1043.91ZM5810.91 1072.42L5810.1 1073.01C5817.83 1083.57 5824.16 1097.13 5829.09 1113.72L5830.05 1113.44L5831.01 1113.15C5826.03 1096.41 5819.61 1082.62 5811.71 1071.83L5810.91 1072.42ZM5830.05 1113.44L5829.09 1113.73C5834 1130.02 5836.47 1148.41 5836.47 1168.91H5837.47H5838.47C5838.47 1148.25 5835.99 1129.67 5831 1113.15L5830.05 1113.44ZM5505.83 1100.16H5504.83V1259.14H5505.83H5506.83V1100.16H5505.83ZM5505.83 1259.14V1260.14H5596.45V1259.14V1258.14H5505.83V1259.14ZM5596.45 1259.14V1260.14C5612.1 1260.14 5625.93 1259.62 5637.95 1258.57L5637.86 1257.58L5637.77 1256.58C5625.83 1257.62 5612.06 1258.14 5596.45 1258.14V1259.14ZM5637.86 1257.58L5637.95 1258.57C5649.98 1257.53 5662.4 1255.44 5675.21 1252.3L5674.97 1251.33L5674.73 1250.36C5662.02 1253.47 5649.7 1255.55 5637.77 1256.58L5637.86 1257.58ZM5674.97 1251.33L5675.23 1252.29C5688.06 1248.89 5698.6 1244.29 5706.8 1238.47L5706.22 1237.66L5705.64 1236.84C5697.69 1242.48 5687.39 1247 5674.71 1250.36L5674.97 1251.33ZM5706.22 1237.66L5706.79 1238.48C5715.27 1232.65 5722.15 1224.57 5727.42 1214.28L5726.53 1213.83L5725.64 1213.37C5720.5 1223.4 5713.83 1231.21 5705.65 1236.83L5706.22 1237.66ZM5726.53 1213.83L5727.41 1214.3C5732.97 1203.97 5735.73 1191.83 5735.73 1177.89H5734.73H5733.73C5733.73 1191.56 5731.03 1203.37 5725.65 1213.35L5726.53 1213.83ZM5734.73 1177.89H5735.73C5735.73 1151.68 5725.6 1131.91 5705.3 1118.75C5685.07 1105.64 5654.86 1099.16 5614.81 1099.16V1100.16V1101.16C5654.71 1101.16 5684.46 1107.63 5704.21 1120.43C5723.88 1133.18 5733.73 1152.28 5733.73 1177.89H5734.73ZM5614.81 1100.16V1099.16H5505.83V1100.16V1101.16H5614.81V1100.16Z" fill="white" mask="url(#path-23-outside-5_267_431)"/>
<mask id="path-25-outside-6_267_431" maskUnits="userSpaceOnUse" x="5963" y="1004" width="545" height="570" fill="black">
<rect fill="white" x="5963" y="1004" width="545" height="570"/>
<path d="M6506.98 1484.53C6453.08 1543.39 6375.99 1572.81 6275.73 1572.81C6233.03 1572.81 6193.96 1567.34 6158.55 1556.41C6123.39 1545.21 6093.96 1530.49 6070.27 1512.27C6046.57 1493.78 6026.52 1472.16 6010.11 1447.42C5993.96 1422.68 5982.24 1397.03 5974.95 1370.47C5967.66 1343.65 5964.02 1316.17 5964.02 1288.05C5964.02 1258.62 5968.05 1230.23 5976.12 1202.89C5984.2 1175.55 5996.7 1149.9 6013.62 1125.94C6030.81 1101.98 6051.39 1081.15 6075.34 1063.44C6099.56 1045.47 6128.73 1031.41 6162.84 1021.25C6196.96 1010.83 6234.2 1005.62 6274.56 1005.62C6348.26 1005.62 6414.54 1022.03 6473.39 1054.84L6487.06 1062.66L6446.05 1140L6431.98 1132.58C6413.49 1123.2 6390.32 1114.87 6362.45 1107.58C6334.59 1100.03 6306.59 1096.25 6278.47 1096.25C6250.86 1096.25 6224.17 1100.55 6198.39 1109.14C6172.61 1117.73 6149.56 1129.84 6129.25 1145.47C6109.2 1161.09 6093.05 1181.02 6080.81 1205.23C6068.83 1229.19 6062.84 1255.49 6062.84 1284.14C6062.84 1321.9 6072.74 1355.89 6092.53 1386.09C6112.32 1416.3 6139.67 1439.87 6174.56 1456.8C6209.72 1473.46 6249.17 1481.8 6292.92 1481.8C6340.84 1481.8 6380.03 1470.99 6410.5 1449.38V1342.73H6236.67V1256.02H6506.98V1484.53Z"/>
</mask>
<path d="M6506.98 1484.53C6453.08 1543.39 6375.99 1572.81 6275.73 1572.81C6233.03 1572.81 6193.96 1567.34 6158.55 1556.41C6123.39 1545.21 6093.96 1530.49 6070.27 1512.27C6046.57 1493.78 6026.52 1472.16 6010.11 1447.42C5993.96 1422.68 5982.24 1397.03 5974.95 1370.47C5967.66 1343.65 5964.02 1316.17 5964.02 1288.05C5964.02 1258.62 5968.05 1230.23 5976.12 1202.89C5984.2 1175.55 5996.7 1149.9 6013.62 1125.94C6030.81 1101.98 6051.39 1081.15 6075.34 1063.44C6099.56 1045.47 6128.73 1031.41 6162.84 1021.25C6196.96 1010.83 6234.2 1005.62 6274.56 1005.62C6348.26 1005.62 6414.54 1022.03 6473.39 1054.84L6487.06 1062.66L6446.05 1140L6431.98 1132.58C6413.49 1123.2 6390.32 1114.87 6362.45 1107.58C6334.59 1100.03 6306.59 1096.25 6278.47 1096.25C6250.86 1096.25 6224.17 1100.55 6198.39 1109.14C6172.61 1117.73 6149.56 1129.84 6129.25 1145.47C6109.2 1161.09 6093.05 1181.02 6080.81 1205.23C6068.83 1229.19 6062.84 1255.49 6062.84 1284.14C6062.84 1321.9 6072.74 1355.89 6092.53 1386.09C6112.32 1416.3 6139.67 1439.87 6174.56 1456.8C6209.72 1473.46 6249.17 1481.8 6292.92 1481.8C6340.84 1481.8 6380.03 1470.99 6410.5 1449.38V1342.73H6236.67V1256.02H6506.98V1484.53Z" fill="white"/>
<path d="M6506.98 1484.53L6507.72 1485.21L6507.98 1484.92V1484.53H6506.98ZM6158.55 1556.41L6158.24 1557.36L6158.25 1557.36L6158.55 1556.41ZM6070.27 1512.27L6069.65 1513.05L6069.66 1513.06L6070.27 1512.27ZM6010.11 1447.42L6009.27 1447.97L6009.28 1447.97L6010.11 1447.42ZM5974.95 1370.47L5973.99 1370.73L5973.99 1370.73L5974.95 1370.47ZM5976.12 1202.89L5975.17 1202.61L5976.12 1202.89ZM6013.62 1125.94L6012.81 1125.35L6012.81 1125.36L6013.62 1125.94ZM6075.34 1063.44L6075.94 1064.24L6075.94 1064.24L6075.34 1063.44ZM6162.84 1021.25L6163.13 1022.21L6163.14 1022.21L6162.84 1021.25ZM6473.39 1054.84L6473.89 1053.98L6473.88 1053.97L6473.39 1054.84ZM6487.06 1062.66L6487.95 1063.12L6488.4 1062.27L6487.56 1061.79L6487.06 1062.66ZM6446.05 1140L6445.58 1140.88L6446.46 1141.35L6446.93 1140.47L6446.05 1140ZM6431.98 1132.58L6432.45 1131.69L6432.44 1131.69L6432.44 1131.69L6431.98 1132.58ZM6362.45 1107.58L6362.19 1108.54L6362.2 1108.55L6362.45 1107.58ZM6129.25 1145.47L6128.64 1144.68L6128.64 1144.68L6129.25 1145.47ZM6080.81 1205.23L6079.92 1204.78L6079.92 1204.79L6080.81 1205.23ZM6174.56 1456.8L6174.13 1457.7L6174.13 1457.7L6174.56 1456.8ZM6410.5 1449.38L6411.08 1450.19L6411.5 1449.89V1449.38H6410.5ZM6410.5 1342.73H6411.5V1341.73H6410.5V1342.73ZM6236.67 1342.73H6235.67V1343.73H6236.67V1342.73ZM6236.67 1256.02V1255.02H6235.67V1256.02H6236.67ZM6506.98 1256.02H6507.98V1255.02H6506.98V1256.02ZM6506.98 1484.53L6506.25 1483.86C6452.58 1542.45 6375.79 1571.81 6275.73 1571.81V1572.81V1573.81C6376.2 1573.81 6453.58 1544.32 6507.72 1485.21L6506.98 1484.53ZM6275.73 1572.81V1571.81C6233.11 1571.81 6194.15 1566.35 6158.84 1555.45L6158.55 1556.41L6158.25 1557.36C6193.78 1568.33 6232.94 1573.81 6275.73 1573.81V1572.81ZM6158.55 1556.41L6158.85 1555.45C6123.78 1544.28 6094.46 1529.62 6070.88 1511.47L6070.27 1512.27L6069.66 1513.06C6093.46 1531.37 6123 1546.13 6158.24 1557.36L6158.55 1556.41ZM6070.27 1512.27L6070.88 1511.48C6047.27 1493.05 6027.29 1471.52 6010.94 1446.87L6010.11 1447.42L6009.28 1447.97C6025.74 1472.81 6045.87 1494.5 6069.65 1513.05L6070.27 1512.27ZM6010.11 1447.42L6010.95 1446.88C5994.85 1422.22 5983.18 1396.66 5975.92 1370.2L5974.95 1370.47L5973.99 1370.73C5981.31 1397.4 5993.07 1423.15 6009.27 1447.97L6010.11 1447.42ZM5974.95 1370.47L5975.92 1370.21C5968.65 1343.47 5965.02 1316.08 5965.02 1288.05H5964.02H5963.02C5963.02 1316.26 5966.67 1343.82 5973.99 1370.73L5974.95 1370.47ZM5964.02 1288.05H5965.02C5965.02 1258.71 5969.04 1230.42 5977.08 1203.17L5976.12 1202.89L5975.17 1202.61C5967.07 1230.05 5963.02 1258.53 5963.02 1288.05H5964.02ZM5976.12 1202.89L5977.08 1203.17C5985.13 1175.94 5997.58 1150.39 6014.44 1126.51L6013.62 1125.94L6012.81 1125.36C5995.82 1149.41 5983.27 1175.16 5975.17 1202.61L5976.12 1202.89ZM6013.62 1125.94L6014.44 1126.52C6031.56 1102.65 6052.06 1081.89 6075.94 1064.24L6075.34 1063.44L6074.75 1062.63C6050.71 1080.4 6030.06 1101.31 6012.81 1125.35L6013.62 1125.94ZM6075.34 1063.44L6075.94 1064.24C6100.05 1046.35 6129.11 1032.34 6163.13 1022.21L6162.84 1021.25L6162.56 1020.29C6128.35 1030.48 6099.08 1044.58 6074.75 1062.63L6075.34 1063.44ZM6162.84 1021.25L6163.14 1022.21C6197.14 1011.82 6234.28 1006.62 6274.56 1006.62V1005.62V1004.62C6234.11 1004.62 6196.77 1009.84 6162.55 1020.29L6162.84 1021.25ZM6274.56 1005.62V1006.62C6348.11 1006.62 6414.21 1023 6472.9 1055.72L6473.39 1054.84L6473.88 1053.97C6414.86 1021.07 6348.41 1004.62 6274.56 1004.62V1005.62ZM6473.39 1054.84L6472.89 1055.71L6486.57 1063.52L6487.06 1062.66L6487.56 1061.79L6473.89 1053.98L6473.39 1054.84ZM6487.06 1062.66L6486.18 1062.19L6445.16 1139.53L6446.05 1140L6446.93 1140.47L6487.95 1063.12L6487.06 1062.66ZM6446.05 1140L6446.51 1139.12L6432.45 1131.69L6431.98 1132.58L6431.52 1133.46L6445.58 1140.88L6446.05 1140ZM6431.98 1132.58L6432.44 1131.69C6413.86 1122.27 6390.62 1113.91 6362.71 1106.61L6362.45 1107.58L6362.2 1108.55C6390.02 1115.83 6413.13 1124.14 6431.53 1133.47L6431.98 1132.58ZM6362.45 1107.58L6362.71 1106.61C6334.77 1099.04 6306.68 1095.25 6278.47 1095.25V1096.25V1097.25C6306.5 1097.25 6334.41 1101.01 6362.19 1108.54L6362.45 1107.58ZM6278.47 1096.25V1095.25C6250.76 1095.25 6223.96 1099.56 6198.07 1108.19L6198.39 1109.14L6198.71 1110.09C6224.38 1101.53 6250.97 1097.25 6278.47 1097.25V1096.25ZM6198.39 1109.14L6198.07 1108.19C6172.19 1116.82 6149.05 1128.98 6128.64 1144.68L6129.25 1145.47L6129.86 1146.26C6150.08 1130.71 6173.03 1118.65 6198.71 1110.09L6198.39 1109.14ZM6129.25 1145.47L6128.64 1144.68C6108.46 1160.4 6092.22 1180.44 6079.92 1204.78L6080.81 1205.23L6081.71 1205.69C6093.88 1181.59 6109.94 1161.79 6129.86 1146.26L6129.25 1145.47ZM6080.81 1205.23L6079.92 1204.79C6067.86 1228.89 6061.84 1255.35 6061.84 1284.14H6062.84H6063.84C6063.84 1255.64 6069.8 1229.49 6081.71 1205.68L6080.81 1205.23ZM6062.84 1284.14H6061.84C6061.84 1322.09 6071.79 1356.26 6091.69 1386.64L6092.53 1386.09L6093.37 1385.55C6073.69 1355.51 6063.84 1321.72 6063.84 1284.14H6062.84ZM6092.53 1386.09L6091.69 1386.64C6111.59 1417.01 6139.08 1440.7 6174.13 1457.7L6174.56 1456.8L6175 1455.9C6140.25 1439.04 6113.05 1415.59 6093.37 1385.55L6092.53 1386.09ZM6174.56 1456.8L6174.13 1457.7C6209.44 1474.44 6249.04 1482.8 6292.92 1482.8V1481.8V1480.8C6249.3 1480.8 6210 1472.49 6174.99 1455.89L6174.56 1456.8ZM6292.92 1481.8V1482.8C6340.99 1482.8 6380.4 1471.96 6411.08 1450.19L6410.5 1449.38L6409.92 1448.56C6379.66 1470.02 6340.69 1480.8 6292.92 1480.8V1481.8ZM6410.5 1449.38H6411.5V1342.73H6410.5H6409.5V1449.38H6410.5ZM6410.5 1342.73V1341.73H6236.67V1342.73V1343.73H6410.5V1342.73ZM6236.67 1342.73H6237.67V1256.02H6236.67H6235.67V1342.73H6236.67ZM6236.67 1256.02V1257.02H6506.98V1256.02V1255.02H6236.67V1256.02ZM6506.98 1256.02H6505.98V1484.53H6506.98H6507.98V1256.02H6506.98Z" fill="white" mask="url(#path-25-outside-6_267_431)"/>
<mask id="path-27-outside-7_267_431" maskUnits="userSpaceOnUse" x="6635" y="1008" width="392" height="558" fill="black">
<rect fill="white" x="6635" y="1008" width="392" height="558"/>
<path d="M6636.47 1565V1009.92H7025.92V1100.55H6735.3V1233.75H7004.44V1324.38H6735.3V1474.38H7025.92V1565H6636.47Z"/>
</mask>
<path d="M6636.47 1565V1009.92H7025.92V1100.55H6735.3V1233.75H7004.44V1324.38H6735.3V1474.38H7025.92V1565H6636.47Z" fill="white"/>
<path d="M6636.47 1565H6635.47V1566H6636.47V1565ZM6636.47 1009.92V1008.92H6635.47V1009.92H6636.47ZM7025.92 1009.92H7026.92V1008.92H7025.92V1009.92ZM7025.92 1100.55V1101.55H7026.92V1100.55H7025.92ZM6735.3 1100.55V1099.55H6734.3V1100.55H6735.3ZM6735.3 1233.75H6734.3V1234.75H6735.3V1233.75ZM7004.44 1233.75H7005.44V1232.75H7004.44V1233.75ZM7004.44 1324.38V1325.38H7005.44V1324.38H7004.44ZM6735.3 1324.38V1323.38H6734.3V1324.38H6735.3ZM6735.3 1474.38H6734.3V1475.38H6735.3V1474.38ZM7025.92 1474.38H7026.92V1473.38H7025.92V1474.38ZM7025.92 1565V1566H7026.92V1565H7025.92ZM6636.47 1565H6637.47V1009.92H6636.47H6635.47V1565H6636.47ZM6636.47 1009.92V1010.92H7025.92V1009.92V1008.92H6636.47V1009.92ZM7025.92 1009.92H7024.92V1100.55H7025.92H7026.92V1009.92H7025.92ZM7025.92 1100.55V1099.55H6735.3V1100.55V1101.55H7025.92V1100.55ZM6735.3 1100.55H6734.3V1233.75H6735.3H6736.3V1100.55H6735.3ZM6735.3 1233.75V1234.75H7004.44V1233.75V1232.75H6735.3V1233.75ZM7004.44 1233.75H7003.44V1324.38H7004.44H7005.44V1233.75H7004.44ZM7004.44 1324.38V1323.38H6735.3V1324.38V1325.38H7004.44V1324.38ZM6735.3 1324.38H6734.3V1474.38H6735.3H6736.3V1324.38H6735.3ZM6735.3 1474.38V1475.38H7025.92V1474.38V1473.38H6735.3V1474.38ZM7025.92 1474.38H7024.92V1565H7025.92H7026.92V1474.38H7025.92ZM7025.92 1565V1564H6636.47V1565V1566H7025.92V1565Z" fill="white" mask="url(#path-27-outside-7_267_431)"/>
<mask id="path-29-outside-8_267_431" maskUnits="userSpaceOnUse" x="3338" y="1008" width="520" height="558" fill="black">
<rect fill="white" x="3338" y="1008" width="520" height="558"/>
<path d="M3339.53 1009.92H3448.12L3757.89 1436.48V1009.92H3856.33V1565H3746.56L3437.97 1137.66V1565H3339.53V1009.92Z"/>
</mask>
<path d="M3339.53 1009.92H3448.12L3757.89 1436.48V1009.92H3856.33V1565H3746.56L3437.97 1137.66V1565H3339.53V1009.92Z" fill="white"/>
<path d="M3339.53 1009.92V1008.92H3338.53V1009.92H3339.53ZM3448.12 1009.92L3448.93 1009.33L3448.63 1008.92H3448.12V1009.92ZM3757.89 1436.48L3757.08 1437.07L3758.89 1439.56V1436.48H3757.89ZM3757.89 1009.92V1008.92H3756.89V1009.92H3757.89ZM3856.33 1009.92H3857.33V1008.92H3856.33V1009.92ZM3856.33 1565V1566H3857.33V1565H3856.33ZM3746.56 1565L3745.75 1565.59L3746.05 1566H3746.56V1565ZM3437.97 1137.66L3438.78 1137.07L3436.97 1134.56V1137.66H3437.97ZM3437.97 1565V1566H3438.97V1565H3437.97ZM3339.53 1565H3338.53V1566H3339.53V1565ZM3339.53 1009.92V1010.92H3448.12V1009.92V1008.92H3339.53V1009.92ZM3448.12 1009.92L3447.32 1010.51L3757.08 1437.07L3757.89 1436.48L3758.7 1435.9L3448.93 1009.33L3448.12 1009.92ZM3757.89 1436.48H3758.89V1009.92H3757.89H3756.89V1436.48H3757.89ZM3757.89 1009.92V1010.92H3856.33V1009.92V1008.92H3757.89V1009.92ZM3856.33 1009.92H3855.33V1565H3856.33H3857.33V1009.92H3856.33ZM3856.33 1565V1564H3746.56V1565V1566H3856.33V1565ZM3746.56 1565L3747.37 1564.41L3438.78 1137.07L3437.97 1137.66L3437.16 1138.24L3745.75 1565.59L3746.56 1565ZM3437.97 1137.66H3436.97V1565H3437.97H3438.97V1137.66H3437.97ZM3437.97 1565V1564H3339.53V1565V1566H3437.97V1565ZM3339.53 1565H3340.53V1009.92H3339.53H3338.53V1565H3339.53Z" fill="white" mask="url(#path-29-outside-8_267_431)"/>
<path d="M2928.19 2925C3144.72 2925 3324.61 3046.38 3360.37 3206H3276.96C3241.49 3100.69 3112.73 3005 2928.19 3005C2743.64 3005 2614.88 3100.69 2579.41 3206H2496C2531.77 3046.38 2711.65 2925 2928.19 2925Z" fill="white"/>
</g>
<defs>
<clipPath id="clip0_267_431">
<rect width="8652" height="2928" fill="white"/>
</clipPath>
</defs>
</svg>
