<svg xmlns="http://www.w3.org/2000/svg" width="28" height="28" viewBox="0 0 28 28" fill="none">
  <path d="M10.8281 21.5625V22.875C10.8281 23.9193 11.243 24.9208 11.9814 25.6592C12.7198 26.3977 13.7213 26.8125 14.7656 26.8125C15.8099 26.8125 16.8114 26.3977 17.5499 25.6592C18.2883 24.9208 18.7031 23.9193 18.7031 22.875V21.5625M12.1406 5.8125C12.1406 5.11631 12.4172 4.44863 12.9095 3.95634C13.4018 3.46406 14.0694 3.1875 14.7656 3.1875C15.4618 3.1875 16.1295 3.46406 16.6218 3.95634C17.1141 4.44863 17.3906 5.11631 17.3906 5.8125C18.8979 6.52522 20.1828 7.63468 21.1077 9.02196C22.0325 10.4092 22.5625 12.022 22.6406 13.6875V17.625C22.7394 18.441 23.0284 19.2224 23.4843 19.9063C23.9403 20.5902 24.5504 21.1575 25.2656 21.5625H4.26562C4.98086 21.1575 5.591 20.5902 6.04693 19.9063C6.50287 19.2224 6.79185 18.441 6.89062 17.625V13.6875C6.9688 12.022 7.49871 10.4092 8.42356 9.02196C9.34841 7.63468 10.6333 6.52522 12.1406 5.8125Z" stroke="#818181" stroke-width="1.5" stroke-linecap="round" stroke-linejoin="round"/>
</svg>