<svg xmlns="http://www.w3.org/2000/svg" width="12" height="12" viewBox="0 0 14 14" fill="none">
<path d="M7.5 12.75L12.75 7.5M7.5 12.75V8.25C7.5 8.05109 7.57902 7.86032 7.71967 7.71967C7.86032 7.57902 8.05109 7.5 8.25 7.5H12.75M7.5 12.75H2.25C1.85218 12.75 1.47064 12.592 1.18934 12.3107C0.908035 12.0294 0.75 11.6478 0.75 11.25V2.25C0.75 1.85218 0.908035 1.47064 1.18934 1.18934C1.47064 0.908035 1.85218 0.75 2.25 0.75H11.25C11.6478 0.75 12.0294 0.908035 12.3107 1.18934C12.592 1.47064 12.75 1.85218 12.75 2.25V7.5" stroke="#9CA3AF" stroke-width="1.5" stroke-linecap="round" stroke-linejoin="round"/>
</svg>