<?xml version="1.0" encoding="UTF-8" standalone="no"?>
<!-- Generator: Adobe Illustrator 12.0.0, SVG Export Plug-In . SVG Version: 6.00 Build 51448)  -->
<!DOCTYPE svg  PUBLIC '-//W3C//DTD SVG 1.1//EN'  'http://www.w3.org/Graphics/SVG/1.1/DTD/svg11.dtd' [
	<!ENTITY ns_svg "http://www.w3.org/2000/svg">
	<!ENTITY ns_xlink "http://www.w3.org/1999/xlink">
]>
<svg id="Layer_1" xmlns="http://www.w3.org/2000/svg" xml:space="preserve" height="44.31" viewBox="0 0 175.748 44.31" width="175.75" version="1.1" overflow="visible" xmlns:xlink="http://www.w3.org/1999/xlink" enable-background="new 0 0 175.748 44.31">
<path fill="#0A3190" clip-rule="evenodd" d="m46.339 5.818h13.191l8.591 29.832c0.338 0.947 1.15 0.678 1.285 0l5.479-29.832h5.818l-6.832 38.492h-13.462l-8.388-29.563c-0.271-0.812-1.083-1.015-1.353 0.067l-5.276 29.496h-6.088l7.035-38.492z" fill-rule="evenodd"/>
<path fill="#0A3190" clip-rule="evenodd" d="m22.392 5.818h12.853l2.571 38.492h-9.606l-0.203-4.33c0-0.947-0.744-1.623-1.691-1.623h-14.816l3.247-5.48h10.147c1.15 0 2.503 0.135 2.436-1.42l-1.083-17.25c0-1.15-1.014-1.691-1.623-0.609l-18.062 30.712h-6.562l22.392-38.492z" fill-rule="evenodd"/>
<path fill="#0A3190" clip-rule="evenodd" d="m95.519 5.818h12.92l3.045 38.492h-9.674l-0.203-4.33c0-0.947-0.677-1.623-1.624-1.623h-13.6l3.18-5.48h8.997c1.15 0 2.503 0.135 2.367-1.42l-1.556-17.25c0-1.15-1.015-1.691-1.623-0.609l-15.83 30.712h-6.562l20.16-38.492z" fill-rule="evenodd"/>
<polygon points="150.31 44.31 175.75 0 139.69 0 114.26 44.31" fill="#00A7EA" clip-rule="evenodd" fill-rule="evenodd"/>
<polygon points="143.21 44.31 168.65 0 139.69 0 114.26 44.31" fill="#0A3190" clip-rule="evenodd" fill-rule="evenodd"/>
</svg>
